<svg style="display: none;" aria-hidden="true"><defs/><symbol id="symbol-mail" viewBox="0 0 24 24" aria-label="mail" role="img"><path d="M4 4h16c1.1 0 2 .9 2 2v12c0 1.1-.9 2-2 2H4c-1.1 0-2-.9-2-2V6c0-1.1.9-2 2-2z"/><polyline points="22,6 12,13 2,6"/></symbol><symbol id="symbol-message" viewBox="0 0 24 24" aria-label="message" role="img"><path d="M21 15a2 2 0 0 1-2 2H7l-4 4V5a2 2 0 0 1 2-2h14a2 2 0 0 1 2 2z"/></symbol><symbol id="symbol-book" viewBox="0 0 24 24" aria-label="book" role="img"><path d="M2 3h6a4 4 0 0 1 4 4v14a3 3 0 0 0-3-3H2z"/><path d="M22 3h-6a4 4 0 0 0-4 4v14a3 3 0 0 1 3-3h7z"/></symbol><symbol id="symbol-thumb" viewBox="0 0 24 24" aria-label="thumb" role="img"><path d="M14 9V5a3 3 0 0 0-3-3l-4 9v11h11.28a2 2 0 0 0 2-1.7l1.38-9a2 2 0 0 0-2-2.3zM7 22H4a2 2 0 0 1-2-2v-7a2 2 0 0 1 2-2h3"/></symbol><symbol id="symbol-user" viewBox="0 0 24 24" aria-label="user" role="img"><path d="M20 21v-2a4 4 0 0 0-4-4H8a4 4 0 0 0-4 4v2"/><circle cx="12" cy="7" r="4"/></symbol><symbol id="symbol-video" viewBox="0 0 24 24" aria-label="Video" role="img"><rect x="2" y="2" width="20" height="20" rx="2.18" ry="2.18"/><line x1="7" y1="2" x2="7" y2="22"/><line x1="17" y1="2" x2="17" y2="22"/><line x1="2" y1="12" x2="22" y2="12"/><line x1="2" y1="7" x2="7" y2="7"/><line x1="2" y1="17" x2="7" y2="17"/><line x1="17" y1="17" x2="22" y2="17"/><line x1="17" y1="7" x2="22" y2="7"/></symbol><symbol id="symbol-like" viewBox="0 0 24 24" aria-label="like" role="img"><path d="M20.84 4.61a5.5 5.5 0 0 0-7.78 0L12 5.67l-1.06-1.06a5.5 5.5 0 0 0-7.78 7.78l1.06 1.06L12 21.23l7.78-7.78 1.06-1.06a5.5 5.5 0 0 0 0-7.78z"/></symbol><symbol id="symbol-anchor" viewBox="0 0 24 24" aria-label="Anchor" role="img"><circle cx="12" cy="5" r="3"/><line x1="12" y1="22" x2="12" y2="8"/><path d="M5 12H2a10 10 0 0 0 20 0h-3"/></symbol><symbol id="symbol-date" viewBox="0 0 24 24" aria-label="Date" role="img"><rect x="3" y="4" width="18" height="18" rx="2" ry="2"/><line x1="16" y1="2" x2="16" y2="6"/><line x1="8" y1="2" x2="8" y2="6"/><line x1="3" y1="10" x2="21" y2="10"/></symbol><symbol id="symbol-info" viewBox="0 0 24 24" aria-label="Info" role="img"><circle cx="12" cy="12" r="10"/><line x1="12" y1="16" x2="12" y2="12"/><line x1="12" y1="8" x2="12.01" y2="8"/></symbol><symbol id="symbol-location" viewBox="0 0 24 24" aria-label="Location" role="img"><path d="M21 10c0 7-9 13-9 13s-9-6-9-13a9 9 0 0 1 18 0z"/><circle cx="12" cy="10" r="3"/></symbol><symbol id="symbol-map" viewBox="0 0 24 24" aria-label="event" role="img"><polygon points="1 6 1 22 8 18 16 22 23 18 23 2 16 6 8 2 1 6"/><line x1="8" y1="2" x2="8" y2="18"/><line x1="16" y1="6" x2="16" y2="22"/></symbol><symbol id="symbol-comments" viewBox="0 0 24 24" aria-label="Webmention" role="img"><path d="M21 11.5a8.38 8.38 0 0 1-.9 3.8 8.5 8.5 0 0 1-7.6 4.7 8.38 8.38 0 0 1-3.8-.9L3 21l1.9-5.7a8.38 8.38 0 0 1-.9-3.8 8.5 8.5 0 0 1 4.7-7.6 8.38 8.38 0 0 1 3.8-.9h.5a8.48 8.48 0 0 1 8 8v.5z"/></symbol><symbol id="symbol-search" viewBox="0 0 24 24" aria-label="Search" role="img"><circle cx="11" cy="11" r="8"/><line x1="21" y1="21" x2="16.65" y2="16.65"/></symbol><symbol id="symbol-tags" viewBox="0 0 24 24" aria-label="Tag" role="img"><path d="M20.59 13.41l-7.17 7.17a2 2 0 0 1-2.83 0L2 12V2h10l8.59 8.59a2 2 0 0 1 0 2.82z"/><line x1="7" y1="7" x2="7.01" y2="7"/></symbol><symbol id="symbol-twitter" viewBox="0 0 24 24" aria-label="Twitter" role="img"><path d="M23 3a10.9 10.9 0 0 1-3.14 1.53 4.48 4.48 0 0 0-7.86 3v1A10.66 10.66 0 0 1 3 4s-4 9 5 13a11.64 11.64 0 0 1-7 2c9 5 20 0 20-11.5a4.5 4.5 0 0 0-.08-.83A7.72 7.72 0 0 0 23 3z"/></symbol><symbol id="symbol-online" viewBox="0 0 24 24" aria-label="Online" role="img"><path d="M5 12.55a11 11 0 0 1 14.08 0"/><path d="M1.42 9a16 16 0 0 1 21.16 0"/><path d="M8.53 16.11a6 6 0 0 1 6.95 0"/><line x1="12" y1="20" x2="12.01" y2="20"/></symbol><symbol id="symbol-offline" viewBox="0 0 24 24" aria-label="Offline" role="img"><line x1="1" y1="1" x2="23" y2="23"/><path d="M16.72 11.06A10.94 10.94 0 0 1 19 12.55"/><path d="M5 12.55a10.94 10.94 0 0 1 5.17-2.39"/><path d="M10.71 5.05A16 16 0 0 1 22.58 9"/><path d="M1.42 9a15.91 15.91 0 0 1 4.7-2.88"/><path d="M8.53 16.11a6 6 0 0 1 6.95 0"/><line x1="12" y1="20" x2="12.01" y2="20"/></symbol><symbol id="symbol-download" viewBox="0 0 24 24" aria-label="Download" role="img"><path d="M21 15v4a2 2 0 0 1-2 2H5a2 2 0 0 1-2-2v-4"/><polyline points="7 10 12 15 17 10"/><line x1="12" y1="15" x2="12" y2="3"/></symbol><symbol id="symbol-exlink" viewBox="0 0 24 24" aria-label="external-link" role="img"><path d="M18 13v6a2 2 0 0 1-2 2H5a2 2 0 0 1-2-2V8a2 2 0 0 1 2-2h6"/><polyline points="15 3 21 3 21 9"/><line x1="10" y1="14" x2="21" y2="3"/></symbol><symbol id="symbol-link" viewBox="0 0 24 24" aria-label="Link" role="img"><path d="M10 13a5 5 0 0 0 7.54.54l3-3a5 5 0 0 0-7.07-7.07l-1.72 1.71"/><path d="M14 11a5 5 0 0 0-7.54-.54l-3 3a5 5 0 0 0 7.07 7.07l1.71-1.71"/></symbol><symbol id="symbol-chevronDown" viewBox="0 0 24 24" aria-label="chevron-down" role="img"><polyline points="7 13 12 18 17 13"/><polyline points="7 6 12 11 17 6"/></symbol><symbol id="symbol-chevronRight" viewBox="0 0 24 24" aria-label="chevron-right" role="img"><polyline points="13 17 18 12 13 7"/><polyline points="6 17 11 12 6 7"/></symbol><symbol id="symbol-github" viewBox="0 0 24 24" role="img" aria-label="GitHub"><title>GitHub icon</title><path d="M12 .297c-6.63 0-12 5.373-12 12 0 5.303 3.438 9.8 8.205 11.385.6.113.82-.258.82-.577 0-.285-.01-1.04-.015-2.04-3.338.724-4.042-1.61-4.042-1.61C4.422 18.07 3.633 17.7 3.633 17.7c-1.087-.744.084-.729.084-.729 1.205.084 1.838 1.236 1.838 1.236 1.07 1.835 2.809 1.305 3.495.998.108-.776.417-1.305.76-1.605-2.665-.3-5.466-1.332-5.466-5.93 0-1.31.465-2.38 1.235-3.22-.135-.303-.54-1.523.105-3.176 0 0 1.005-.322 3.3 1.23.96-.267 1.98-.399 3-.405 1.02.006 2.04.138 3 .405 2.28-1.552 3.285-1.23 3.285-1.23.645 1.653.24 2.873.12 3.176.765.84 1.23 1.91 1.23 3.22 0 4.61-2.805 5.625-5.475 5.92.42.36.81 1.096.81 2.22 0 1.606-.015 2.896-.015 3.286 0 .315.21.69.825.57C20.565 22.092 24 17.592 24 12.297c0-6.627-5.373-12-12-12"/></symbol><symbol id="symbol-mastodon" viewBox="0 0 24 24" role="img" aria-label="Mastodon"><title>Mastodon icon</title><path d="M23.193 7.88c0-5.207-3.411-6.733-3.411-6.733C18.062.357 15.108.025 12.041 0h-.076c-3.069.025-6.02.357-7.74 1.147 0 0-3.412 1.526-3.412 6.732 0 1.193-.023 2.619.015 4.13.124 5.092.934 10.11 5.641 11.355 2.17.574 4.034.695 5.536.612 2.722-.15 4.25-.972 4.25-.972l-.09-1.975s-1.945.613-4.13.54c-2.165-.075-4.449-.234-4.799-2.892a5.5 5.5 0 0 1-.048-.745s2.125.52 4.818.643c1.646.075 3.19-.097 4.758-.283 3.007-.359 5.625-2.212 5.954-3.905.517-2.665.475-6.508.475-6.508zm-4.024 6.709h-2.497v-6.12c0-1.29-.543-1.944-1.628-1.944-1.2 0-1.802.776-1.802 2.313v3.349h-2.484v-3.35c0-1.537-.602-2.313-1.802-2.313-1.085 0-1.628.655-1.628 1.945v6.119H4.831V8.285c0-1.29.328-2.314.987-3.07.68-.759 1.57-1.147 2.674-1.147 1.278 0 2.246.491 2.886 1.474L12 6.585l.622-1.043c.64-.983 1.608-1.474 2.886-1.474 1.104 0 1.994.388 2.674 1.146.658.757.986 1.781.986 3.07v6.305z"/></symbol><symbol id="symbol-researchgate" viewBox="0 0 24 24" role="img" aria-label="researchgate"><title>ResearchGate icon</title><path d="M19.586 0c-.818 0-1.508.19-2.073.565-.563.377-.97.936-1.213 1.68a3.193 3.193 0 0 0-.112.437 8.365 8.365 0 0 0-.078.53 9 9 0 0 0-.05.727c-.01.282-.013.621-.013 1.016a31.121 31.123 0 0 0 .014 1.017 9 9 0 0 0 .05.727 7.946 7.946 0 0 0 .077.53h-.005a3.334 3.334 0 0 0 .113.438c.245.743.65 1.303 1.214 1.68.565.376 1.256.564 2.075.564.8 0 1.536-.213 2.105-.603.57-.39.94-.916 1.175-1.65.076-.235.135-.558.177-.93a10.9 10.9 0 0 0 .043-1.207v-.82c0-.095-.047-.142-.14-.142h-3.064c-.094 0-.14.047-.14.141v.956c0 .094.046.14.14.14h1.666c.056 0 .084.03.084.086 0 .36 0 .62-.036.865-.038.244-.1.447-.147.606-.108.385-.348.664-.638.876-.29.212-.738.35-1.227.35-.545 0-.901-.15-1.21-.353-.306-.203-.517-.454-.67-.915a3.136 3.136 0 0 1-.147-.762 17.366 17.367 0 0 1-.034-.656c-.01-.26-.014-.572-.014-.939a26.401 26.403 0 0 1 .014-.938 15.821 15.822 0 0 1 .035-.656 3.19 3.19 0 0 1 .148-.76 1.89 1.89 0 0 1 .742-1.01c.344-.244.593-.352 1.137-.352.508 0 .815.096 1.144.303.33.207.528.492.764.925.047.094.111.118.198.07l1.044-.43c.075-.048.09-.115.042-.199a3.549 3.549 0 0 0-.466-.742 3 3 0 0 0-.679-.607 3.313 3.313 0 0 0-.903-.41A4.068 4.068 0 0 0 19.586 0zM8.217 5.836c-1.69 0-3.036.086-4.297.086-1.146 0-2.291 0-3.007-.029v.831l1.088.2c.744.144 1.174.488 1.174 2.264v11.288c0 1.777-.43 2.12-1.174 2.263l-1.088.2v.832c.773-.029 2.12-.086 3.465-.086 1.29 0 2.951.057 3.667.086v-.831l-1.49-.2c-.773-.115-1.174-.487-1.174-2.264v-4.784c.688.057 1.29.057 2.206.057 1.748 3.123 3.41 5.472 4.355 6.56.86 1.032 2.177 1.691 3.839 1.691.487 0 1.003-.086 1.318-.23v-.744c-1.031 0-2.063-.716-2.808-1.518-1.26-1.376-2.95-3.582-4.355-6.074 2.32-.545 4.04-2.722 4.04-4.9 0-3.208-2.492-4.698-5.758-4.698zm-.515 1.29c2.406 0 3.839 1.26 3.839 3.552 0 2.263-1.547 3.782-4.097 3.782-.974 0-1.404-.03-2.063-.086v-7.19c.66-.059 1.547-.059 2.32-.059z"/></symbol><symbol id="symbol-academia" viewBox="0 0 24 24" role="img" aria-label="academia"><title>Academia icon</title><path d="M22.033 21.18L13.77.459H7.869l1.049 2.623L1.836 21.18C1.574 22.098.787 22.23 0 22.361v1.18h6.82v-1.18C4.984 22.23 3.934 21.967 4.721 20c.131-.131.656-1.574 1.311-3.41h8.393l1.18 3.016c.131.525.262.918.262 1.311 0 1.049-.918 1.443-2.623 1.443v1.18H24v-1.18c-.918-.13-1.705-.393-1.967-1.18zM6.82 14.361a363.303 363.303 0 0 0 3.279-8.525l3.41 8.525H6.82z"/></symbol><symbol id="symbol-googlescholar" viewBox="0 0 24 24" role="img" aria-label="gscholar"><title>Google Scholar icon</title><path d="M5.242 13.769L0 9.5 12 0l12 9.5-5.242 4.269C17.548 11.249 14.978 9.5 12 9.5c-2.977 0-5.548 1.748-6.758 4.269zM12 10a7 7 0 1 0 0 14 7 7 0 0 0 0-14z"/></symbol><symbol id="symbol-orcid" viewBox="0 0 24 24" role="img" aria-label="orcid"><title>ORCID icon</title><path d="M12 0C5.372 0 0 5.372 0 12s5.372 12 12 12 12-5.372 12-12S18.628 0 12 0zM7.369 4.378c.525 0 .947.431.947.947s-.422.947-.947.947a.95.95 0 0 1-.947-.947c0-.525.422-.947.947-.947zm-.722 3.038h1.444v10.041H6.647V7.416zm3.562 0h3.9c3.712 0 5.344 2.653 5.344 5.025 0 2.578-2.016 5.025-5.325 5.025h-3.919V7.416zm1.444 1.303v7.444h2.297c3.272 0 4.022-2.484 4.022-3.722 0-2.016-1.284-3.722-4.097-3.722h-2.222z"/></symbol><symbol id="symbol-hal" viewBox="0 0 25.07 9.68" aria-label="hal" role="img">


<g transform="translate(-1.908 4.841)" stroke-width="1px" style="font-feature-settings:normal;font-variant-caps:normal;font-variant-ligatures:normal;font-variant-numeric:normal" aria-label="HAL"><path d="m1.908-4.574v9.147c0.4163 0.5391 2.047 0.4554 1.666-0.5915v-3.356h4.667c0.01151 1.354-0.02303 2.708 0.01729 4.062 0.636 0.3381 2.017 0.3313 1.663-0.76v-8.502c-0.417-0.537-1.681-0.3936-1.661 0.05719l-0.01965 3.663h-4.667c-0.01157-1.278 0.02311-2.557-0.01729-3.835-0.3317-0.1817-1.537-0.3685-1.649 0.1148z" style="font-variant-caps:normal;font-variant-east-asian:normal;font-variant-ligatures:normal;font-variant-numeric:normal"/><path d="m11.26 4.839c0.9271 0.1896 1.73-0.09478 1.847-1.118 0.1943-0.6634 0.3925-1.482 1.267-1.203h3.18c0.4986 0.7467 0.3301 2.425 1.524 2.322 0.653 0.1705 1.336-0.1456 0.7816-0.8347-1.136-2.91-2.267-5.825-3.435-8.724-0.9225-0.4382-2.12-0.02572-2.127 1.128-1.1 2.739-2.242 5.476-3.273 8.248-0.006101 0.1219 0.1297 0.1911 0.235 0.18zm5.867-3.6h-3.12c0.5284-1.421 1.025-2.853 1.573-4.267 0.5156 1.422 1.031 2.845 1.547 4.267z" style="font-variant-caps:normal;font-variant-east-asian:normal;font-variant-ligatures:normal;font-variant-numeric:normal"/><path d="m21.18-4.574v9.147c0.6309 0.5888 1.799 0.1082 2.646 0.2663 1.001 0.00379 2.002 0.0095 3.002-0.01686 0.4889-0.7749 0.04415-1.8-0.9749-1.423h-3.007c-0.01154-2.696 0.02307-5.392-0.01729-8.088-0.3321-0.182-1.536-0.3678-1.649 0.1142z" style="font-variant-caps:normal;font-variant-east-asian:normal;font-variant-ligatures:normal;font-variant-numeric:normal"/></g><text transform="translate(-1.908 4.841)" fill="#000000" font-family="ClassicSansRounded" font-size="19.24px" font-weight="500" letter-spacing="0px" word-spacing="0px" style="font-feature-settings:normal;font-variant-caps:normal;font-variant-ligatures:normal;font-variant-numeric:normal;line-height:25px;shape-inside:url(#rect861);white-space:pre" xml:space="preserve"/></symbol><symbol id="symbol-older" viewBox="0 0 24 24" aria-label="Older" role="img">
  <path d="M2 12.5A10 10 0 106 4L4.5 2.5v3h3L6 4m6 1.5v7l3 3"/>
</symbol><symbol id="symbol-newer" viewBox="0 0 24 24" aria-label="Newer" role="img">
  <path d="M22 12a-10-10 0 11-4-8.5L19.5 2v3h-3L18 3.5M12 5v7l3 3"/>
</symbol><symbol id="symbol-pdf" viewBox="0 0 462.8 483" aria-label="pdf" role="img">

	
	
	
















<path d="m322.2 0c-75.63 0.2566-151.3 0.3379-226.9 1.179-32.6 2.969-46.95 28.89-45.1 67.45v77.57c-24.65-5.342-54.18 11.06-49.47 39.28 0.3095 66.38-0.6358 132.8 0.4978 199.2 1.178 28.06 37.17 22.41 51.46 24.77-3.108 24.25 2.966 58.5 27.11 68.78 23.42 9.313 49.47 2.969 74.02 4.837 72.92-0.3008 145.9 0.6016 218.8-0.461 29.01-3.168 42.14-43.41 43.17-69.21 15.64-2.769 30.05 3.746 41.8-15.8 10.1-20.3 6.322-41.02 5.832-64.76-0.3004-53.14 0.6188-106.3-0.4997-159.4-1.141-26.38-19.99-29.38-46.63-30.76-2.93-21.43-1.583-26.25-2.143-51.89-26.68-26.82-65.12-64.03-91.94-90.69zm-14.73 30.53c3.348 22.25-5.554 49.56 10.85 67.66 18.48 15.65 44.7 7.35 66.77 9.897-1.433 17.79 0.436 37.81 0.436 37.81-94.39 0.0202-209.4 0.2174-303.8 0.2809 0.6447-33.42-1.311-67.12 1.005-100.4 8.739-21.47 36.17-11.14 53.99-13.74 56.91-0.4077 113.9-1.427 170.8-1.534zm-273.2 158.6c19.16 0.308 38.51 0.5773 57.51 0.1418 38.75 0.6714 65.49 44.16 52.92 79.75-7.13 28.33-37.7 42.9-65.14 39.9-12.28-3.867-8.929 7.889-9.173 16.05v41.81h-36.12c0.0033-59.2-0.0067-118.5 5e-3 -177.7zm133.7 6e-3c33.18 1.509 69.39-5.92 99 13.18 54.44 33.65 50.71 127.7-7.519 155.5-28.54 13.85-60.94 7.412-91.48 8.91zm165.9 6e-3h99.24v36.04h-63.13v41.87h44.71v35.02h-44.71v64.72h-36.11zm-263.4 36.04v47.96c15.31 0.7454 36.55 0.6415 39.59-18.76 4.9-22.72-19.41-32.09-37.74-29.19 0.6163-1.227-1.728 0.4847-1.853-7e-3zm133.6 0.0137v105.6c20.19 1.304 43.46-1.483 54.92-20.6 18.94-27.54 9.329-74.81-25.96-83.27-9.447-2.543-19.33-1.467-28.96-1.735zm-123 186.7c101.5 0.0433 203.1 0.0882 304.6 0.0879 3.73 24.72-7.566 40.49-34.38 39.52-84.33-0.1794-168.7 0.368-253-0.2842-20.02-3.564-15.94-24.6-17.21-39.32z"/></symbol><symbol id="symbol-bib" viewBox="0 0 462.8 483" aria-label="bib" role="img">

	
	
	<path d="m322.2-0.01953c-75.55 0.3025-151.3 0.3443-226.9 1.199-32.6 2.968-50.24 37.5-45.1 67.45v75.63c-24.75-5.375-54.65 10.81-49.92 39.28 0.3096 66.38-0.6337 132.8 0.4997 199.2 1.151 28.45 38.3 23.98 49.55 31.39-3.168 24.72 4.557 53.51 29.43 64.05 23.42 9.312 49.47 2.969 74.02 4.838 72.92-0.3008 145.9 0.6017 218.8-0.4611 29.44-3.201 48.87-33.79 44.42-62.16-3.094-20.5 33.61-3.037 40.11-24.75 10.83-19.63 3.832-43.29 5.832-64.76-0.2998-53.14 0.6206-106.3-0.498-159.4-1.136-26.01-34.31-25.03-46.12-30.77-1.54-22.9 6.562-49.7-17.55-63.12-25.59-25.78-50.78-51.95-76.58-77.53zm-14.73 30.52c3.348 22.25-5.553 49.56 10.85 67.66 18.48 15.65 44.7 7.35 66.76 9.897-0.9666 17.58 7.524 44.7-19.7 36.05-94.56 0.0201-189.1 0.0561-283.7 0.1198 0.6433-32.79-1.308-65.85 1.005-98.46 8.738-21.47 36.17-11.14 53.99-13.75 56.92-0.4039 113.8-1.435 170.8-1.528zm-96.85 158.8h38.77v178.6h-38.77zm-128.9 0.252c27.75 0.3361 63.42-5.056 80.68 22.57 18.67 19.59 0.5998 45.04-9.52 58.69 29.37 8.863 29.6 69.51 7.565 86.52-23.79 16.74-53.95 9.238-81.12 10.86h-29.08c-9.4e-4 -59.53 4.7e-5 -119.1-2e-3 -178.6 10.43-0.0446 21-6e-3 31.47-0.0274zm238.7 0c26.99-0.0126 61.46-4.073 77.81 22.92 18.54 19.58-5.534 44.3-10.98 58.79 29.27 13.65 37.82 68.09 8.172 86.51-23.77 16.17-53.55 8.796-80.49 10.41h-29.08c-9.2e-4 -59.53 4e-5 -119.1-2e-3 -178.6 11.48-0.0487 23.04-0.018 34.56-0.0352zm6.19 34.93c-0.7735 15.03-0.8738 6.914-0.3327 33.06 13.87-0.5436 38.73-0.9569 39.62-17.15-1.554-16.44-23.76-15.73-39.29-15.92zm-235.5-1.698c-1.39 11.75-0.5594 12.85 0.2522 30.88 16.39-0.7057 41.05 3.19 40.9-13.84 1.029-15.14-24.09-18.04-41.16-17.04zm25.4 70.09c-9.184 0.0564-18.4 0.0144-27.6 0.0273v39.29c18.66 0.6108 54.92 4.711 50.32-24.66-2.47-9.892-13.17-15.08-22.71-14.66zm235.6 6e-3c-9.186 0.0459-18.4 0.0102-27.6 0.0215v39.29c18.65 0.6126 54.92 4.713 50.31-24.65-2.47-9.893-13.17-15.08-22.71-14.66zm-271.1 117.1c101.5 0.0435 203.1 0.0882 304.6 0.0879 0.9944 15.63 2.465 40.65-19.32 41.42-89.35-0.1836-178.7 0.369-268.1-0.2855-20.7-3.804-15.78-26.01-17.24-41.23z"/>
















</symbol><symbol id="symbol-reference" viewBox="0 0 12 14" aria-label="reference" role="img">
<g transform="translate(-6,-5)" opacity=".75">
	
		<path d="m7 6.5c0-0.547 1-0.5 1-0.5h9c0-0.276-0.447-1-1-1h-8c-1.333 0-2 0.447-2 1v12c0 0.553 0.447 1 1 1h10c0.553 0 1-0.447 1-1v-10s0-1-1-1h-4v7l-2.001-2-1.999 2v-7h-1s-1 0-1-0.5z"/>
	
</g>

</symbol></svg>