<svg style="display: none;" aria-hidden="true"><defs/><symbol id="symbol-video" viewBox="0 0 24 24" aria-label="Video" role="img"><rect x="2" y="2" width="20" height="20" rx="2.18" ry="2.18"/><line x1="7" y1="2" x2="7" y2="22"/><line x1="17" y1="2" x2="17" y2="22"/><line x1="2" y1="12" x2="22" y2="12"/><line x1="2" y1="7" x2="7" y2="7"/><line x1="2" y1="17" x2="7" y2="17"/><line x1="17" y1="17" x2="22" y2="17"/><line x1="17" y1="7" x2="22" y2="7"/></symbol><symbol id="symbol-anchor" viewBox="0 0 24 24" aria-label="Anchor" role="img"><circle cx="12" cy="5" r="3"/><line x1="12" y1="22" x2="12" y2="8"/><path d="M5 12H2a10 10 0 0 0 20 0h-3"/></symbol><symbol id="symbol-date" viewBox="0 0 24 24" aria-label="Date" role="img"><rect x="3" y="4" width="18" height="18" rx="2" ry="2"/><line x1="16" y1="2" x2="16" y2="6"/><line x1="8" y1="2" x2="8" y2="6"/><line x1="3" y1="10" x2="21" y2="10"/></symbol><symbol id="symbol-info" viewBox="0 0 24 24" aria-label="Info" role="img"><circle cx="12" cy="12" r="10"/><line x1="12" y1="16" x2="12" y2="12"/><line x1="12" y1="8" x2="12.01" y2="8"/></symbol><symbol id="symbol-location" viewBox="0 0 24 24" aria-label="Location" role="img"><path d="M21 10c0 7-9 13-9 13s-9-6-9-13a9 9 0 0 1 18 0z"/><circle cx="12" cy="10" r="3"/></symbol><symbol id="symbol-comments" viewBox="0 0 24 24" aria-label="Webmention" role="img"><path d="M21 11.5a8.38 8.38 0 0 1-.9 3.8 8.5 8.5 0 0 1-7.6 4.7 8.38 8.38 0 0 1-3.8-.9L3 21l1.9-5.7a8.38 8.38 0 0 1-.9-3.8 8.5 8.5 0 0 1 4.7-7.6 8.38 8.38 0 0 1 3.8-.9h.5a8.48 8.48 0 0 1 8 8v.5z"/></symbol><symbol id="symbol-search" viewBox="0 0 24 24" aria-label="Search" role="img"><circle cx="11" cy="11" r="8"/><line x1="21" y1="21" x2="16.65" y2="16.65"/></symbol><symbol id="symbol-tags" viewBox="0 0 24 24" aria-label="Tag" role="img"><path d="M20.59 13.41l-7.17 7.17a2 2 0 0 1-2.83 0L2 12V2h10l8.59 8.59a2 2 0 0 1 0 2.82z"/><line x1="7" y1="7" x2="7.01" y2="7"/></symbol><symbol id="symbol-twitter" viewBox="0 0 24 24" aria-label="Twitter" role="img"><path d="M23 3a10.9 10.9 0 0 1-3.14 1.53 4.48 4.48 0 0 0-7.86 3v1A10.66 10.66 0 0 1 3 4s-4 9 5 13a11.64 11.64 0 0 1-7 2c9 5 20 0 20-11.5a4.5 4.5 0 0 0-.08-.83A7.72 7.72 0 0 0 23 3z"/></symbol><symbol id="symbol-online" viewBox="0 0 24 24" aria-label="Online" role="img"><path d="M5 12.55a11 11 0 0 1 14.08 0"/><path d="M1.42 9a16 16 0 0 1 21.16 0"/><path d="M8.53 16.11a6 6 0 0 1 6.95 0"/><line x1="12" y1="20" x2="12.01" y2="20"/></symbol><symbol id="symbol-offline" viewBox="0 0 24 24" aria-label="Offline" role="img"><line x1="1" y1="1" x2="23" y2="23"/><path d="M16.72 11.06A10.94 10.94 0 0 1 19 12.55"/><path d="M5 12.55a10.94 10.94 0 0 1 5.17-2.39"/><path d="M10.71 5.05A16 16 0 0 1 22.58 9"/><path d="M1.42 9a15.91 15.91 0 0 1 4.7-2.88"/><path d="M8.53 16.11a6 6 0 0 1 6.95 0"/><line x1="12" y1="20" x2="12.01" y2="20"/></symbol><symbol id="symbol-download" viewBox="0 0 24 24" aria-label="Download" role="img"><path d="M21 15v4a2 2 0 0 1-2 2H5a2 2 0 0 1-2-2v-4"/><polyline points="7 10 12 15 17 10"/><line x1="12" y1="15" x2="12" y2="3"/></symbol><symbol id="symbol-exlink" viewBox="0 0 24 24" aria-label="external-link" role="img"><path d="M18 13v6a2 2 0 0 1-2 2H5a2 2 0 0 1-2-2V8a2 2 0 0 1 2-2h6"/><polyline points="15 3 21 3 21 9"/><line x1="10" y1="14" x2="21" y2="3"/></symbol><symbol id="symbol-link" viewBox="0 0 24 24" aria-label="Link" role="img"><path d="M10 13a5 5 0 0 0 7.54.54l3-3a5 5 0 0 0-7.07-7.07l-1.72 1.71"/><path d="M14 11a5 5 0 0 0-7.54-.54l-3 3a5 5 0 0 0 7.07 7.07l1.71-1.71"/></symbol><symbol id="symbol-chevronDown" viewBox="0 0 24 24" aria-label="chevron-down" role="img"><polyline points="7 13 12 18 17 13"/><polyline points="7 6 12 11 17 6"/></symbol><symbol id="symbol-chevronRight" viewBox="0 0 24 24" aria-label="chevron-right" role="img"><polyline points="13 17 18 12 13 7"/><polyline points="6 17 11 12 6 7"/></symbol><symbol id="symbol-flickr" viewBox="0 0 24 24" role="img" aria-label="Flickr"><title>Flickr icon</title><path d="M0 12c0 3.074 2.494 5.564 5.565 5.564 3.075 0 5.569-2.49 5.569-5.564S8.641 6.436 5.565 6.436C2.495 6.436 0 8.926 0 12zm12.866 0c0 3.074 2.493 5.564 5.567 5.564C21.496 17.564 24 15.074 24 12s-2.492-5.564-5.564-5.564c-3.075 0-5.57 2.49-5.57 5.564z"/></symbol><symbol id="symbol-github" viewBox="0 0 24 24" role="img" aria-label="GitHub"><title>GitHub icon</title><path d="M12 .297c-6.63 0-12 5.373-12 12 0 5.303 3.438 9.8 8.205 11.385.6.113.82-.258.82-.577 0-.285-.01-1.04-.015-2.04-3.338.724-4.042-1.61-4.042-1.61C4.422 18.07 3.633 17.7 3.633 17.7c-1.087-.744.084-.729.084-.729 1.205.084 1.838 1.236 1.838 1.236 1.07 1.835 2.809 1.305 3.495.998.108-.776.417-1.305.76-1.605-2.665-.3-5.466-1.332-5.466-5.93 0-1.31.465-2.38 1.235-3.22-.135-.303-.54-1.523.105-3.176 0 0 1.005-.322 3.3 1.23.96-.267 1.98-.399 3-.405 1.02.006 2.04.138 3 .405 2.28-1.552 3.285-1.23 3.285-1.23.645 1.653.24 2.873.12 3.176.765.84 1.23 1.91 1.23 3.22 0 4.61-2.805 5.625-5.475 5.92.42.36.81 1.096.81 2.22 0 1.606-.015 2.896-.015 3.286 0 .315.21.69.825.57C20.565 22.092 24 17.592 24 12.297c0-6.627-5.373-12-12-12"/></symbol><symbol id="symbol-mastodon" viewBox="0 0 24 24" role="img" aria-label="Mastodon"><title>Mastodon icon</title><path d="M23.193 7.88c0-5.207-3.411-6.733-3.411-6.733C18.062.357 15.108.025 12.041 0h-.076c-3.069.025-6.02.357-7.74 1.147 0 0-3.412 1.526-3.412 6.732 0 1.193-.023 2.619.015 4.13.124 5.092.934 10.11 5.641 11.355 2.17.574 4.034.695 5.536.612 2.722-.15 4.25-.972 4.25-.972l-.09-1.975s-1.945.613-4.13.54c-2.165-.075-4.449-.234-4.799-2.892a5.5 5.5 0 0 1-.048-.745s2.125.52 4.818.643c1.646.075 3.19-.097 4.758-.283 3.007-.359 5.625-2.212 5.954-3.905.517-2.665.475-6.508.475-6.508zm-4.024 6.709h-2.497v-6.12c0-1.29-.543-1.944-1.628-1.944-1.2 0-1.802.776-1.802 2.313v3.349h-2.484v-3.35c0-1.537-.602-2.313-1.802-2.313-1.085 0-1.628.655-1.628 1.945v6.119H4.831V8.285c0-1.29.328-2.314.987-3.07.68-.759 1.57-1.147 2.674-1.147 1.278 0 2.246.491 2.886 1.474L12 6.585l.622-1.043c.64-.983 1.608-1.474 2.886-1.474 1.104 0 1.994.388 2.674 1.146.658.757.986 1.781.986 3.07v6.305z"/></symbol><symbol id="symbol-researchgate" viewBox="0 0 24 24" role="img" aria-label="researchgate"><title>ResearchGate icon</title><path d="M19.586 0c-.818 0-1.508.19-2.073.565-.563.377-.97.936-1.213 1.68a3.193 3.193 0 0 0-.112.437 8.365 8.365 0 0 0-.078.53 9 9 0 0 0-.05.727c-.01.282-.013.621-.013 1.016a31.121 31.123 0 0 0 .014 1.017 9 9 0 0 0 .05.727 7.946 7.946 0 0 0 .077.53h-.005a3.334 3.334 0 0 0 .113.438c.245.743.65 1.303 1.214 1.68.565.376 1.256.564 2.075.564.8 0 1.536-.213 2.105-.603.57-.39.94-.916 1.175-1.65.076-.235.135-.558.177-.93a10.9 10.9 0 0 0 .043-1.207v-.82c0-.095-.047-.142-.14-.142h-3.064c-.094 0-.14.047-.14.141v.956c0 .094.046.14.14.14h1.666c.056 0 .084.03.084.086 0 .36 0 .62-.036.865-.038.244-.1.447-.147.606-.108.385-.348.664-.638.876-.29.212-.738.35-1.227.35-.545 0-.901-.15-1.21-.353-.306-.203-.517-.454-.67-.915a3.136 3.136 0 0 1-.147-.762 17.366 17.367 0 0 1-.034-.656c-.01-.26-.014-.572-.014-.939a26.401 26.403 0 0 1 .014-.938 15.821 15.822 0 0 1 .035-.656 3.19 3.19 0 0 1 .148-.76 1.89 1.89 0 0 1 .742-1.01c.344-.244.593-.352 1.137-.352.508 0 .815.096 1.144.303.33.207.528.492.764.925.047.094.111.118.198.07l1.044-.43c.075-.048.09-.115.042-.199a3.549 3.549 0 0 0-.466-.742 3 3 0 0 0-.679-.607 3.313 3.313 0 0 0-.903-.41A4.068 4.068 0 0 0 19.586 0zM8.217 5.836c-1.69 0-3.036.086-4.297.086-1.146 0-2.291 0-3.007-.029v.831l1.088.2c.744.144 1.174.488 1.174 2.264v11.288c0 1.777-.43 2.12-1.174 2.263l-1.088.2v.832c.773-.029 2.12-.086 3.465-.086 1.29 0 2.951.057 3.667.086v-.831l-1.49-.2c-.773-.115-1.174-.487-1.174-2.264v-4.784c.688.057 1.29.057 2.206.057 1.748 3.123 3.41 5.472 4.355 6.56.86 1.032 2.177 1.691 3.839 1.691.487 0 1.003-.086 1.318-.23v-.744c-1.031 0-2.063-.716-2.808-1.518-1.26-1.376-2.95-3.582-4.355-6.074 2.32-.545 4.04-2.722 4.04-4.9 0-3.208-2.492-4.698-5.758-4.698zm-.515 1.29c2.406 0 3.839 1.26 3.839 3.552 0 2.263-1.547 3.782-4.097 3.782-.974 0-1.404-.03-2.063-.086v-7.19c.66-.059 1.547-.059 2.32-.059z"/></symbol><symbol id="symbol-academia" viewBox="0 0 24 24" role="img" aria-label="academia"><title>Academia icon</title><path d="M22.033 21.18L13.77.459H7.869l1.049 2.623L1.836 21.18C1.574 22.098.787 22.23 0 22.361v1.18h6.82v-1.18C4.984 22.23 3.934 21.967 4.721 20c.131-.131.656-1.574 1.311-3.41h8.393l1.18 3.016c.131.525.262.918.262 1.311 0 1.049-.918 1.443-2.623 1.443v1.18H24v-1.18c-.918-.13-1.705-.393-1.967-1.18zM6.82 14.361a363.303 363.303 0 0 0 3.279-8.525l3.41 8.525H6.82z"/></symbol><symbol id="symbol-googlescholar" viewBox="0 0 24 24" role="img" aria-label="gscholar"><title>Google Scholar icon</title><path d="M5.242 13.769L0 9.5 12 0l12 9.5-5.242 4.269C17.548 11.249 14.978 9.5 12 9.5c-2.977 0-5.548 1.748-6.758 4.269zM12 10a7 7 0 1 0 0 14 7 7 0 0 0 0-14z"/></symbol><symbol id="symbol-orcid" viewBox="0 0 24 24" role="img" aria-label="orcid"><title>ORCID icon</title><path d="M12 0C5.372 0 0 5.372 0 12s5.372 12 12 12 12-5.372 12-12S18.628 0 12 0zM7.369 4.378c.525 0 .947.431.947.947s-.422.947-.947.947a.95.95 0 0 1-.947-.947c0-.525.422-.947.947-.947zm-.722 3.038h1.444v10.041H6.647V7.416zm3.562 0h3.9c3.712 0 5.344 2.653 5.344 5.025 0 2.578-2.016 5.025-5.325 5.025h-3.919V7.416zm1.444 1.303v7.444h2.297c3.272 0 4.022-2.484 4.022-3.722 0-2.016-1.284-3.722-4.097-3.722h-2.222z"/></symbol><symbol id="symbol-older" viewBox="0 0 24 24" aria-label="Older" role="img">
  <path d="M2 12.5A10 10 0 106 4L4.5 2.5v3h3L6 4m6 1.5v7l3 3"/>
</symbol><symbol id="symbol-newer" viewBox="0 0 24 24" aria-label="Newer" role="img">
  <path d="M22 12a-10-10 0 11-4-8.5L19.5 2v3h-3L18 3.5M12 5v7l3 3"/>
</symbol><symbol id="symbol-pdf" viewBox="0 0 482.1 482.1" aria-label="pdf" role="img">

	
	
	<path d="m121.8 0c-28.29 0-51.32 23.04-51.32 51.31v189.7h-5.012c-11.42 0-20.68 9.252-20.68 20.68v125.4c0 11.43 9.259 20.68 20.68 20.68h5.012v23c0 28.3 23.03 51.31 51.32 51.31h264.2c28.27 0 51.3-23.01 51.3-51.31v-309.4l-121.9-121.4h-193.7zm181.9 31.27v67.23c0 19.64 15.93 35.59 35.59 35.59l65.86-.1895.7422 296.9c0 10.97-8.904 19.89-19.86 19.89l-.0039-.00195h-264.2c-10.95 0-19.88-8.922-19.88-19.89v-22.99h246.3c11.42 0 20.68-9.251 20.68-20.68v-125.4c0-11.43-9.26-20.68-20.68-20.68h-246.3v-189.7c0-10.94 8.922-19.86 19.88-19.86l181.9-.1914zm-220.4 236.8h33.85c7.678 0 14.41 1.926 20.37 5.457v-.00195c5.798 3.531 10.18 8.347 13.32 14.12s4.701 12.04 4.701 18.46c0 7.062-1.566 13.48-4.543 19.26-3.134 5.778-7.523 10.27-13.32 13.48-5.797 3.37-12.53 4.977-20.37 4.977h-10.97v36.59h-23.04v-112.3zm85.25.00391h32.28c11.12 0 20.84 2.568 29.3 7.383v-.00195c8.461 4.975 14.89 11.72 19.43 20.22 4.387 8.506 6.738 17.98 6.738 28.25 0 10.59-2.351 20.06-6.738 28.73-4.544 8.667-10.97 15.41-19.43 20.38-8.462 4.976-18.18 7.383-29.3 7.383h-32.28v-112.3zm105.8.00195h63.3v22.79h-40.27v26.48h28.52v22.15h-28.52v40.93h-23.03v-112.3zm-168 22.79v30.33h9.715c4.701 0 8.462-1.283 11.44-4.172 2.82-2.729 4.387-6.42 4.387-10.91 0-4.174-1.568-7.865-4.545-10.75s-6.737-4.494-11.28-4.494h-9.715zm85.24.0039v66.77h9.559c6.268 0 11.91-1.445 16.61-4.494 4.701-2.889 8.462-7.061 10.97-12.2s3.918-10.75 3.918-17.01c0-6.099-1.255-11.72-3.762-16.85-2.508-4.976-6.268-8.988-10.97-11.88-4.857-2.889-10.5-4.332-16.77-4.332h-9.559z"/>















</symbol><symbol id="symbol-bib" viewBox="0 0 482.1 482.1" aria-label="bib" role="img">

	
	
	<path d="m106.6 1.093c-28.29 0-51.32 23.04-51.32 51.31v189.8h-5.012c-11.42 0-20.68 9.252-20.68 20.68v125.4c0 11.43 9.259 20.68 20.68 20.68h5.012v23c0 28.3 23.03 51.31 51.32 51.31h264.2c28.27 0 51.3-23.01 51.3-51.31v-309.4l-121.9-121.4zm181.9 31.27v67.23c0 19.64 15.93 35.59 35.59 35.59l65.86-.1895.7422 296.9c0 10.97-8.904 19.89-19.86 19.89l-.004-.002h-264.2c-10.95 0-19.87-8.922-19.87-19.89v-22.99h246.3c11.42 0 20.68-9.251 20.68-20.68v-125.4c0-11.43-9.26-20.68-20.68-20.68h-246.3v-189.8c0-10.94 8.922-19.86 19.87-19.86zm-105.6 238.6h23.52v112h-23.52zm-97.28.1602h38.4c7.36 0 13.6 1.28 18.72 4 5.12 2.72 8.801 6.401 11.36 10.88s3.84 9.599 3.84 15.04c0 8.8-3.36 16-10.08 21.6 5.44 2.72 9.599 6.561 12.8 11.36 3.04 4.8 4.641 10.4 4.641 16.8 0 5.6-1.44 10.88-4.16 15.84-2.72 4.8-6.72 8.8-12 11.84s-11.52 4.641-18.88 4.641h-44.64zm142.9 0h38.4c7.36 0 13.6 1.28 18.72 4s8.799 6.401 11.36 10.88 3.84 9.599 3.84 15.04c0 8.8-3.36 16-10.08 21.6 5.44 2.72 9.601 6.561 12.8 11.36 3.04 4.8 4.641 10.4 4.641 16.8 0 5.6-1.44 10.88-4.16 15.84-2.72 4.8-6.72 8.8-12 11.84-5.28 3.04-11.52 4.641-18.88 4.641h-44.64zm-119.4 22.56-.1602 22.4h11.84c4 0 7.2-1.121 9.6-3.201 2.4-2.24 3.521-4.8 3.521-8 0-3.36-1.121-6.08-3.361-8.16-2.24-1.92-5.439-3.039-9.439-3.039zm142.9 0-.1602 22.4h11.84c4 0 7.2-1.121 9.6-3.201 2.4-2.24 3.52-4.8 3.52-8 0-3.36-1.119-6.08-3.359-8.16-2.24-1.92-5.439-3.039-9.439-3.039zm-143 42.24v24.64h16.96c4.32 0 7.68-1.28 10.24-3.68s3.68-5.279 3.68-8.799-1.28-6.401-3.84-8.641c-2.56-2.4-5.92-3.52-10.08-3.52zm142.9 0v24.64h16.96c4.32 0 7.68-1.28 10.24-3.68s3.68-5.279 3.68-8.799c1e-5-3.52-1.28-6.401-3.84-8.641-2.56-2.4-5.92-3.52-10.08-3.52z"/>
















</symbol><symbol id="symbol-reference" viewBox="0 0 12 14" aria-label="reference" role="img">
<g transform="translate(-6,-5)" opacity=".75">
	
		<path d="m7 6.5c0-0.547 1-0.5 1-0.5h9c0-0.276-0.447-1-1-1h-8c-1.333 0-2 0.447-2 1v12c0 0.553 0.447 1 1 1h10c0.553 0 1-0.447 1-1v-10s0-1-1-1h-4v7l-2.001-2-1.999 2v-7h-1s-1 0-1-0.5z"/>
	
</g>

</symbol></svg>