<svg style="display: none;" aria-hidden="true"><defs/><symbol id="symbol-date" viewBox="0 0 24 24" width="1.1em" height="1.1em" aria-labelledby="date-icon" role="img"><title id="date-icon">Date</title><rect x="3" y="4" width="18" height="18" rx="2" ry="2"/><line x1="16" y1="2" x2="16" y2="6"/><line x1="8" y1="2" x2="8" y2="6"/><line x1="3" y1="10" x2="21" y2="10"/></symbol><symbol id="symbol-info" viewBox="0 0 24 24" width="1.1em" height="1.1em" aria-labelledby="info-icon" role="img"><title id="info-icon">Info</title><circle cx="12" cy="12" r="10"/><line x1="12" y1="16" x2="12" y2="12"/><line x1="12" y1="8" x2="12.01" y2="8"/></symbol><symbol id="symbol-link" viewBox="0 0 24 24" aria-labelledby="link-icon" role="img"><path d="M10 13a5 5 0 0 0 7.54.54l3-3a5 5 0 0 0-7.07-7.07l-1.72 1.71"/><path d="M14 11a5 5 0 0 0-7.54-.54l-3 3a5 5 0 0 0 7.07 7.07l1.71-1.71"/></symbol><symbol id="symbol-download" viewBox="0 0 24 24" aria-labelledby="download-icon" role="img">
  <metadata id="metadata14">
    <rdf:RDF>
      <cc:Work rdf:about="">
        <dc:format>image/svg+xml</dc:format>
        <dc:type rdf:resource="http://purl.org/dc/dcmitype/StillImage"/>
        <dc:title/>
      </cc:Work>
    </rdf:RDF>
  </metadata>
  
  <path d="M21 15v4a2 2 0 0 1-2 2H5a2 2 0 0 1-2-2v-4" id="path2"/>
  <polyline points="7 10 12 15 17 10" id="polyline4"/>
  <line x1="12" x2="12" y1="15" y2="3" id="line6"/>
</symbol><symbol id="symbol-exlink" viewBox="0 0 24 24" aria-labelledby="exlink-icon" role="img"><path d="M18 13v6a2 2 0 0 1-2 2H5a2 2 0 0 1-2-2V8a2 2 0 0 1 2-2h6"/><polyline points="15 3 21 3 21 9"/><line x1="10" x2="21" y1="14" y2="3"/></symbol><symbol id="symbol-location" viewBox="0 0 24 24" width="1.1em" height="1.1em" aria-labelledby="location-icon" role="img"><title id="location-icon">Location</title><path d="M21 10c0 7-9 13-9 13s-9-6-9-13a9 9 0 0 1 18 0z"/><circle cx="12" cy="10" r="3"/></symbol><symbol id="symbol-comments" viewBox="0 0 24 24" width="1.1em" height="1.1em" aria-labelledby="comments-icon" role="img"><title id="comments-icon">Webmention</title><path d="M21 11.5a8.38 8.38 0 0 1-.9 3.8 8.5 8.5 0 0 1-7.6 4.7 8.38 8.38 0 0 1-3.8-.9L3 21l1.9-5.7a8.38 8.38 0 0 1-.9-3.8 8.5 8.5 0 0 1 4.7-7.6 8.38 8.38 0 0 1 3.8-.9h.5a8.48 8.48 0 0 1 8 8v.5z"/></symbol><symbol id="symbol-feeds" viewBox="0 0 24 24" width="1.1em" height="1.1em" aria-labelledby="feeds-icon" role="img"><title id="feeds-icon">Feeds</title><path d="M4 11a9 9 0 0 1 9 9"/><path d="M4 4a16 16 0 0 1 16 16"/><circle cx="5" cy="19" r="1"/></symbol><symbol id="symbol-search" viewBox="0 0 24 24" width="1.1em" height="1.1em" aria-labelledby="search-icon" role="img"><title id="search-icon">Search</title><circle cx="11" cy="11" r="8"/><line x1="21" y1="21" x2="16.65" y2="16.65"/></symbol><symbol id="symbol-tags" viewBox="0 0 24 24" width="1.1em" height="1.1em" aria-labelledby="tags-icon" role="img"><title id="tags-icon">Tag</title><path d="M20.59 13.41l-7.17 7.17a2 2 0 0 1-2.83 0L2 12V2h10l8.59 8.59a2 2 0 0 1 0 2.82z"/><line x1="7" y1="7" x2="7.01" y2="7"/></symbol><symbol id="symbol-twitter" viewBox="0 0 24 24" width="1.1em" height="1.1em" aria-labelledby="twitter-icon" role="img"><title id="twitter-icon">Twitter</title><path d="M23 3a10.9 10.9 0 0 1-3.14 1.53 4.48 4.48 0 0 0-7.86 3v1A10.66 10.66 0 0 1 3 4s-4 9 5 13a11.64 11.64 0 0 1-7 2c9 5 20 0 20-11.5a4.5 4.5 0 0 0-.08-.83A7.72 7.72 0 0 0 23 3z"/></symbol><symbol id="symbol-online" viewBox="0 0 24 24" width="1.1em" height="1.1em" aria-labelledby="online-icon" role="img"><title id="online-icon">Online</title><path d="M5 12.55a11 11 0 0 1 14.08 0"/><path d="M1.42 9a16 16 0 0 1 21.16 0"/><path d="M8.53 16.11a6 6 0 0 1 6.95 0"/><line x1="12" y1="20" x2="12.01" y2="20"/></symbol><symbol id="symbol-offline" viewBox="0 0 24 24" width="1.1em" height="1.1em" aria-labelledby="offline-icon" role="img"><title id="offline-icon">Offline</title><line x1="1" y1="1" x2="23" y2="23"/><path d="M16.72 11.06A10.94 10.94 0 0 1 19 12.55"/><path d="M5 12.55a10.94 10.94 0 0 1 5.17-2.39"/><path d="M10.71 5.05A16 16 0 0 1 22.58 9"/><path d="M1.42 9a15.91 15.91 0 0 1 4.7-2.88"/><path d="M8.53 16.11a6 6 0 0 1 6.95 0"/><line x1="12" y1="20" x2="12.01" y2="20"/></symbol><symbol id="symbol-pdf" viewBox="0 0 482.14 482.14" aria-labelledby="pdf-icon" role="img">

	
	
	<path d="m315.46 0h-193.65c-28.29 0-51.315 23.041-51.315 51.315v189.75h-5.012c-11.418 0-20.678 9.251-20.678 20.679v125.4c0 11.427 9.259 20.677 20.678 20.677h5.012v22.995c0 28.305 23.025 51.315 51.315 51.315h264.22c28.272 0 51.3-23.011 51.3-51.315v-309.38zm70.576 450.71h-264.22c-10.954 0-19.874-8.92-19.874-19.889v-22.995h246.31c11.42 0 20.679-9.25 20.679-20.677v-125.4c0-11.428-9.259-20.679-20.679-20.679h-246.31v-189.75c0-10.938 8.921-19.858 19.874-19.858l181.89-0.19v67.233c0 19.638 15.934 35.587 35.587 35.587l65.862-0.189 0.741 296.92c0 10.97-8.904 19.89-19.857 19.89z"/><g fill="#fff">
<path d="m137.5 273.55c-5.9544-3.531-12.692-5.457-20.37-5.457h-33.846v112.35h23.034v-36.594h10.969c7.8347 0 14.573-1.605 20.37-4.9755 5.7977-3.21 10.185-7.704 13.319-13.482 2.9772-5.778 4.5441-12.198 4.5441-19.26 0-6.42-1.5669-12.68-4.7008-18.458-3.1339-5.778-7.5213-10.593-13.319-14.124zm-10.028 43.496c-2.9772 2.889-6.7378 4.173-11.439 4.173h-9.715v-30.335h9.715c4.5441 0 8.3048 1.605 11.282 4.494 2.9772 2.889 4.5441 6.5805 4.5441 10.754 0 4.494-1.5669 8.1855-4.3874 10.914z" style="font-variant-caps:normal;font-variant-east-asian:normal;font-variant-ligatures:normal;font-variant-numeric:normal"/><path d="m230.11 275.48c-8.4615-4.815-18.177-7.383-29.302-7.383h-32.279v112.35h32.279c11.125 0 20.84-2.4075 29.302-7.383s14.886-11.717 19.43-20.384c4.3874-8.667 6.7378-18.137 6.7378-28.73 0-10.272-2.3504-19.742-6.7378-28.248-4.5441-8.5065-10.969-15.248-19.43-20.223zm-12.379 77.682c-4.7008 3.0495-10.342 4.494-16.61 4.494h-9.5583v-66.768h9.5583c6.2678 0 11.909 1.4445 16.766 4.3335 4.7008 2.889 8.4615 6.9015 10.969 11.877 2.5071 5.136 3.7607 10.754 3.7607 16.853 0 6.2595-1.4103 11.877-3.9174 17.013-2.5071 5.136-6.2678 9.309-10.969 12.198z" style="font-variant-caps:normal;font-variant-east-asian:normal;font-variant-ligatures:normal;font-variant-numeric:normal"/><path d="m297.33 290.89h40.27v-22.791h-63.304v112.35h23.034v-40.928h28.518v-22.149h-28.518z" style="font-variant-caps:normal;font-variant-east-asian:normal;font-variant-ligatures:normal;font-variant-numeric:normal"/></g>















</symbol><symbol id="symbol-bib" viewBox="0 0 482.14 482.14" aria-labelledby="bib-icon" role="img">

	
	
	<path d="m315.46 0h-193.65c-28.29 0-51.315 23.041-51.315 51.315v189.75h-5.012c-11.418 0-20.678 9.251-20.678 20.679v125.4c0 11.427 9.259 20.677 20.678 20.677h5.012v22.995c0 28.305 23.025 51.315 51.315 51.315h264.22c28.272 0 51.3-23.011 51.3-51.315v-309.38zm70.576 450.71h-264.22c-10.954 0-19.874-8.92-19.874-19.889v-22.995h246.31c11.42 0 20.679-9.25 20.679-20.677v-125.4c0-11.428-9.259-20.679-20.679-20.679h-246.31v-189.75c0-10.938 8.921-19.858 19.874-19.858l181.89-0.19v67.233c0 19.638 15.934 35.587 35.587 35.587l65.862-0.189 0.741 296.92c0 10.97-8.904 19.89-19.857 19.89z"/>
<g transform="translate(20.934 .021744)" fill="#fff" stroke-width="1px" style="font-variant-caps:normal;font-variant-east-asian:normal;font-variant-ligatures:normal;font-variant-numeric:normal" aria-label="BIB"><path d="m155.91 331.18c-3.2-4.8-7.36-8.64-12.8-11.36 6.72-5.6 10.08-12.8 10.08-21.6 0-5.44-1.28-10.56-3.84-15.04s-6.24-8.16-11.36-10.88-11.36-4-18.72-4h-38.4v112h44.64c7.36 0 13.6-1.6 18.88-4.64s9.28-7.04 12-11.84c2.72-4.96 4.16-10.24 4.16-15.84 0-6.4-1.6-12-4.64-16.8zm-51.52-40.32h12c4 0 7.2 1.12 9.44 3.04 2.24 2.08 3.36 4.8 3.36 8.16 0 3.2-1.12 5.76-3.52 8-2.4 2.08-5.6 3.2-9.6 3.2h-11.84zm27.04 63.2c-2.56 2.4-5.92 3.68-10.24 3.68h-16.96v-24.64h16.96c4.16 0 7.52 1.12 10.08 3.52 2.56 2.24 3.84 5.12 3.84 8.64s-1.12 6.4-3.68 8.8z"/><path d="m178.15 268.14v112h23.52v-112z"/><path d="m298.79 331.18c-3.2-4.8-7.36-8.64-12.8-11.36 6.72-5.6 10.08-12.8 10.08-21.6 0-5.44-1.28-10.56-3.84-15.04s-6.24-8.16-11.36-10.88-11.36-4-18.72-4h-38.4v112h44.64c7.36 0 13.6-1.6 18.88-4.64s9.28-7.04 12-11.84c2.72-4.96 4.16-10.24 4.16-15.84 0-6.4-1.6-12-4.64-16.8zm-51.52-40.32h12c4 0 7.2 1.12 9.44 3.04 2.24 2.08 3.36 4.8 3.36 8.16 0 3.2-1.12 5.76-3.52 8-2.4 2.08-5.6 3.2-9.6 3.2h-11.84zm27.04 63.2c-2.56 2.4-5.92 3.68-10.24 3.68h-16.96v-24.64h16.96c4.16 0 7.52 1.12 10.08 3.52 2.56 2.24 3.84 5.12 3.84 8.64s-1.12 6.4-3.68 8.8z"/></g>















</symbol></svg>