<svg enable-background="new 0 0 482.14 482.14" version="1.1" viewBox="0 0 462.8 483" xml:space="preserve" xmlns="http://www.w3.org/2000/svg">

	
	
	<path d="m322.2-0.01953c-75.55 0.3025-151.3 0.3443-226.9 1.199-32.6 2.968-50.24 37.5-45.1 67.45v75.63c-24.75-5.375-54.65 10.81-49.92 39.28 0.3096 66.38-0.6337 132.8 0.4997 199.2 1.151 28.45 38.3 23.98 49.55 31.39-3.168 24.72 4.557 53.51 29.43 64.05 23.42 9.312 49.47 2.969 74.02 4.838 72.92-0.3008 145.9 0.6017 218.8-0.4611 29.44-3.201 48.87-33.79 44.42-62.16-3.094-20.5 33.61-3.037 40.11-24.75 10.83-19.63 3.832-43.29 5.832-64.76-0.2998-53.14 0.6206-106.3-0.498-159.4-1.136-26.01-34.31-25.03-46.12-30.77-1.54-22.9 6.562-49.7-17.55-63.12-25.59-25.78-50.78-51.95-76.58-77.53zm-14.73 30.52c3.348 22.25-5.553 49.56 10.85 67.66 18.48 15.65 44.7 7.35 66.76 9.897-0.9666 17.58 7.524 44.7-19.7 36.05-94.56 0.0201-189.1 0.0561-283.7 0.1198 0.6433-32.79-1.308-65.85 1.005-98.46 8.738-21.47 36.17-11.14 53.99-13.75 56.92-0.4039 113.8-1.435 170.8-1.528zm-96.85 158.8h38.77v178.6h-38.77zm-128.9 0.252c27.75 0.3361 63.42-5.056 80.68 22.57 18.67 19.59 0.5998 45.04-9.52 58.69 29.37 8.863 29.6 69.51 7.565 86.52-23.79 16.74-53.95 9.238-81.12 10.86h-29.08c-9.4e-4 -59.53 4.7e-5 -119.1-2e-3 -178.6 10.43-0.0446 21-6e-3 31.47-0.0274zm238.7 0c26.99-0.0126 61.46-4.073 77.81 22.92 18.54 19.58-5.534 44.3-10.98 58.79 29.27 13.65 37.82 68.09 8.172 86.51-23.77 16.17-53.55 8.796-80.49 10.41h-29.08c-9.2e-4 -59.53 4e-5 -119.1-2e-3 -178.6 11.48-0.0487 23.04-0.018 34.56-0.0352zm6.19 34.93c-0.7735 15.03-0.8738 6.914-0.3327 33.06 13.87-0.5436 38.73-0.9569 39.62-17.15-1.554-16.44-23.76-15.73-39.29-15.92zm-235.5-1.698c-1.39 11.75-0.5594 12.85 0.2522 30.88 16.39-0.7057 41.05 3.19 40.9-13.84 1.029-15.14-24.09-18.04-41.16-17.04zm25.4 70.09c-9.184 0.0564-18.4 0.0144-27.6 0.0273v39.29c18.66 0.6108 54.92 4.711 50.32-24.66-2.47-9.892-13.17-15.08-22.71-14.66zm235.6 6e-3c-9.186 0.0459-18.4 0.0102-27.6 0.0215v39.29c18.65 0.6126 54.92 4.713 50.31-24.65-2.47-9.893-13.17-15.08-22.71-14.66zm-271.1 117.1c101.5 0.0435 203.1 0.0882 304.6 0.0879 0.9944 15.63 2.465 40.65-19.32 41.42-89.35-0.1836-178.7 0.369-268.1-0.2855-20.7-3.804-15.78-26.01-17.24-41.23z"/>
















</svg>
