<svg enable-background="new 0 0 482.14 482.14" version="1.1" viewBox="0 0 482.1 482.1" xml:space="preserve" xmlns="http://www.w3.org/2000/svg">

	
	
	<path d="m106.6 1.093c-28.29 0-51.32 23.04-51.32 51.31v189.8h-5.012c-11.42 0-20.68 9.252-20.68 20.68v125.4c0 11.43 9.259 20.68 20.68 20.68h5.012v23c0 28.3 23.03 51.31 51.32 51.31h264.2c28.27 0 51.3-23.01 51.3-51.31v-309.4l-121.9-121.4zm181.9 31.27v67.23c0 19.64 15.93 35.59 35.59 35.59l65.86-.1895.7422 296.9c0 10.97-8.904 19.89-19.86 19.89l-.004-.002h-264.2c-10.95 0-19.87-8.922-19.87-19.89v-22.99h246.3c11.42 0 20.68-9.251 20.68-20.68v-125.4c0-11.43-9.26-20.68-20.68-20.68h-246.3v-189.8c0-10.94 8.922-19.86 19.87-19.86zm-105.6 238.6h23.52v112h-23.52zm-97.28.1602h38.4c7.36 0 13.6 1.28 18.72 4 5.12 2.72 8.801 6.401 11.36 10.88s3.84 9.599 3.84 15.04c0 8.8-3.36 16-10.08 21.6 5.44 2.72 9.599 6.561 12.8 11.36 3.04 4.8 4.641 10.4 4.641 16.8 0 5.6-1.44 10.88-4.16 15.84-2.72 4.8-6.72 8.8-12 11.84s-11.52 4.641-18.88 4.641h-44.64zm142.9 0h38.4c7.36 0 13.6 1.28 18.72 4s8.799 6.401 11.36 10.88 3.84 9.599 3.84 15.04c0 8.8-3.36 16-10.08 21.6 5.44 2.72 9.601 6.561 12.8 11.36 3.04 4.8 4.641 10.4 4.641 16.8 0 5.6-1.44 10.88-4.16 15.84-2.72 4.8-6.72 8.8-12 11.84-5.28 3.04-11.52 4.641-18.88 4.641h-44.64zm-119.4 22.56-.1602 22.4h11.84c4 0 7.2-1.121 9.6-3.201 2.4-2.24 3.521-4.8 3.521-8 0-3.36-1.121-6.08-3.361-8.16-2.24-1.92-5.439-3.039-9.439-3.039zm142.9 0-.1602 22.4h11.84c4 0 7.2-1.121 9.6-3.201 2.4-2.24 3.52-4.8 3.52-8 0-3.36-1.119-6.08-3.359-8.16-2.24-1.92-5.439-3.039-9.439-3.039zm-143 42.24v24.64h16.96c4.32 0 7.68-1.28 10.24-3.68s3.68-5.279 3.68-8.799-1.28-6.401-3.84-8.641c-2.56-2.4-5.92-3.52-10.08-3.52zm142.9 0v24.64h16.96c4.32 0 7.68-1.28 10.24-3.68s3.68-5.279 3.68-8.799c1e-5-3.52-1.28-6.401-3.84-8.641-2.56-2.4-5.92-3.52-10.08-3.52z"/>
















</svg>
