<svg class="feather feather-download" stroke-linecap="round" stroke-linejoin="round" stroke-width="2" version="1.1" viewBox="0 0 24 24" xmlns="http://www.w3.org/2000/svg"><path d="m3 14a1 1 0 00-1 1v4c0 1.645 1.355 3 3 3h14c1.645 0 3-1.355 3-3v-4a1 1 0 00-1-1 1 1 0 00-1 1v4c0 .5641-.4359 1-1 1h-14c-.5641 0-1-.4359-1-1v-4a1 1 0 00-1-1z" color="#000000" color-rendering="auto" dominant-baseline="auto" image-rendering="auto" shape-rendering="auto" solid-color="#000000" stop-color="#000000" style="font-feature-settings:normal;font-variant-alternates:normal;font-variant-caps:normal;font-variant-east-asian:normal;font-variant-ligatures:normal;font-variant-numeric:normal;font-variant-position:normal;font-variation-settings:normal;inline-size:0;isolation:auto;mix-blend-mode:normal;shape-margin:0;shape-padding:0;text-decoration-color:#000000;text-decoration-line:none;text-decoration-style:solid;text-indent:0;text-orientation:mixed;text-transform:none;white-space:normal"/><path d="m12 2c-.6375-.02089-1.094.6205-1 1.221v9.365c-1.143-1.13-2.262-2.288-3.421-3.401-.6043-.4752-1.594.01874-1.578.787-.0195.6431.5989.9819.9704 1.414 1.462 1.459 2.917 2.925 4.385 4.379.441.3955 1.158.2613 1.495-.2019 1.637-1.64 3.281-3.273 4.913-4.917.5234-.5624.1153-1.589-.6516-1.639-.6689-.08642-1.036.5547-1.471.9384-.8804.8804-1.761 1.761-2.641 2.641-.002352-3.223.004706-6.447-.003533-9.67-.03319-.5056-.4898-.9254-.9965-.916z" color="#000000" color-rendering="auto" dominant-baseline="auto" image-rendering="auto" shape-rendering="auto" solid-color="#000000" stop-color="#000000" style="font-feature-settings:normal;font-variant-alternates:normal;font-variant-caps:normal;font-variant-east-asian:normal;font-variant-ligatures:normal;font-variant-numeric:normal;font-variant-position:normal;font-variation-settings:normal;inline-size:0;isolation:auto;mix-blend-mode:normal;shape-margin:0;shape-padding:0;text-decoration-color:#000000;text-decoration-line:none;text-decoration-style:solid;text-indent:0;text-orientation:mixed;text-transform:none;white-space:normal"/></svg>
