<svg class="feather feather-external-link" fill="none" stroke="currentColor" stroke-linecap="round" stroke-linejoin="round" stroke-width="2" version="1.1" viewBox="0 0 24 24" xmlns="http://www.w3.org/2000/svg"><path d="m15 2c-.8824-.04868-1.357 1.193-.6668 1.745.539.4354 1.276.1905 1.911.2548h2.341c-3.13 3.144-6.289 6.262-9.401 9.421-.5504.6915.1873 1.797 1.037 1.554.6302-.2191.9889-.8508 1.485-1.268 2.764-2.764 5.529-5.529 8.293-8.293.02038 1.278-.04123 2.562.03165 3.836.1731.8669 1.494 1.017 1.856.2101.2222-.6314.06439-1.327.1119-1.987-.008001-1.539.01588-3.081-.01172-4.619-.07093-.6304-.7492-.9564-1.328-.8535h-5.661zm-10 3c-1.713-.04457-3.175 1.59-3 3.283.01026 3.674-.02062 7.349.01562 11.02.1297 1.62 1.724 2.87 3.324 2.695 3.655-.01026 7.311.02062 10.97-.01562 1.62-.1297 2.87-1.724 2.695-3.324-.0094-1.942.01886-3.887-.01411-5.828-.09971-.8782-1.403-1.139-1.832-.3653-.2907.6006-.09766 1.301-.1537 1.947-.01295 1.597.02608 3.196-.01983 4.791-.1344.8095-1.014.8322-1.659.7951h-10.32c-.8943.0264-1.077-.9247-1-1.622v-10.38c-.0264-.8943.9247-1.077 1.622-1 1.848-.00944 3.698.01886 5.545-.01411.8782-.09971 1.139-1.403.3653-1.832-.6006-.2907-1.301-.09766-1.947-.1537h-4.586z" color="#000000" color-rendering="auto" dominant-baseline="auto" fill="#000" image-rendering="auto" shape-rendering="auto" solid-color="#000000" stop-color="#000000" stroke="none" style="font-feature-settings:normal;font-variant-alternates:normal;font-variant-caps:normal;font-variant-east-asian:normal;font-variant-ligatures:normal;font-variant-numeric:normal;font-variant-position:normal;font-variation-settings:normal;inline-size:0;isolation:auto;mix-blend-mode:normal;shape-margin:0;shape-padding:0;text-decoration-color:#000000;text-decoration-line:none;text-decoration-style:solid;text-indent:0;text-orientation:mixed;text-transform:none;white-space:normal"/></svg>
