<svg version="1.1" viewBox="0 0 25.07 9.68" xml:space="preserve" xmlns="http://www.w3.org/2000/svg">


<g transform="translate(-1.908 4.841)" stroke-width="1px" style="font-feature-settings:normal;font-variant-caps:normal;font-variant-ligatures:normal;font-variant-numeric:normal" aria-label="HAL"><path d="m1.908-4.574v9.147c0.4163 0.5391 2.047 0.4554 1.666-0.5915v-3.356h4.667c0.01151 1.354-0.02303 2.708 0.01729 4.062 0.636 0.3381 2.017 0.3313 1.663-0.76v-8.502c-0.417-0.537-1.681-0.3936-1.661 0.05719l-0.01965 3.663h-4.667c-0.01157-1.278 0.02311-2.557-0.01729-3.835-0.3317-0.1817-1.537-0.3685-1.649 0.1148z" style="font-variant-caps:normal;font-variant-east-asian:normal;font-variant-ligatures:normal;font-variant-numeric:normal"/><path d="m11.26 4.839c0.9271 0.1896 1.73-0.09478 1.847-1.118 0.1943-0.6634 0.3925-1.482 1.267-1.203h3.18c0.4986 0.7467 0.3301 2.425 1.524 2.322 0.653 0.1705 1.336-0.1456 0.7816-0.8347-1.136-2.91-2.267-5.825-3.435-8.724-0.9225-0.4382-2.12-0.02572-2.127 1.128-1.1 2.739-2.242 5.476-3.273 8.248-0.006101 0.1219 0.1297 0.1911 0.235 0.18zm5.867-3.6h-3.12c0.5284-1.421 1.025-2.853 1.573-4.267 0.5156 1.422 1.031 2.845 1.547 4.267z" style="font-variant-caps:normal;font-variant-east-asian:normal;font-variant-ligatures:normal;font-variant-numeric:normal"/><path d="m21.18-4.574v9.147c0.6309 0.5888 1.799 0.1082 2.646 0.2663 1.001 0.00379 2.002 0.0095 3.002-0.01686 0.4889-0.7749 0.04415-1.8-0.9749-1.423h-3.007c-0.01154-2.696 0.02307-5.392-0.01729-8.088-0.3321-0.182-1.536-0.3678-1.649 0.1142z" style="font-variant-caps:normal;font-variant-east-asian:normal;font-variant-ligatures:normal;font-variant-numeric:normal"/></g><text transform="translate(-1.908 4.841)" fill="#000000" font-family="ClassicSansRounded" font-size="19.24px" font-weight="500" letter-spacing="0px" word-spacing="0px" style="font-feature-settings:normal;font-variant-caps:normal;font-variant-ligatures:normal;font-variant-numeric:normal;line-height:25px;shape-inside:url(#rect861);white-space:pre" xml:space="preserve"/></svg>
