<svg version="1.1" viewBox="0 0 25.07 9.68" xml:space="preserve" xmlns="http://www.w3.org/2000/svg">


<g transform="translate(-1.908 4.841)" stroke-width="1px" style="font-feature-settings:normal;font-variant-caps:normal;font-variant-ligatures:normal;font-variant-numeric:normal" aria-label="HAL"><path d="m1.908-4.574v9.147c0 0.1733 0.09333 0.2667 0.2667 0.2667h1.133c0.1733 0 0.2667-0.09333 0.2667-0.2667v-3.947h4.667v3.947c0 0.1733 0.09333 0.2667 0.2667 0.2667h1.147c0.1733 0 0.2667-0.09333 0.2667-0.2667v-9.147c0-0.1733-0.09333-0.2667-0.2667-0.2667h-1.147c-0.1733 0-0.2667 0.09333-0.2667 0.2667v3.72h-4.667v-3.72c0-0.1733-0.09333-0.2667-0.2667-0.2667h-1.133c-0.1733 0-0.2667 0.09333-0.2667 0.2667z" style="font-variant-caps:normal;font-variant-east-asian:normal;font-variant-ligatures:normal;font-variant-numeric:normal"/><path d="m11.26 4.839h1.187c0.1467 0 0.2533-0.08 0.3067-0.2133l0.8133-2.107h3.987c0.28 0.72 0.5067 1.4 0.7733 2.107 0.05333 0.1467 0.16 0.2133 0.3067 0.2133h1.227c0.2 0 0.28-0.12 0.2133-0.3067l-3.6-9.16c-0.05333-0.1333-0.16-0.2133-0.3067-0.2133h-1.16c-0.1467 0-0.2533 0.06667-0.3067 0.2133-1.227 3.067-2.44 6.08-3.653 9.16-0.06667 0.1867 0.01333 0.3067 0.2133 0.3067zm5.867-3.6h-3.12l1.56-4.267h0.01333z" style="font-variant-caps:normal;font-variant-east-asian:normal;font-variant-ligatures:normal;font-variant-numeric:normal"/><path d="m21.18-4.574v9.147c0 0.1733 0.09333 0.2667 0.2667 0.2667h5.267c0.1733 0 0.2667-0.09333 0.2667-0.2667v-0.9067c0-0.1733-0.09333-0.2667-0.2667-0.2667h-3.867v-7.973c0-0.1733-0.09333-0.2667-0.2667-0.2667h-1.133c-0.1733 0-0.2667 0.09333-0.2667 0.2667z" style="font-variant-caps:normal;font-variant-east-asian:normal;font-variant-ligatures:normal;font-variant-numeric:normal"/></g><text transform="translate(-1.908 4.841)" fill="#000000" font-family="ClassicSansRounded" font-size="19.24px" font-weight="500" letter-spacing="0px" word-spacing="0px" style="font-feature-settings:normal;font-variant-caps:normal;font-variant-ligatures:normal;font-variant-numeric:normal;line-height:25px;shape-inside:url(#rect861);white-space:pre" xml:space="preserve"/></svg>
