<svg class="feather feather-link" fill="none" stroke="currentColor" stroke-linecap="round" stroke-linejoin="round" stroke-width="2" version="1.1" viewBox="0 0 24 24" xmlns="http://www.w3.org/2000/svg"><path d="m16.7.9883c-1.342.05574-2.735.615-3.922 1.762a1 1 0 00-.009766.01172l-1.721 1.709a1 1 0 00-.003906 1.414 1 1 0 001.414.003906l1.709-1.699.00586-.003906c.9975-.9607 2.001-1.259 2.967-1.195.9679.06348 1.917.5306 2.635 1.248.7175.7175 1.185 1.667 1.248 2.635.06335.966-.2346 1.969-1.195 2.967-.00189.001962-.002012.003897-.003907.005859l-2.988 2.986a1 1 0 000 .001953c-1.735 1.736-4.561 1.532-6.031-.4336a1 1 0 00-1.4-.2012 1 1 0 00-.2012 1.4c2.178 2.912 6.478 3.218 9.049.6465l3-2.998a1 1 0 00.01172-.01367c1.311-1.357 1.855-2.981 1.756-4.492s-.8002-2.888-1.83-3.918c-1.03-1.03-2.407-1.731-3.918-1.83-.1888-.01239-.3787-.01382-.5703-.005859zm-6.9 7.02c-1.464.04623-2.92.6209-4.045 1.746l-3 2.998a1 1 0 00-.01172.01367c-1.311 1.357-1.855 2.981-1.756 4.492.09909 1.511.8002 2.888 1.83 3.918 1.03 1.03 2.407 1.731 3.918 1.83 1.511.09908 3.135-.4453 4.492-1.756a1 1 0 00.01172-.01367l1.711-1.709a1 1 0 000-1.414 1 1 0 00-1.414 0l-1.703 1.701c-.9975.9607-2.001 1.259-2.967 1.195-.9679-.06348-1.917-.5306-2.635-1.248s-1.185-1.667-1.248-2.635c-.06335-.966.2346-1.969 1.195-2.967.00189-.001962.002011-.003897.003906-.005859l2.988-2.986a1 1 0 000-.001953c1.735-1.736 4.561-1.532 6.031.4336a1 1 0 001.4.2012 1 1 0 00.2012-1.4c-1.089-1.456-2.709-2.261-4.377-2.381-.2085-.01494-.4178-.01832-.627-.01172z" color="#000000" color-rendering="auto" dominant-baseline="auto" fill="#000" image-rendering="auto" shape-rendering="auto" solid-color="#000000" stop-color="#000000" stroke="none" style="font-feature-settings:normal;font-variant-alternates:normal;font-variant-caps:normal;font-variant-east-asian:normal;font-variant-ligatures:normal;font-variant-numeric:normal;font-variant-position:normal;font-variation-settings:normal;inline-size:0;isolation:auto;mix-blend-mode:normal;shape-margin:0;shape-padding:0;text-decoration-color:#000000;text-decoration-line:none;text-decoration-style:solid;text-indent:0;text-orientation:mixed;text-transform:none;white-space:normal"/></svg>
