<svg enable-background="new 0 0 482.14 482.14" version="1.1" viewBox="0 0 482.1 482.1" xml:space="preserve" xmlns="http://www.w3.org/2000/svg">

	
	
	<path d="m121.8 0c-28.29 0-51.32 23.04-51.32 51.31v189.7h-5.012c-11.42 0-20.68 9.252-20.68 20.68v125.4c0 11.43 9.259 20.68 20.68 20.68h5.012v23c0 28.3 23.03 51.31 51.32 51.31h264.2c28.27 0 51.3-23.01 51.3-51.31v-309.4l-121.9-121.4h-193.7zm181.9 31.27v67.23c0 19.64 15.93 35.59 35.59 35.59l65.86-.1895.7422 296.9c0 10.97-8.904 19.89-19.86 19.89l-.0039-.00195h-264.2c-10.95 0-19.88-8.922-19.88-19.89v-22.99h246.3c11.42 0 20.68-9.251 20.68-20.68v-125.4c0-11.43-9.26-20.68-20.68-20.68h-246.3v-189.7c0-10.94 8.922-19.86 19.88-19.86l181.9-.1914zm-220.4 236.8h33.85c7.678 0 14.41 1.926 20.37 5.457v-.00195c5.798 3.531 10.18 8.347 13.32 14.12s4.701 12.04 4.701 18.46c0 7.062-1.566 13.48-4.543 19.26-3.134 5.778-7.523 10.27-13.32 13.48-5.797 3.37-12.53 4.977-20.37 4.977h-10.97v36.59h-23.04v-112.3zm85.25.00391h32.28c11.12 0 20.84 2.568 29.3 7.383v-.00195c8.461 4.975 14.89 11.72 19.43 20.22 4.387 8.506 6.738 17.98 6.738 28.25 0 10.59-2.351 20.06-6.738 28.73-4.544 8.667-10.97 15.41-19.43 20.38-8.462 4.976-18.18 7.383-29.3 7.383h-32.28v-112.3zm105.8.00195h63.3v22.79h-40.27v26.48h28.52v22.15h-28.52v40.93h-23.03v-112.3zm-168 22.79v30.33h9.715c4.701 0 8.462-1.283 11.44-4.172 2.82-2.729 4.387-6.42 4.387-10.91 0-4.174-1.568-7.865-4.545-10.75s-6.737-4.494-11.28-4.494h-9.715zm85.24.0039v66.77h9.559c6.268 0 11.91-1.445 16.61-4.494 4.701-2.889 8.462-7.061 10.97-12.2s3.918-10.75 3.918-17.01c0-6.099-1.255-11.72-3.762-16.85-2.508-4.976-6.268-8.988-10.97-11.88-4.857-2.889-10.5-4.332-16.77-4.332h-9.559z"/>















</svg>
