<svg enable-background="new 0 0 482.14 482.14" version="1.1" viewBox="0 0 462.8 483" xml:space="preserve" xmlns="http://www.w3.org/2000/svg">

	
	
	
















<path d="m322.2 0c-75.63 0.2566-151.3 0.3379-226.9 1.179-32.6 2.969-46.95 28.89-45.1 67.45v77.57c-24.65-5.342-54.18 11.06-49.47 39.28 0.3095 66.38-0.6358 132.8 0.4978 199.2 1.178 28.06 37.17 22.41 51.46 24.77-3.108 24.25 2.966 58.5 27.11 68.78 23.42 9.313 49.47 2.969 74.02 4.837 72.92-0.3008 145.9 0.6016 218.8-0.461 29.01-3.168 42.14-43.41 43.17-69.21 15.64-2.769 30.05 3.746 41.8-15.8 10.1-20.3 6.322-41.02 5.832-64.76-0.3004-53.14 0.6188-106.3-0.4997-159.4-1.141-26.38-19.99-29.38-46.63-30.76-2.93-21.43-1.583-26.25-2.143-51.89-26.68-26.82-65.12-64.03-91.94-90.69zm-14.73 30.53c3.348 22.25-5.554 49.56 10.85 67.66 18.48 15.65 44.7 7.35 66.77 9.897-1.433 17.79 0.436 37.81 0.436 37.81-94.39 0.0202-209.4 0.2174-303.8 0.2809 0.6447-33.42-1.311-67.12 1.005-100.4 8.739-21.47 36.17-11.14 53.99-13.74 56.91-0.4077 113.9-1.427 170.8-1.534zm-273.2 158.6c19.16 0.308 38.51 0.5773 57.51 0.1418 38.75 0.6714 65.49 44.16 52.92 79.75-7.13 28.33-37.7 42.9-65.14 39.9-12.28-3.867-8.929 7.889-9.173 16.05v41.81h-36.12c0.0033-59.2-0.0067-118.5 5e-3 -177.7zm133.7 6e-3c33.18 1.509 69.39-5.92 99 13.18 54.44 33.65 50.71 127.7-7.519 155.5-28.54 13.85-60.94 7.412-91.48 8.91zm165.9 6e-3h99.24v36.04h-63.13v41.87h44.71v35.02h-44.71v64.72h-36.11zm-263.4 36.04v47.96c15.31 0.7454 36.55 0.6415 39.59-18.76 4.9-22.72-19.41-32.09-37.74-29.19 0.6163-1.227-1.728 0.4847-1.853-7e-3zm133.6 0.0137v105.6c20.19 1.304 43.46-1.483 54.92-20.6 18.94-27.54 9.329-74.81-25.96-83.27-9.447-2.543-19.33-1.467-28.96-1.735zm-123 186.7c101.5 0.0433 203.1 0.0882 304.6 0.0879 3.73 24.72-7.566 40.49-34.38 39.52-84.33-0.1794-168.7 0.368-253-0.2842-20.02-3.564-15.94-24.6-17.21-39.32z"/></svg>
