<?xml version="1.0" encoding="UTF-8" standalone="no"?>
<svg
   xmlns:dc="http://purl.org/dc/elements/1.1/"
   xmlns:cc="http://creativecommons.org/ns#"
   xmlns:rdf="http://www.w3.org/1999/02/22-rdf-syntax-ns#"
   xmlns:svg="http://www.w3.org/2000/svg"
   xmlns="http://www.w3.org/2000/svg"
   xmlns:sodipodi="http://sodipodi.sourceforge.net/DTD/sodipodi-0.dtd"
   xmlns:inkscape="http://www.inkscape.org/namespaces/inkscape"
   role="img"
   viewBox="0 0 24 24"
   version="1.1"
   id="svg6"
   sodipodi:docname="xfce2.svg"
   inkscape:version="1.0.2 (e86c870879, 2021-01-15)">
  <metadata
     id="metadata12">
    <rdf:RDF>
      <cc:Work
         rdf:about="">
        <dc:format>image/svg+xml</dc:format>
        <dc:type
           rdf:resource="http://purl.org/dc/dcmitype/StillImage" />
      </cc:Work>
    </rdf:RDF>
  </metadata>
  <defs
     id="defs10" />
  <sodipodi:namedview
     pagecolor="#ffffff"
     bordercolor="#666666"
     borderopacity="1"
     objecttolerance="10"
     gridtolerance="10"
     guidetolerance="10"
     inkscape:pageopacity="0"
     inkscape:pageshadow="2"
     inkscape:window-width="1787"
     inkscape:window-height="1102"
     id="namedview8"
     showgrid="false"
     inkscape:zoom="99.096174"
     inkscape:cx="8.4287659"
     inkscape:cy="15.725817"
     inkscape:window-x="652"
     inkscape:window-y="80"
     inkscape:window-maximized="0"
     inkscape:current-layer="svg6" />
  <title
     id="title2">XFCE icon</title>
  <path
     d="m 0.14690509,7.3771027 c -0.0114814,-0.00135 -0.0231075,-7.746e-4 -0.0344,0.0017 v -3e-4 l -0.0154,0.0024 -0.0138,0.0076 c -0.02142257,0.012051 -0.03844651,0.030616 -0.0486,0.053 -0.0088188,0.021181 -0.01108303,0.044519 -0.0065,0.067 0.0073,0.0362 0.0229,0.0552 0.0392,0.0754 0.0326,0.0403 0.0783,0.0798 0.1424,0.1286 0.1282,0.0976 0.81281111,0.2443303 1.08271101,0.3977303 0.5396,0.3065 1.7140203,-0.1439191 2.7819203,0.2957809 C 5.1277364,8.8396139 5.5273,8.7994 6.4951,9.5055 c 0.4838,0.353 0.8938,0.6902 1.165,0.9572 0.1356,0.1336 0.2365,0.2504 0.2924,0.337 0.028,0.0433 0.0443,0.0791 0.0498,0.1003 0.0027,0.0106 0.0029,0.0158 0.003,0.0176 -0.6994,0.9875 -1.1131,2.187 -0.8297,4.1959 l -0.042686,-0.166869 0.1351205,0.308525 c 0.0055,0.0378 0.058359,0.199699 0.016639,0.387878 -0.04245,0.301967 -0.00995,0.381268 -0.039465,0.636597 -0.018097,0.304032 0.019173,0.291345 0.2368615,0.647447 0.05773,0.231861 0,0 0.051981,0.19661 l 0.092914,0.228535 0.08632,0.1717 c 0.0122,0.074 -0.073431,0.225285 -0.010331,0.253385 -0.065588,0.165704 -0.2074575,0.281556 0.2494723,0.229507 0.1379,-0.0185 0.5586377,-0.442807 0.3605698,-0.542299 -0.087495,-0.275043 -0.4174269,-0.492588 -0.334023,-0.673963 0.00316,-0.205124 -0.085109,0.01848 -3.763e-4,-0.34367 -2e-4,0.021 0.095175,-0.249563 0.2284834,0.174583 0.516608,0.476881 0.3617444,0.341056 0.516608,0.476881 0.136571,0.19042 0.1576687,0.178046 0.4161907,0.344784 0.2158482,0.218115 0.1485133,0.280347 0.1224133,0.444447 -0.013,0.082 -0.0188,0.155 -0.008,0.2219 0.0107,0.0669 0.0489,0.1414 0.1224,0.1683 l 0.0027,0.0011 0.0027,9e-4 c 0.0509,0.015 0.0835,0.0012 0.1164,-0.0117 0.036125,-0.0149 0.07086,-0.03297 0.1038,-0.054 0.0748,-0.046 0.1643,-0.1118 0.2657,-0.1916 0.1383663,-0.286702 0.085022,-0.526514 -0.103407,-0.794084 C 9.5263756,16.890136 9.7841072,17.098367 9.5263756,16.890136 9.3957769,16.752524 9.3175,16.6785 9.3744,16.6353 c 0.020094,-0.01564 0.040918,-0.03033 0.0624,-0.044 1.4976,0.4462 3.2026,0.5014 4.5489,0.4407 0.564009,-0.02528 1.126767,-0.07332 1.6869,-0.144 0.2111,-0.027 0.3812,-0.0525 0.5013,-0.0722 0.06,-0.0099 0.1076,-0.0183 0.1419,-0.0249 0.01103,-0.0021 0.02203,-0.0044 0.033,-0.0068 l 2e-4,3e-4 c 0.0194,0.0085 -0.0029,0.20242 0.087,0.0392 l 0.152714,0.28221 c -0.169928,0.273342 -0.59207,0.438961 -0.783615,0.671595 -0.237167,0.398104 -0.368368,0.543318 -0.06837,0.646618 0.15,0.0517 0.268382,-0.06203 0.374682,-0.03953 0.0531,0.0112 0.422119,-0.109957 0.464819,-0.108657 0.0426,0.0012 0,0 0.315175,-0.218517 l 0.241933,-0.16634 0.23694,-0.09654 c 0.1755,-0.19 -0.04498,-0.09651 0.284999,-0.266713 0.396541,-0.43339 0.129641,-0.13692 0.552801,-0.564651 0.174906,-0.176795 0,0 0.189608,-0.424655 -0.0542,-0.0709 0.201312,-0.486019 0.187912,-0.530119 -0.0118,-0.039 -0.0065,-0.053 0.0057,-0.0711 0.01679,-0.0018 0.03371,-0.0018 0.0505,0 0.0583,0.0053 0.1458,0.0236 0.2484,0.0508 0.2052,0.0544 -0.215322,0.34769 -0.3341,0.604168 -0.187796,0.405507 -0.261944,0.622088 -0.04894,0.672088 0.1065,0.025 0.365843,-0.183547 0.444043,-0.182647 0.0392,4e-4 0.07529,-0.09161 0.111886,-0.104505 0.0365,-0.0128 0.09472,-0.05842 0.112524,-0.10352 l 0.164568,-0.08214 v 0 c 0,0 0.297968,-0.346195 0.59031,-0.713284 0.115516,-0.145052 0.0028,0.01335 0.156244,-0.414977 -0.1393,-0.1621 -0.178033,-0.277292 -0.300333,-0.408492 -0.1217,-0.1307 -0.141046,-0.425808 -0.171046,-0.475508 -0.062,-0.1099 0.03865,-0.365678 0.05605,-0.507478 0.0174,-0.142 0.0849,-0.2801 0.2475,-0.3935 0.032,-0.0223 0.1324,-0.0749 0.2681,-0.14 0.1358,-0.0651 0.311,-0.1464 0.5108,-0.24 0.3995,-0.1873 0.8972,-0.425 1.3802,-0.6902 0.4829,-0.2653 0.9507,-0.5574 1.2937,-0.8589 0.3427,-0.3013 0.5755,-0.6187 0.5291,-0.948 C 23.8286,10.4657 23.4758,10.0578 23.0044,9.7517 22.533,9.4456 21.939,9.234 21.354,9.0801 20.769,8.9263 20.1925,8.8309 19.7587,8.7634 19.5417,8.7297 19.3603,8.7031 19.2336,8.6799 19.18513,8.67161 19.13708,8.661066 19.0896,8.6483 h -3e-4 c -4.04e-4,-0.029265 -5.04e-4,-0.058533 -3e-4,-0.0878 6e-4,-0.0827 0.0018,-0.1971 0,-0.3308 C 19.0855,7.9623 19.0704,7.6177 19.0144,7.2881 18.9584,6.9584 18.8645,6.6423 18.6825,6.4284 18.5008,6.2148 18.2127,6.1243 17.8618,6.2628 17.6299,6.3495 17.4993,6.551 17.4443,6.7817 c -0.0551,0.231 -0.0452,0.4976 -0.0095,0.7594 0.0357,0.2618 0.0984,0.5187 0.155,0.7248 0.0568,0.206 0.1093,0.3695 0.1187,0.4113 v 3e-4 c 0.006,0.026 0.0051,0.0173 -0.0049,0.0254 -0.01,0.008 -0.0423,0.021 -0.0832,0.0246 -0.04225,0.00331 -0.08477,9e-7 -0.126,-0.0098 C 17.4571,8.7085 17.4318,8.6885 17.4369,8.6947 17.4291,8.6852 17.3994,8.6341 17.3674,8.5661 17.3355,8.4981 17.2973,8.4104 17.2537,8.3113 17.1667,8.1131 17.0587,7.87 16.934,7.6413 16.8093,7.4127 16.6693,7.1982 16.5057,7.0543 16.4239,6.9824 16.3347,6.9274 16.2362,6.9033 16.133021,6.878388 16.024333,6.8912291 15.9298,6.9395 l -0.0016,8e-4 -0.0016,0.0014 c -0.2555,0.1408 -0.3929,0.3651 -0.449,0.607 -0.056,0.2417 -0.0374,0.502 0.0033,0.7437 0.0407,0.2416 0.1046,0.4659 0.1454,0.6286 0.0204,0.0813 0.0347,0.1484 0.0381,0.1867 0.0011,0.0127 5e-4,0.0142 3e-4,0.0181 -0.1823,0.114 -0.275,0.2937 -0.346,0.4789 -0.0744,0.194 -0.1365,0.397 -0.2634,0.5732 l -6e-4,5e-4 -3e-4,6e-4 c -0.0384,0.055 -0.1194,0.1045 -0.2464,0.1375 -0.127,0.033 -0.2952,0.049 -0.4908,0.0495 -0.3912,8e-4 -0.891,-0.059 -1.412,-0.1419 C 11.8632,10.0585 10.7435,9.802 10.1721,9.7674 9.7422,9.742 9.3346,9.9033 9.0262,10.0549 8.872,10.1308 8.7419,10.2049 8.6498,10.2528 8.618802,10.26944 8.586846,10.28423 8.5541,10.2971 7.5573,9.3037 6.6158187,8.4281744 4.3789187,7.8560744 c -0.6133,-0.1664 -2.1879098,-0.019317 -2.8597186,-0.047591 -0.3138,-0.1425 -0.79549501,-0.1751807 -0.99989501,-0.2707807 -0.0822418,-0.038924 -0.16494776,-0.07686 -0.2481,-0.1138 -0.0255493,-0.011297 -0.0514273,-0.021834 -0.0776,-0.0316 -0.009998,-0.00383 -0.0201767,-0.00716 -0.0305,-0.01 -0.0052,-0.0014 -0.0092,-0.0037 -0.0162,-0.0049 z M 22.8204,7.5624 c -0.0063,6.022e-4 -0.0124,0.00215 -0.0182,0.0046 -0.0199,0.0086 -0.0256,0.0186 -0.0313,0.0268 -0.01096,0.016697 -0.0197,0.034748 -0.026,0.0537 -0.0158,0.0423 -0.033,0.1017 -0.0516,0.1754 -0.0371,0.1474 -0.0786,0.3496 -0.1137,0.5565 -0.0352,0.2068 -0.0639,0.4179 -0.0744,0.5845 -0.0052,0.0834 -0.0062,0.1552 -2e-4,0.2125 0.0022,0.026027 0.0076,0.051686 0.016,0.0764 0.0081,0.024734 0.025,0.045628 0.0475,0.0587 0.01279,0.00875 0.028,0.013298 0.0435,0.013 C 22.62778,9.32308 22.64276,9.31695 22.655,9.3069 22.6756,9.2906 22.686,9.2721 22.6968,9.2504 22.7186,9.207 22.7375,9.1481 22.7566,9.0747 22.7948,8.9279 22.8312,8.7259 22.8601,8.518 22.889,8.3102 22.9102,8.097 22.9168,7.9283 22.9201,7.844 22.9199,7.7713 22.9146,7.7138 22.9127,7.688228 22.9085,7.662885 22.9019,7.6381 22.8966,7.615135 22.88397,7.594524 22.8659,7.5794 22.8596,7.5734 22.8529,7.5667 22.8417,7.5638 22.8347,7.56207 22.82746,7.5616 22.8203,7.5624 Z m 1.111,0.2114 c -0.01464,-5.415e-4 -0.02922,0.00201 -0.0428,0.0075 -0.0233,0.0095 -0.0431,0.024 -0.0645,0.0422 -0.0429,0.0365 -0.0908,0.0899 -0.1444,0.157 -0.107,0.1342 -0.2336,0.3218 -0.35,0.5178 -0.1162,0.196 -0.222,0.3999 -0.2864,0.5686 -0.0322,0.0844 -0.0545,0.1597 -0.0616,0.2246 -0.0071,0.0647 -6e-4,0.1294 0.051,0.1678 0.0286,0.0211 0.0674,0.015 0.0898,0.0035 C 23.145,9.4513 23.1628,9.4353 23.1822,9.4153 23.221,9.3753 23.2634,9.3178 23.3106,9.2466 23.405,9.1042 23.5162,8.9078 23.6216,8.7064 23.71953,8.5203387 23.811381,8.3311385 23.897,8.1391 23.92649,8.073454 23.95338,8.0066689 23.9776,7.9389 23.9855,7.916919 23.99185,7.894435 23.9967,7.8716 23.999,7.86186 24.0001,7.851895 24,7.8419 23.9998,7.8307 24.0007,7.8137 23.9809,7.794 L 23.9789,7.7921 23.9774,7.7905 C 23.96434,7.779994 23.94816,7.77412 23.9314,7.7738 Z M 19.5691,9.629 c 0.1818,0 0.3346,0.1698 0.3346,0.3876 0,0.2177 -0.1528,0.3872 -0.3346,0.3872 -0.1817,0 -0.3345,-0.1695 -0.3345,-0.3872 0,-0.2178 0.1528,-0.3876 0.3345,-0.3876 z m -0.8823,0.3395 c 0.0791,0.2909 0.1785,0.5128 0.35,0.6475 0.1629,0.128 0.3965,0.1727 0.6894,0.1813 -0.1803,0.129 -0.3447,0.1912 -0.4803,0.1751 -0.168,-0.0198 -0.3091,-0.1247 -0.414,-0.2686 -0.1049,-0.1439 -0.1708,-0.3257 -0.1867,-0.483 -0.011,-0.1075 0.0095,-0.1888 0.0416,-0.2523 z m 2.0906,1.7806 c 0.0534,-0.0043 0.083,0.0061 0.0911,0.0138 l 0.0084,0.0081 0.011,0.0041 c 0.0068,0.0024 0.0032,4e-4 0.0055,0.002 -0.0108,0.016 -0.0496,0.0531 -0.1124,0.0929 -0.1312,0.083 -0.3492,0.1845 -0.5792,0.2778 -0.23,0.0933 -0.473,0.1791 -0.6578,0.2349 -0.059,0.0178 -0.098,0.0261 -0.1424,0.037 0.029,-0.0212 0.0513,-0.0392 0.0894,-0.0646 0.168134,-0.110148 0.341395,-0.212262 0.5192,-0.306 0.1948,-0.103 0.3971,-0.1968 0.5602,-0.2513 0.0816,-0.0272 0.1536,-0.0443 0.207,-0.0486 z m 0.2406,0.4714 c 0.0083,-7.85e-4 0.01674,-4e-5 0.0248,0.0022 0.0265,0.0305 0.0393,0.0587 0.0349,0.0964 -0.005,0.0422 -0.0289,0.0957 -0.0708,0.1538 -0.084,0.1161 -0.2354,0.2477 -0.3984,0.3667 -0.163,0.1191 -0.3378,0.2268 -0.4702,0.3027 -0.0483,0.0277 -0.0822,0.0454 -0.1165,0.0635 0.0153,-0.0296 0.029,-0.0579 0.0562,-0.0983 0.0782,-0.1163 0.1994,-0.266 0.3319,-0.409 0.1325,-0.1428 0.2771,-0.2796 0.4005,-0.3702 0.0617,-0.0453 0.1184,-0.0788 0.1624,-0.0962 0.01437,-0.0061 0.02957,-0.01 0.0451,-0.0116 z"
     id="path4"
     sodipodi:nodetypes="ccccccccsccccccccccccccccccccccccccccccccscccccccccccccccccccsccccsssccccssccccccccccscccccccccccsccccccccccccccccccccccccscccccccccccccccccccccccccccscscccccccccccccccsscccccccccsssssccccsccccccccsccccccccccccccccsccc" />
</svg>
