<svg enable-background="new 0 0 482.14 482.14" version="1.1" viewBox="0 0 482.14 482.14" xml:space="preserve" xmlns="http://www.w3.org/2000/svg">

	
	
	<path d="m315.46 0h-193.65c-28.29 0-51.315 23.041-51.315 51.315v189.75h-5.012c-11.418 0-20.678 9.251-20.678 20.679v125.4c0 11.427 9.259 20.677 20.678 20.677h5.012v22.995c0 28.305 23.025 51.315 51.315 51.315h264.22c28.272 0 51.3-23.011 51.3-51.315v-309.38zm70.576 450.71h-264.22c-10.954 0-19.874-8.92-19.874-19.889v-22.995h246.31c11.42 0 20.679-9.25 20.679-20.677v-125.4c0-11.428-9.259-20.679-20.679-20.679h-246.31v-189.75c0-10.938 8.921-19.858 19.874-19.858l181.89-0.19v67.233c0 19.638 15.934 35.587 35.587 35.587l65.862-0.189 0.741 296.92c0 10.97-8.904 19.89-19.857 19.89z"/>
<g transform="translate(20.934 .021744)" fill="#fff" stroke-width="1px" style="font-variant-caps:normal;font-variant-east-asian:normal;font-variant-ligatures:normal;font-variant-numeric:normal" aria-label="BIB"><path d="m155.91 331.18c-3.2-4.8-7.36-8.64-12.8-11.36 6.72-5.6 10.08-12.8 10.08-21.6 0-5.44-1.28-10.56-3.84-15.04s-6.24-8.16-11.36-10.88-11.36-4-18.72-4h-38.4v112h44.64c7.36 0 13.6-1.6 18.88-4.64s9.28-7.04 12-11.84c2.72-4.96 4.16-10.24 4.16-15.84 0-6.4-1.6-12-4.64-16.8zm-51.52-40.32h12c4 0 7.2 1.12 9.44 3.04 2.24 2.08 3.36 4.8 3.36 8.16 0 3.2-1.12 5.76-3.52 8-2.4 2.08-5.6 3.2-9.6 3.2h-11.84zm27.04 63.2c-2.56 2.4-5.92 3.68-10.24 3.68h-16.96v-24.64h16.96c4.16 0 7.52 1.12 10.08 3.52 2.56 2.24 3.84 5.12 3.84 8.64s-1.12 6.4-3.68 8.8z"/><path d="m178.15 268.14v112h23.52v-112z"/><path d="m298.79 331.18c-3.2-4.8-7.36-8.64-12.8-11.36 6.72-5.6 10.08-12.8 10.08-21.6 0-5.44-1.28-10.56-3.84-15.04s-6.24-8.16-11.36-10.88-11.36-4-18.72-4h-38.4v112h44.64c7.36 0 13.6-1.6 18.88-4.64s9.28-7.04 12-11.84c2.72-4.96 4.16-10.24 4.16-15.84 0-6.4-1.6-12-4.64-16.8zm-51.52-40.32h12c4 0 7.2 1.12 9.44 3.04 2.24 2.08 3.36 4.8 3.36 8.16 0 3.2-1.12 5.76-3.52 8-2.4 2.08-5.6 3.2-9.6 3.2h-11.84zm27.04 63.2c-2.56 2.4-5.92 3.68-10.24 3.68h-16.96v-24.64h16.96c4.16 0 7.52 1.12 10.08 3.52 2.56 2.24 3.84 5.12 3.84 8.64s-1.12 6.4-3.68 8.8z"/></g>















</svg>
