<?xml version="1.0" encoding="UTF-8" standalone="no"?>
<svg
   xmlns:dc="http://purl.org/dc/elements/1.1/"
   xmlns:cc="http://creativecommons.org/ns#"
   xmlns:rdf="http://www.w3.org/1999/02/22-rdf-syntax-ns#"
   xmlns:svg="http://www.w3.org/2000/svg"
   xmlns="http://www.w3.org/2000/svg"
   xmlns:sodipodi="http://sodipodi.sourceforge.net/DTD/sodipodi-0.dtd"
   xmlns:inkscape="http://www.inkscape.org/namespaces/inkscape"
   version="1.1"
   id="Capa_1"
   x="0px"
   y="0px"
   viewBox="0 0 482.14 482.14"
   style="enable-background:new 0 0 482.14 482.14;"
   xml:space="preserve"
   sodipodi:docname="filetemplate.svg"
   inkscape:version="1.0.1 (3bc2e813f5, 2020-09-07, custom)"><metadata
   id="metadata45"><rdf:RDF><cc:Work
       rdf:about=""><dc:format>image/svg+xml</dc:format><dc:type
         rdf:resource="http://purl.org/dc/dcmitype/StillImage" /><dc:title></dc:title></cc:Work></rdf:RDF></metadata><defs
   id="defs43" /><sodipodi:namedview
   pagecolor="#ffffff"
   bordercolor="#666666"
   borderopacity="1"
   objecttolerance="10"
   gridtolerance="10"
   guidetolerance="10"
   inkscape:pageopacity="0"
   inkscape:pageshadow="2"
   inkscape:window-width="2560"
   inkscape:window-height="1369"
   id="namedview41"
   showgrid="false"
   inkscape:zoom="3.0652721"
   inkscape:cx="241.07001"
   inkscape:cy="241.07001"
   inkscape:window-x="0"
   inkscape:window-y="0"
   inkscape:window-maximized="1"
   inkscape:current-layer="g8" />
<g
   id="g8">
	
	
	<path
   d="M 315.458,0 H 121.811 C 93.521,0 70.496,23.041 70.496,51.315 v 189.754 h -5.012 c -11.418,0 -20.678,9.251 -20.678,20.679 v 125.404 c 0,11.427 9.259,20.677 20.678,20.677 h 5.012 v 22.995 c 0,28.305 23.025,51.315 51.315,51.315 h 264.223 c 28.272,0 51.3,-23.011 51.3,-51.315 V 121.449 Z m 70.576,450.713 H 121.811 c -10.954,0 -19.874,-8.92 -19.874,-19.889 v -22.995 h 246.31 c 11.42,0 20.679,-9.25 20.679,-20.677 V 261.748 c 0,-11.428 -9.259,-20.679 -20.679,-20.679 H 101.937 V 51.315 c 0,-10.938 8.921,-19.858 19.874,-19.858 l 181.89,-0.19 V 98.5 c 0,19.638 15.934,35.587 35.587,35.587 l 65.862,-0.189 0.741,296.925 c 0,10.97 -8.904,19.89 -19.857,19.89 z"
   id="path6"
   sodipodi:nodetypes="csscsssscssssccssscsssscsccscccs" />
<text
   xml:space="preserve"
   style="font-style:normal;font-variant:normal;font-weight:bold;font-stretch:normal;font-size:160px;line-height:207.886px;font-family:Acre2;-inkscape-font-specification:'Acre2, Bold';font-variant-ligatures:normal;font-variant-caps:normal;font-variant-numeric:normal;font-variant-east-asian:normal;text-align:start;letter-spacing:0px;word-spacing:0px;writing-mode:lr-tb;text-anchor:start;fill:#ffffff;fill-opacity:1;stroke:none;stroke-width:1px;stroke-linecap:butt;stroke-linejoin:miter;stroke-opacity:1"
   x="87.074356"
   y="378.57913"
   id="text112"><tspan
     sodipodi:role="line"
     id="tspan110"
     x="87.074356"
     y="378.57913">BIB</tspan></text></g>
<g
   id="g10">
</g>
<g
   id="g12">
</g>
<g
   id="g14">
</g>
<g
   id="g16">
</g>
<g
   id="g18">
</g>
<g
   id="g20">
</g>
<g
   id="g22">
</g>
<g
   id="g24">
</g>
<g
   id="g26">
</g>
<g
   id="g28">
</g>
<g
   id="g30">
</g>
<g
   id="g32">
</g>
<g
   id="g34">
</g>
<g
   id="g36">
</g>
<g
   id="g38">
</g>
</svg>
