<?xml version="1.0" encoding="UTF-8"?>
<svg enable-background="new 0 0 482.14 482.14" version="1.1" viewBox="0 0 482.14 482.14" xml:space="preserve" xmlns="http://www.w3.org/2000/svg">

	
	
	<path d="m315.46 0h-193.65c-28.29 0-51.315 23.041-51.315 51.315v189.75h-5.012c-11.418 0-20.678 9.251-20.678 20.679v125.4c0 11.427 9.259 20.677 20.678 20.677h5.012v22.995c0 28.305 23.025 51.315 51.315 51.315h264.22c28.272 0 51.3-23.011 51.3-51.315v-309.38zm70.576 450.71h-264.22c-10.954 0-19.874-8.92-19.874-19.889v-22.995h246.31c11.42 0 20.679-9.25 20.679-20.677v-125.4c0-11.428-9.259-20.679-20.679-20.679h-246.31v-189.75c0-10.938 8.921-19.858 19.874-19.858l181.89-0.19v67.233c0 19.638 15.934 35.587 35.587 35.587l65.862-0.189 0.741 296.92c0 10.97-8.904 19.89-19.857 19.89z"/><g fill="#fff">
<path d="m137.5 273.55c-5.9544-3.531-12.692-5.457-20.37-5.457h-33.846v112.35h23.034v-36.594h10.969c7.8347 0 14.573-1.605 20.37-4.9755 5.7977-3.21 10.185-7.704 13.319-13.482 2.9772-5.778 4.5441-12.198 4.5441-19.26 0-6.42-1.5669-12.68-4.7008-18.458-3.1339-5.778-7.5213-10.593-13.319-14.124zm-10.028 43.496c-2.9772 2.889-6.7378 4.173-11.439 4.173h-9.715v-30.335h9.715c4.5441 0 8.3048 1.605 11.282 4.494 2.9772 2.889 4.5441 6.5805 4.5441 10.754 0 4.494-1.5669 8.1855-4.3874 10.914z" style="font-variant-caps:normal;font-variant-east-asian:normal;font-variant-ligatures:normal;font-variant-numeric:normal"/><path d="m230.11 275.48c-8.4615-4.815-18.177-7.383-29.302-7.383h-32.279v112.35h32.279c11.125 0 20.84-2.4075 29.302-7.383s14.886-11.717 19.43-20.384c4.3874-8.667 6.7378-18.137 6.7378-28.73 0-10.272-2.3504-19.742-6.7378-28.248-4.5441-8.5065-10.969-15.248-19.43-20.223zm-12.379 77.682c-4.7008 3.0495-10.342 4.494-16.61 4.494h-9.5583v-66.768h9.5583c6.2678 0 11.909 1.4445 16.766 4.3335 4.7008 2.889 8.4615 6.9015 10.969 11.877 2.5071 5.136 3.7607 10.754 3.7607 16.853 0 6.2595-1.4103 11.877-3.9174 17.013-2.5071 5.136-6.2678 9.309-10.969 12.198z" style="font-variant-caps:normal;font-variant-east-asian:normal;font-variant-ligatures:normal;font-variant-numeric:normal"/><path d="m297.33 290.89h40.27v-22.791h-63.304v112.35h23.034v-40.928h28.518v-22.149h-28.518z" style="font-variant-caps:normal;font-variant-east-asian:normal;font-variant-ligatures:normal;font-variant-numeric:normal"/></g>















</svg>
