<svg version="1" viewBox="0 0 156 159" xmlns="http://www.w3.org/2000/svg"><g transform="matrix(3,0,0,3,-18,-18)"><path d="m6 49.2v2c0 3.9 3.901 7.8 7.801 7.8h36.4c3.9 0 7.8-3.9 7.8-7.8 0-0.568-0.022-1.126-0.04-1.684-0.202 3.79-3.966 7.484-7.76 7.484h-36.4c-3.899 0-7.8-3.9-7.8-7.8z" opacity=".2"/><path d="m58 50.2c0-26-18.2-44.2-44.2-44.2-3.9 0-7.8 3.9-7.8 7.8v36.4c0 3.9 3.9 7.8 7.8 7.8h36.4c3.9 0 7.8-3.9 7.8-7.8z" fill="#f59335"/><path d="m12 20c0 2.112 0.8982 3 3 3 14.91 0 27 12.09 27 27 0 1.866 1.018 3 3 3 2.04 0 3-1.192 3-3 0-18.23-14.77-33-33-33-1.995 0-3 0.971-3 3zm0 12c0 2.055 0.8404 3 3 3 8.284 0 15 6.716 15 15 0 1.766 1.014 3 3 3 1.938 0 3-1.076 3-3 0-11.6-9.402-21-21-21-1.937 0-3 0.856-3 3zm6 9c-3.314 0-6 2.686-6 6s2.686 6 6 6c3.314 0 6-2.686 6-6s-2.686-6-6-6z" opacity=".2"/><path d="m12 19c0 2.112 0.8982 3 3 3 14.91 0 27 12.09 27 27 0 1.866 1.018 3 3 3 2.04 0 3-1.192 3-3 0-18.23-14.77-33-33-33-1.995 0-3 0.971-3 3zm0 12c0 2.055 0.8404 3 3 3 8.284 0 15 6.716 15 15 0 1.766 1.014 3 3 3 1.938 0 3-1.076 3-3 0-11.6-9.402-21-21-21-1.937 0-3 0.856-3 3zm6 9c-3.314 0-6 2.686-6 6s2.686 6 6 6c3.314 0 6-2.686 6-6s-2.686-6-6-6z" fill="#fff"/><path d="m13.8 6c-3.9 0-7.801 3.901-7.801 7.801v1c0-3.9 3.901-7.801 7.801-7.801 25.71 0 43.78 17.81 44.18 43.35 0.008713-0.04995 0.01953-0.09997 0.01953-0.1504 0-26-18.2-44.2-44.2-44.2z" fill="#fff" opacity=".1"/></g></svg>
