<svg version="1.1" viewBox="0 0 316.4 120" xmlns="http://www.w3.org/2000/svg"><g><g transform="matrix(.9945 0 0 .9945 -8.983 -19.76)"><path d="m270.9 97.36 1.357-0.2154v-9.421l-1.185-0.1221v-0.7827h1.889c0.1149 1.1e-5 0.2681-0.0048 0.4596-0.01436 0.1915-0.0096 0.4021-0.02153 0.6319-0.0359 0.2346-0.01435 0.4763-0.02632 0.7253-0.0359 0.2537-0.0096 0.5003-0.01435 0.7396-0.01436 0.5505 1.1e-5 1.056 0.05267 1.515 0.158 0.4596 0.1053 0.8545 0.2872 1.185 0.5458 0.3303 0.2537 0.5864 0.5936 0.7684 1.02 0.1867 0.4261 0.28 0.9623 0.28 1.608 0 0.3878-0.0551 0.7492-0.1652 1.084-0.1053 0.3351-0.2537 0.6391-0.4452 0.912-0.1915 0.2729-0.4189 0.5146-0.6822 0.7253-0.2633 0.2106-0.5482 0.3854-0.8545 0.5242-0.3064 0.1388-0.6319 0.2442-0.9766 0.316-0.3399 0.06703-0.6846 0.09575-1.034 0.08617-0.3638-0.0096-0.6583-0.01196-0.8833-0.0072-0.225 0.0048-0.4141 0.01915-0.5673 0.04309v3.411l1.917 0.2154v0.6104h-4.675v-0.6104m2.758-4.474c0.2729 0.0383 0.5242 0.06224 0.754 0.07181 0.2346 0.0048 0.4596 0.0072 0.675 0.0072 0.2298 5e-6 0.4572-0.01436 0.6822-0.04309 0.2298-0.03351 0.4452-0.08856 0.6463-0.1652 0.2058-0.08138 0.3949-0.1891 0.5673-0.3231 0.1771-0.1388 0.3279-0.316 0.4524-0.5314 0.1292-0.2154 0.2298-0.4715 0.3016-0.7684 0.0718-0.3016 0.1077-0.6558 0.1077-1.063-1e-5 -0.8808-0.249-1.534-0.7468-1.96-0.4931-0.4261-1.202-0.6247-2.126-0.596-0.2346 0.0096-0.4596 0.02395-0.675 0.04309-0.2106 0.01437-0.4237 0.04788-0.6391 0.1005v5.228"/><path d="m280.4 97.36 1.163-0.1508v-5.845l-1.02-0.5601v-0.4452l1.896-0.5673 0.3375 0.1436v1.106c0.0909-0.134 0.2274-0.2753 0.4093-0.4237 0.1867-0.1484 0.395-0.2824 0.6247-0.4021 0.2298-0.1245 0.4692-0.225 0.7181-0.3016 0.2489-0.08138 0.4835-0.1221 0.7037-0.1221 0.158 8e-6 0.2992 0.0048 0.4237 0.01436 0.1292 0.0048 0.2202 0.01676 0.2729 0.0359v1.472c-0.0766-0.02872-0.1556-0.05744-0.237-0.08617-0.0814-0.0335-0.1724-0.05983-0.2729-0.07899-0.0957-0.02393-0.2059-0.04308-0.3303-0.05745-0.1245-0.01436-0.2681-0.02154-0.4309-0.02154-0.3878 7e-6 -0.7133 0.05027-0.9766 0.1508-0.2633 0.09575-0.5051 0.213-0.7253 0.3519v5.616l2.047 0.1723v0.6104h-4.603v-0.6104"/><path d="m287 93.79c0.01-0.6415 0.1197-1.214 0.3303-1.716 0.2154-0.5074 0.4979-0.9359 0.8474-1.285 0.3495-0.3495 0.7516-0.6176 1.206-0.8043 0.4596-0.1867 0.9383-0.2824 1.436-0.2872 0.608-0.0048 1.137 0.1005 1.587 0.316 0.45 0.2154 0.821 0.5122 1.113 0.8904 0.2968 0.3734 0.517 0.8138 0.6606 1.321 0.1436 0.5075 0.213 1.051 0.2082 1.63-5e-3 0.6367-0.1077 1.218-0.3088 1.745-0.1963 0.5266-0.4644 0.979-0.8043 1.357-0.3351 0.3734-0.7301 0.6654-1.185 0.8761-0.45 0.2058-0.9335 0.3088-1.451 0.3088-0.6606 0-1.223-0.1197-1.688-0.359-0.4644-0.2394-0.8426-0.5601-1.135-0.9622-0.292-0.4021-0.5051-0.8641-0.6391-1.386-0.1293-0.5266-0.1891-1.075-0.1795-1.644m3.705 3.547c0.4069 0.0096 0.7492-0.05984 1.027-0.2082 0.2824-0.1484 0.5098-0.3662 0.6822-0.6535 0.1771-0.292 0.304-0.6511 0.3806-1.077 0.0814-0.4308 0.1221-0.9239 0.1221-1.479-1e-5 -0.4835-0.0431-0.9335-0.1293-1.35-0.0814-0.4213-0.213-0.7875-0.395-1.099-0.1771-0.3112-0.4045-0.5553-0.6822-0.7325-0.2729-0.1819-0.5984-0.2777-0.9766-0.2872-0.4069-0.0048-0.754 0.06703-1.041 0.2154-0.2824 0.1436-0.5146 0.3567-0.6966 0.6391-0.1819 0.2825-0.316 0.6271-0.4021 1.034-0.0814 0.4069-0.1221 0.8689-0.1221 1.386 0 0.4644 0.0455 0.912 0.1364 1.343 0.091 0.4309 0.2274 0.8138 0.4093 1.149 0.1819 0.3303 0.4117 0.5984 0.6894 0.8043 0.2824 0.2011 0.6152 0.3064 0.9982 0.316"/><path d="m297.4 87.89c-0.1149 1e-5 -0.2274-0.01914-0.3375-0.05745-0.1101-0.04307-0.2082-0.1005-0.2944-0.1723-0.0814-0.07659-0.1484-0.1699-0.2011-0.2801-0.0479-0.1101-0.0718-0.2346-0.0718-0.3734 0-0.1484 0.0311-0.2872 0.0934-0.4165 0.067-0.1292 0.1508-0.2394 0.2513-0.3303 0.1005-0.09573 0.213-0.1699 0.3375-0.2226 0.1293-0.05265 0.2585-0.07898 0.3878-0.07899 0.316 1.2e-5 0.5458 0.08858 0.6894 0.2657 0.1484 0.1724 0.2226 0.3806 0.2226 0.6247 0 0.158-0.0311 0.3016-0.0933 0.4309-0.0622 0.1293-0.1436 0.2394-0.2442 0.3303-0.1005 0.08618-0.2154 0.1556-0.3447 0.2082-0.1293 0.04788-0.2609 0.07182-0.395 0.07181m-0.3662 3.44-0.9982-0.5314v-0.4309l2.018-0.5745 0.3303 0.1436v8.15c0 0.5601-0.0622 1.06-0.1867 1.501-0.1197 0.4452-0.2944 0.821-0.5242 1.127-0.225 0.3112-0.4979 0.5481-0.8186 0.7109s-0.6798 0.2442-1.077 0.2442c-0.0479-1e-5 -0.1125-2e-3 -0.1939-7e-3 -0.0814-5e-3 -0.1628-0.012-0.2442-0.0215-0.0766-0.01-0.1484-0.0215-0.2154-0.0359-0.067-0.0144-0.1101-0.0287-0.1292-0.0431v-0.991c0.0383 0.0144 0.0934 0.0263 0.1652 0.0359 0.0718 0.01 0.146 0.0168 0.2226 0.0215 0.0814 0.01 0.158 0.0144 0.2298 0.0144 0.0718 5e-3 0.1292 7e-3 0.1723 7e-3 0.2298 0 0.4237-0.0455 0.5817-0.1364 0.1628-0.0862 0.292-0.2346 0.3878-0.4452 0.1005-0.2059 0.1723-0.4787 0.2154-0.8186 0.0431-0.3399 0.0646-0.7612 0.0646-1.264v-6.657"/><path d="m300.4 93.98c0-0.6128 0.0958-1.178 0.2872-1.695 0.1963-0.517 0.4668-0.9646 0.8114-1.343 0.3495-0.3782 0.7684-0.675 1.257-0.8904 0.4883-0.2202 1.027-0.3375 1.616-0.3519 0.4213-0.0096 0.8019 0.05267 1.142 0.1867 0.3399 0.1293 0.6295 0.3232 0.8689 0.5817 0.2394 0.2585 0.4261 0.5745 0.5601 0.9479 0.1388 0.3734 0.2178 0.7971 0.237 1.271 0.01 0.3016 2e-3 0.5625-0.0215 0.7827-0.0192 0.2202-0.0407 0.4165-0.0646 0.5888h-5.321c-1e-5 0.02873-1e-5 0.05745 0 0.08617-1e-5 0.02394 2e-3 0.05027 7e-3 0.07899 0.0191 0.5793 0.1173 1.058 0.2944 1.436 0.1771 0.3782 0.3973 0.6798 0.6606 0.9048 0.2681 0.2202 0.5625 0.3758 0.8833 0.4668 0.3207 0.08617 0.6343 0.1293 0.9407 0.1293 0.1867 0 0.383-0.0096 0.5888-0.02872 0.2058-0.02394 0.4045-0.05505 0.596-0.09335 0.1963-0.04308 0.3758-0.09096 0.5386-0.1436 0.1676-0.05266 0.3016-0.1077 0.4021-0.1652l0.2657 0.6104c-0.1388 0.1245-0.3208 0.237-0.5458 0.3375-0.2202 0.1005-0.462 0.1867-0.7253 0.2585-0.2633 0.06702-0.5386 0.1173-0.8258 0.1508-0.2872 0.0383-0.5673 0.05745-0.8402 0.05745-0.5793 0-1.094-0.09814-1.544-0.2944-0.4452-0.2011-0.821-0.4811-1.127-0.8402-0.3064-0.3638-0.541-0.8019-0.7037-1.314-0.158-0.5122-0.237-1.084-0.237-1.716m5.314-0.7684c0.0144-0.2442 0.0168-0.4883 7e-3 -0.7325-5e-3 -0.2489-0.0335-0.4835-0.0862-0.7037-0.0527-0.225-0.134-0.4285-0.2442-0.6104-0.1053-0.1867-0.2489-0.3375-0.4308-0.4524-0.1245-0.08138-0.2657-0.1412-0.4237-0.1795-0.158-0.04308-0.3375-0.06462-0.5386-0.06463-0.2681 7e-6 -0.529 0.05027-0.7827 0.1508-0.249 0.1005-0.474 0.2609-0.675 0.4811-0.1963 0.2202-0.3614 0.5051-0.4955 0.8545-0.134 0.3447-0.2202 0.7636-0.2585 1.257h3.928"/><path d="m308.7 94.11c-5e-3 -0.6606 0.0933-1.257 0.2944-1.788 0.2011-0.5314 0.4763-0.9862 0.8258-1.364 0.3543-0.3782 0.7684-0.6726 1.242-0.8833 0.4787-0.2106 0.9934-0.3279 1.544-0.3519 0.2011-0.0048 0.4045 8e-6 0.6104 0.01436 0.2106 0.0096 0.4069 0.03113 0.5888 0.06463 0.1867 0.02873 0.3566 0.06703 0.5098 0.1149 0.1532 0.04788 0.2777 0.1029 0.3734 0.1652v1.723h-0.6822l-0.3662-0.9048c-0.0766-0.06223-0.1652-0.1149-0.2657-0.158-0.1005-0.04308-0.2035-0.07898-0.3088-0.1077-0.1053-0.02872-0.2106-0.04787-0.316-0.05745-0.1053-0.01435-0.2011-0.02154-0.2872-0.02154-0.3208 8e-6 -0.6271 0.05985-0.9192 0.1795-0.292 0.1197-0.5506 0.3016-0.7756 0.5458-0.225 0.2394-0.4045 0.5434-0.5386 0.912-0.134 0.3638-0.2035 0.7923-0.2082 1.285-5e-3 0.6511 0.0718 1.209 0.2298 1.673 0.158 0.4644 0.3638 0.845 0.6176 1.142 0.2537 0.292 0.5362 0.5075 0.8474 0.6463 0.3112 0.134 0.6176 0.2011 0.9192 0.2011 0.1867 1e-6 0.3806-0.01197 0.5817-0.0359 0.2011-0.02394 0.3949-0.05505 0.5816-0.09335 0.1867-0.0383 0.359-0.08378 0.517-0.1364 0.158-0.05745 0.2872-0.1149 0.3878-0.1723l0.2442 0.6391c-0.1388 0.1245-0.3112 0.2346-0.517 0.3303-0.2059 0.09575-0.4333 0.1771-0.6822 0.2442-0.2442 0.06702-0.5027 0.1173-0.7756 0.1508-0.2681 0.0383-0.5386 0.05745-0.8114 0.05745-0.5553 0-1.046-0.1005-1.472-0.3016-0.4261-0.2011-0.7875-0.4811-1.084-0.8402-0.292-0.359-0.5146-0.7827-0.6678-1.271-0.1532-0.4931-0.2322-1.027-0.237-1.601"/><path d="m317.3 96.09v-2.621c5e-3 -0.8713 7e-3 -1.747 7e-3 -2.628h-1.099v-0.5386c0.2106-0.05265 0.3854-0.09334 0.5242-0.1221 0.1436-0.0335 0.2609-0.06941 0.3519-0.1077 0.0957-0.04308 0.1747-0.09574 0.237-0.158 0.0622-0.06223 0.1197-0.1532 0.1723-0.2729 0.0335-0.08138 0.0742-0.2011 0.1221-0.359 0.0527-0.158 0.1005-0.3184 0.1436-0.4811 0.0479-0.1676 0.0886-0.3231 0.1221-0.4668 0.0335-0.1484 0.0551-0.2537 0.0646-0.316h0.7109v1.917h2.413v0.9048h-2.413v3.619c-1e-5 0.5553 7e-3 1.008 0.0215 1.357 0.0144 0.3447 0.0503 0.6152 0.1077 0.8114 0.0575 0.1963 0.1412 0.3303 0.2513 0.4021 0.1101 0.06702 0.2633 0.1005 0.4596 0.1005 0.1197 1e-6 0.2513-0.01197 0.395-0.03591 0.1484-0.02393 0.2896-0.05266 0.4237-0.08617 0.1388-0.03351 0.2657-0.06942 0.3806-0.1077 0.1149-0.04309 0.2011-0.08378 0.2585-0.1221l0.2226 0.6319c-0.1101 0.1197-0.2561 0.225-0.438 0.316-0.1819 0.09096-0.3806 0.1676-0.596 0.2298-0.2106 0.06223-0.4237 0.1077-0.6391 0.1364-0.2106 0.03351-0.3974 0.05027-0.5601 0.05027-0.5218 0-0.9263-0.1604-1.214-0.4811-0.2872-0.3208-0.4308-0.845-0.4308-1.573"/></g><g transform="matrix(4.277 0 0 4.277 147.4 56.35)"><path transform="translate(0 .17)" d="m5.46 4.23h-0.25c-0.1 1.02-0.24 2.26-2 2.26h-0.81c-0.47 0-0.49-0.07-0.49-0.4v-5.31c0-0.34 0-0.48 0.94-0.48h0.33v-0.3c-0.36 0.03-1.26 0.03-1.67 0.03-0.39 0-1.17 0-1.51-0.03v0.3h0.23c0.77 0 0.79 0.11 0.79 0.47v5.25c0 0.36-0.02 0.47-0.79 0.47h-0.23v0.31h5.19s0.27-2.57 0.27-2.57z"/><path transform="translate(2.48)" d="m2.81 0.16c-0.04-0.12-0.06-0.16-0.19-0.16s-0.16 0.04-0.2 0.16l-1.61 4.08c-0.07 0.17-0.19 0.48-0.81 0.48v0.25h1.55v-0.25c-0.31 0-0.5-0.14-0.5-0.34 0-0.05 0.01-0.07 0.03-0.14 0 0 0.34-0.86 0.34-0.86h1.98s0.4 1.02 0.4 1.02c0.02 0.04 0.04 0.09 0.04 0.12 0 0.2-0.38 0.2-0.57 0.2v0.25h1.97v-0.25h-0.14c-0.47 0-0.52-0.07-0.59-0.27 0 0-1.7-4.29-1.7-4.29zm-0.4 0.71s0.89 2.26 0.89 2.26h-1.78s0.89-2.26 0.89-2.26z"/><path transform="translate(7.03 .23)" d="m6.27 0h-6.09s-0.18 2.24-0.18 2.24h0.24c0.14-1.61 0.29-1.94 1.8-1.94 0.18 0 0.44 0 0.54 0.02 0.21 0.04 0.21 0.15 0.21 0.38v5.25c0 0.34 0 0.48-1.05 0.48h-0.4v0.31c0.41-0.03 1.42-0.03 1.88-0.03s1.49 0 1.9 0.03v-0.31h-0.4c-1.05 0-1.05-0.14-1.05-0.48v-5.25c0-0.2 0-0.34 0.18-0.38 0.11-0.02 0.38-0.02 0.57-0.02 1.5 0 1.65 0.33 1.79 1.94h0.25s-0.19-2.24-0.19-2.24z"/><path transform="translate(12.5,2.45)" d="m6.16 4.2h-0.25c-0.25 1.53-0.48 2.26-2.19 2.26h-1.32c-0.47 0-0.49-0.07-0.49-0.4v-2.66h0.89c0.97 0 1.08 0.32 1.08 1.17h0.25v-2.64h-0.25c0 0.85-0.11 1.16-1.08 1.16h-0.89v-2.39c0-0.33 0.02-0.4 0.49-0.4h1.28c1.53 0 1.79 0.55 1.95 1.94h0.25s-0.28-2.24-0.28-2.24h-5.6v0.3h0.23c0.77 0 0.79 0.11 0.79 0.47v5.22c0 0.36-0.02 0.47-0.79 0.47h-0.23v0.31h5.74s0.42-2.57 0.42-2.57z"/><path transform="translate(17.91 .17)" d="m3.76 2.95s1.37-2 1.37-2c0.21-0.32 0.55-0.64 1.44-0.65v-0.3h-2.38v0.3c0.4 0.01 0.62 0.23 0.62 0.46 0 0.1-0.02 0.12-0.09 0.23 0 0-1.14 1.68-1.14 1.68s-1.28-1.92-1.28-1.92c-0.02-0.03-0.07-0.11-0.07-0.15 0-0.12 0.22-0.29 0.64-0.3v-0.3c-0.34 0.03-1.07 0.03-1.45 0.03-0.31 0-0.93-0.01-1.3-0.03v0.3h0.19c0.55 0 0.74 0.07 0.93 0.35 0 0 1.83 2.77 1.83 2.77s-1.63 2.41-1.63 2.41c-0.14 0.2-0.44 0.66-1.44 0.66v0.31h2.38v-0.31c-0.46-0.01-0.63-0.28-0.63-0.46 0-0.09 0.03-0.13 0.1-0.24l1.41-2.09s1.58 2.38 1.58 2.38c0.02 0.04 0.05 0.08 0.05 0.11 0 0.12-0.22 0.29-0.65 0.3v0.31c0.35-0.03 1.08-0.03 1.45-0.03 0.42 0 0.88 0.01 1.3 0.03v-0.31h-0.19c-0.52 0-0.73-0.05-0.94-0.36 0 0-2.1-3.18-2.1-3.18z"/></g><g transform="matrix(.9945 0 0 .9945 -8.983 -19.76)"><path d="m125.4 97.01 1.759-0.2154v-9.529l-2.607 0.1436-0.5027 1.228-0.6535 0.01436 0.1795-2.183h8.552l-0.0144 2.205-0.5888 0.06463-0.3734-1.336-2.592-0.1364v9.529l1.874 0.2154v0.6104h-5.034v-0.6104"/><path d="m133.2 97.01 1.077-0.1508v-9.723l-1.228-0.2585v-0.6247l2.269-0.3016 0.3375 0.1652-0.0144 3.174-0.0215 1.242c0.2106-0.1723 0.438-0.3255 0.6822-0.4596 0.2489-0.134 0.4979-0.2465 0.7468-0.3375 0.2489-0.09574 0.4907-0.1676 0.7253-0.2154 0.2394-0.05265 0.4548-0.07898 0.6463-0.07899 0.4883 8e-6 0.888 0.07421 1.199 0.2226 0.3112 0.1484 0.5553 0.3782 0.7325 0.6894 0.1819 0.3064 0.3064 0.7013 0.3734 1.185 0.067 0.4835 0.0981 1.058 0.0934 1.723v3.598l1.077 0.1508v0.6104h-3.662v-0.6104l1.206-0.1508v-2.987c-1e-5 -0.5553-0.0144-1.044-0.0431-1.465-0.0239-0.4213-0.0934-0.7731-0.2082-1.056-0.1101-0.2872-0.2777-0.5027-0.5027-0.6463-0.225-0.1436-0.5362-0.2154-0.9335-0.2154-0.158 7e-6 -0.3255 0.0096-0.5027 0.02872-0.1771 0.01916-0.3567 0.05267-0.5386 0.1005-0.1771 0.04309-0.3567 0.1029-0.5386 0.1795-0.1771 0.0766-0.3495 0.1747-0.517 0.2944v5.766l1.056 0.1508v0.6104h-3.512v-0.6104"/><path d="m143.1 93.63c0-0.6128 0.0958-1.178 0.2872-1.695 0.1963-0.517 0.4668-0.9646 0.8114-1.343 0.3495-0.3782 0.7684-0.675 1.257-0.8904 0.4883-0.2202 1.027-0.3375 1.616-0.3519 0.4213-0.0096 0.8019 0.05267 1.142 0.1867 0.3399 0.1293 0.6295 0.3232 0.8689 0.5817 0.2394 0.2585 0.4261 0.5745 0.5601 0.9479 0.1388 0.3734 0.2178 0.7971 0.237 1.271 0.01 0.3016 2e-3 0.5625-0.0215 0.7827-0.0192 0.2202-0.0407 0.4165-0.0646 0.5888h-5.321v0.08617c0 0.02394 2e-3 0.05027 7e-3 0.07899 0.0192 0.5793 0.1173 1.058 0.2944 1.436s0.3974 0.6798 0.6606 0.9048c0.2681 0.2202 0.5625 0.3758 0.8833 0.4668 0.3207 0.08617 0.6343 0.1293 0.9407 0.1293 0.1867 1e-6 0.383-0.0096 0.5888-0.02872 0.2058-0.02394 0.4045-0.05505 0.596-0.09335 0.1963-0.04308 0.3758-0.09096 0.5386-0.1436 0.1675-0.05266 0.3016-0.1077 0.4021-0.1652l0.2657 0.6104c-0.1388 0.1245-0.3208 0.237-0.5458 0.3375-0.2202 0.1005-0.462 0.1867-0.7253 0.2585-0.2633 0.06702-0.5386 0.1173-0.8258 0.1508-0.2872 0.0383-0.5673 0.05745-0.8402 0.05745-0.5793 0-1.094-0.09814-1.544-0.2944-0.4452-0.2011-0.821-0.4811-1.127-0.8402-0.3064-0.3638-0.541-0.8019-0.7037-1.314-0.158-0.5122-0.237-1.084-0.237-1.716m5.314-0.7684c0.0144-0.2442 0.0167-0.4883 7e-3 -0.7325-5e-3 -0.2489-0.0335-0.4835-0.0862-0.7037-0.0527-0.225-0.134-0.4285-0.2442-0.6104-0.1053-0.1867-0.249-0.3375-0.4309-0.4524-0.1245-0.08138-0.2657-0.1412-0.4237-0.1795-0.158-0.04308-0.3375-0.06462-0.5386-0.06463-0.2681 7e-6 -0.529 0.05027-0.7827 0.1508-0.2489 0.1005-0.4739 0.2609-0.675 0.4811-0.1963 0.2202-0.3614 0.5051-0.4955 0.8545-0.134 0.3447-0.2202 0.7636-0.2585 1.257h3.928"/></g><path d="m107.8 84.83h32.41v1.287h-32.41z"/><path d="m260.4 84.84h55.97v1.287h-55.97z"/></g><g transform="matrix(1.344 0 0 1.344 -256.7 -723.7)"><g transform="matrix(.5883 0 0 -.5883 191.1 638.6)"><g transform="translate(-131.8 509.3)"><path d="m150-340.7c1.897-3.417 3.87-6.36 5.928-8.892l0.0249-0.0249c7e-3 -9e-3 0.0177-0.0161 0.0249-0.0249-0.9481 0.1384-1.925 0.2349-2.939 0.2242-2.004-0.0211-4.155-0.3654-6.476-1.096 3.985-3.337 7.378-5.777 10.36-7.671-0.0729 0.024-0.1514 0.0511-0.2242 0.0747l0.2242-0.1246c-4.621 1.446-9.606 1.623-15.44-1.146 4.19-2.622 7.707-4.536 10.81-5.978-0.0908 0.0135-0.1833 0.0371-0.274 0.0498l0.2242-0.1245c-4.836 0.8327-9.854 0.3646-15.32-3.238 3.562-1.588 6.658-2.786 9.415-3.711h0.0249l0.1744-0.0996c-4.611-0.1793-9.181-1.615-13.65-5.853 3.903-0.9682 7.245-1.615 10.19-2.042-0.0826-0.0167-0.1665-0.0321-0.2491-0.0498-0.1148 2e-3 -0.2343-2e-3 -0.3487 0l0.1246-0.0498c-3.437-0.7806-6.789-2.504-10.06-5.803 2.652-0.573 5.038-1.018 7.223-1.345-2.69-1.3-5.244-3.315-7.572-6.401 3.056-0.2373 5.763-0.3386 8.194-0.3487-2.941-1.361-5.713-3.498-8.17-6.949 4.365-0.2181 8.013-0.2087 11.16-0.0249-0.0588-0.0241-0.1156-0.0501-0.1743-0.0747-0.1911-0.0171-0.383-0.0293-0.5729-0.0498l0.274-0.0996c-3.269-1.435-6.295-3.762-8.892-7.696 5.425-0.0792 9.722 0.1769 13.32 0.6226-0.1098-0.0298-0.2144-0.0683-0.3238-0.0996-0.1391-8e-3 -0.286-0.0147-0.4234-0.0249l0.1743-0.0498c-4.25-1.266-8.174-3.705-11.43-8.643 4.382-0.0639 8.041 0.1019 11.18 0.3985-0.0682-0.0372-0.1314-0.0867-0.1993-0.1246-3.754-2.094-6.982-5.24-9.116-10.56 3.854 0.7299 7.084 1.5 9.888 2.316-0.0465-0.0369-0.1033-0.0621-0.1494-0.0996l0.1743 0.0249c-2.886-2.154-5.313-5.172-6.949-9.639 2.653 0.5866 5.024 1.203 7.148 1.818-1.907-2.306-3.38-5.184-4.209-8.966 2.881 1.061 5.38 2.082 7.597 3.088-0.0268-0.0314-0.0481-0.068-0.0747-0.0996-0.0453-0.0357-0.1054-0.0639-0.1494-0.0996l0.0747 0.0249c-2.033-2.436-3.584-5.5-4.359-9.564 4.056 1.622 7.356 3.179 10.14 4.658-0.0786-0.076-0.1751-0.1474-0.2491-0.2241l0.0747 0.0249c-2.46-2.698-4.296-6.163-5.031-10.93 4.788 2.114 8.478 4.078 11.51 5.928-0.032-0.0328-0.068-0.0668-0.0996-0.0996l0.1993 0.0996c-3.44-2.946-6.078-6.854-6.999-12.83 6.453 2.849 10.97 5.429 14.47 7.821-1.505-3.043-2.3-6.59-1.918-11.03 6.237 4.785 10.19 8.643 13.13 12.06-5e-3 -0.0492 4e-3 -0.1001 0-0.1495-0.1783-2.162-0.0435-4.507 0.5978-7.098 3.698 6.353 7.396 8.986 11.16 11.16-4.705-3.05-3.86-5.522-3.86-8.344 5.595 5.892 13.38 12.15 15.77 16.06-3.191-4.792-4.465-9.343-5.305-13.35-16.33-8.635-26.29-10.9-37.44-14.35 4.323-1.586 8.963-3.126 7.049-5.33l-5.106-5.106c3.265 1.015 6.599 2.478 9.49 0.4981-0.2837-2.678-3.661-4.043-6.551-5.604 5.087 1.833 6.184 1.401 7.522 0.9714 0.6682-3.209-1.652-4.929-3.163-7.049 12.81 9.742 29.52 17.43 41.3 20.65 16.56 5.577 37.93 11.39 43.74 25.53l5.803 23.31c6.808 7.369 13.07 15 16.04 24.28 18.96 3.668 34.3 2.353 50.29 1.943-1.458 0.2429-48.82 8.269-48.82 8.269-13.84 18.94-34.5 6.059-41.3-12.65-1.716-4.723-11.51-4.712-14.35 0.0249-11.22 24.15-45.28 49.69-74.27 59.1v1.6e-4z"/><path d="m149.6-339.3c1.91-3.441 3.896-6.378 5.97-8.922-0.948 0.1383-1.925 0.2197-2.939 0.209-2.004-0.0211-4.146-0.3537-6.466-1.084 4.049-3.391 7.471-5.866 10.49-7.773-4.663 1.49-9.685 1.702-15.58-1.097 4.309-2.696 7.926-4.645 11.09-6.1-4.935 0.9096-10.05 0.4951-15.64-3.187 3.687-1.643 6.876-2.877 9.706-3.814-4.645-0.1624-9.242-1.597-13.74-5.865 3.903-0.9683 7.247-1.61 10.19-2.038-3.6-0.7274-7.132-2.454-10.56-5.904 2.652-0.573 5.039-1.005 7.224-1.332-2.69-1.3-5.236-3.315-7.564-6.401 3.056-0.2373 5.76-0.3426 8.191-0.3527-2.941-1.361-5.695-3.511-8.151-6.963 4.365-0.2182 8.011-0.1969 11.16-0.013-3.456-1.413-6.642-3.801-9.366-7.929 5.425-0.0792 9.721 0.1813 13.32 0.627-4.472-1.214-8.612-3.656-12.02-8.818 4.382-0.0639 8.04 0.0954 11.18 0.3919-3.842-2.094-7.141-5.269-9.314-10.69 3.955 0.749 7.27 1.551 10.12 2.39-2.973-2.164-5.472-5.202-7.146-9.771 2.653 0.5865 5.008 1.201 7.132 1.816-1.907-2.306-3.377-5.192-4.206-8.974 2.881 1.061 5.373 2.089 7.59 3.096-2.106-2.464-3.714-5.583-4.507-9.745 4.056 1.622 7.356 3.172 10.14 4.65-2.549-2.725-4.446-6.231-5.199-11.12 4.939 2.18 8.728 4.2 11.81 6.1-3.538-2.965-6.259-6.908-7.198-13 6.453 2.849 10.96 5.433 14.46 7.825-1.505-3.044-2.302-6.607-1.92-11.05 6.237 4.785 10.19 8.658 13.13 12.07-0.1983-2.203-0.0419-4.6 0.614-7.25 4.478 7.693 8.927 9.939 13.53 12.51-7.334-3.693-6.247-6.472-6.247-9.698 5.595 5.892 13.4 12.14 15.78 16.06-3.191-4.792-4.49-9.331-5.33-13.34-16.33-8.635-26.27-10.89-37.41-14.34 4.323-1.586 8.956-3.138 7.041-5.343l-5.108-5.095c3.265 1.015 6.594 2.463 9.484 0.4833-0.2836-2.678-3.668-4.03-6.558-5.591 5.087 1.833 6.187 1.41 7.524 0.9797 0.6682-3.209-1.651-4.935-3.161-7.054 12.81 9.742 29.53 17.44 41.31 20.65 16.56 5.577 37.92 11.37 43.72 25.51l5.826 23.32c6.808 7.369 13.07 15.01 16.04 24.3 18.96 3.668 34.29 2.344 50.28 1.933-1.458 0.2429-48.83 8.269-48.83 8.269-13.84 18.94-34.48 6.067-41.28-12.64-1.716-4.723-11.51-4.724-14.34 0.013-11.22 24.15-45.29 49.69-74.28 59.1v7e-5z" fill="#008080"/><path d="m261.5-388.7-0.1246-0.1992c-0.4913-0.9153-1.322-1.54-2.491-1.918-1.168-0.3778-2.665-0.4989-4.408-0.4234l-1.096 0.0498 0.797-0.7722c0.4046-0.3892 0.5177-0.6999 0.523-0.9713 6e-3 -0.2716-0.1111-0.5648-0.3736-0.8966-0.525-0.6639-1.568-1.385-2.54-2.117l-0.3238-0.2241 0.2242-0.3238c0.8115-1.245 1.183-2.203 1.27-2.939 0.0871-0.7356-0.0839-1.263-0.4234-1.718-0.6791-0.9107-2.17-1.528-3.512-2.291l-0.2491-0.1246 0.0498-0.2989c0.1154-0.7003-0.0733-1.272-0.5728-1.843-0.4996-0.5705-1.341-1.115-2.466-1.594l-0.2989-0.1245 0.0498-0.3238c0.2244-1.499 0.6752-2.804 1.619-3.636 0.8634-0.7613 2.17-0.9621 3.836-0.6226 0.2904-1.598 0.7067-3.052 1.669-4.01 0.9751-0.971 2.519-1.258 4.583-0.7222 0.4645-1.12 1.143-1.917 1.918-2.441 0.8505-0.575 1.962-0.8069 2.876-1.091l0.5417 0.5826c-0.9074 0.2818-2.247 0.7174-2.97 1.206-0.7224 0.4883-1.309 1.158-1.719 2.316l-0.1245 0.3985-0.3985-0.1245c-2.122-0.6523-3.299-0.3586-4.11 0.4483-0.8102 0.8068-1.266 2.265-1.544 3.96l-0.0747 0.4483-0.4483-0.1245c-1.749-0.4565-2.782-0.223-3.487 0.3985-0.6584 0.5806-1.048 1.61-1.27 2.889 1.014 0.4686 1.882 0.981 2.441 1.619 0.5456 0.6232 0.7819 1.392 0.7472 2.192 1.236 0.6801 2.728 1.265 3.587 2.416 0.449 0.602 0.6822 1.393 0.5728 2.316-0.0994 0.8398-0.5106 1.81-1.22 2.964 0.8712 0.6418 1.817 1.285 2.416 2.042 0.3331 0.421 0.5835 0.8872 0.5729 1.42-6e-3 0.2936-0.2882 0.5611-0.4483 0.8468 1.515-0.0198 2.896 0.08 4.035 0.4483 1.2 0.3881 2.143 1.095 2.765 2.067 1.793-9e-3 3.65-0.4035 5.529-0.6476 1.93-0.2508 3.894-0.3181 5.754 0.4981l-0.3487 0.7721c-1.645-0.7222-3.403-0.6922-5.28-0.4483-1.877 0.244-3.834 0.6868-5.803 0.6725h-0.2491z" fill="#fff"/><path d="m268.4-388.4c0-1.955-1.584-3.539-3.539-3.539-1.954 0-3.539 1.584-3.539 3.539 0 1.954 1.584 3.539 3.539 3.539 1.955 0 3.539-1.584 3.539-3.539z" fill="#fff" stroke="#fff" stroke-width=".8359"/><path d="m279-385.1c-3.177-4.133-3.976-3.066-5.91-3.759l-0.3237-0.1245 0.0498-0.3487c0.7447-4.152 3.205-5.471 5.125-6.98l0.1072 0.3358 0.5111 0.0974c-1.925 1.513-4.031 2.794-4.797 6.322 1.409 0.3332 2.753-0.0929 5.754 3.811l-0.5155 0.6453z" fill="#fff"/><path d="m156.7-356.9c6.004-3.723 15.88-7.562 22.23-11.57 3.491-2.223 6.627-4.438 9.066-6.351 2.439-1.914 4.243-3.89 4.907-4.533 0.6635-0.6427 1.114-0.339 0.6725 0.4981-0.4414 0.8371-2.614 2.772-5.081 4.707-2.467 1.935-5.604 4.14-9.116 6.376-7.024 4.472-15.27 8.471-22.68 10.88z" fill="#fff"/><path d="m155.6-348.2c2.517-0.5812 6.231-2.728 10.36-5.024 4.131-2.297 8.633-5.123 12.75-7.871 4.12-2.748 7.296-5.153 9.835-7.09 2.411-2.063 3.602-3.4 4.063-3.396 0.0633-0.0127 0.1256-0.0137 0.2242 0 0.0986 0.0137 0.2649 0.0897 0.3487 0.2491 0.0837 0.1592 0.0513 0.2931 0.0249 0.3736-0.0265 0.0805-0.0406 0.1232-0.0747 0.1744-0.1362 0.2046-0.3442 0.3962-0.6476 0.6724-0.6069 0.5525-1.61 1.365-2.889 2.341-2.559 1.953-6.278 4.615-10.41 7.372-4.133 2.757-8.667 5.608-12.83 7.92-1.479 0.5479-8.73 4.383-10.76 4.277h-1e-4z" fill="#fff"/><path d="m152.2-364.1c7.706-3.145 18.67-6.84 25.98-11.44 3.932-2.496 7.356-4.984 9.913-7.024 1.279-1.02 2.346-1.937 3.138-2.665 0.7918-0.728 1.238-1.389 1.494-1.569 0.5359-0.3775 0.9462-0.1267 0.6974 0.4733-0.1878 0.453-0.8077 0.9727-1.619 1.719-0.8113 0.7458-1.897 1.66-3.188 2.69-2.582 2.06-6.029 4.584-9.988 7.099-7.918 5.028-17.38 9.449-26.43 10.72z" fill="#fff"/><path d="m146.2-371.1c6.006-4e-3 18.41-5.501 23.64-8.256 8.478-4.522 16.19-10.33 20.45-14.4 0.4725-0.4505 1.163-0.0529 0.6227 0.5728-3.958 4.586-12.13 9.991-20.67 14.55-8.541 4.555-17.38 7.54-24.04 7.534z" fill="#fff"/><path d="m142.8-379c9.028-1.321 19.85-4.965 27.74-8.914 4.4-2.234 8.324-4.627 11.33-6.75 3.009-2.123 5.23-4.512 5.778-5.131 0.5482-0.6184 1.201-0.6442 0.6974 0.4483-0.5038 1.092-2.954 3.229-6.003 5.38s-6.998 4.548-11.43 6.8c-8.869 4.503-18.97 8.046-28.11 8.167z" fill="#fff"/><path d="m145.7-385.7c-2.243 0.1957-4.262-0.2642-6.319-0.5213 8.022 0.7518 19.24-2.932 26.72-6.378 8.809-4.13 16.12-9.799 19.63-13.4 0.5485-0.5637 0.9361 0.1546 0.6476 0.5231-3.263 4.165-11.03 9.48-19.93 13.65-6.67 3.127-14.02 5.54-20.75 6.127z" fill="#fff"/><path d="m140-392.9c7.894-0.5852 18.46-2.476 25.87-5.874 7.446-3.483 13.1-7.999 15.94-10.56 0.4375-0.3942 1.211-0.115 0.5978 0.5978-2.595 3.015-8.628 7.185-16.16 10.71-7.537 3.525-16.69 5.783-26.24 5.127z" fill="#fff"/><path d="m147.1-399.5c-1.666 0.0564-2.447-0.2553-4.054-0.4288 5.358-0.2362 13.87-1.661 18.58-3.257 6.102-2.117 11.12-5.306 13.97-7.796 0.551-0.4808 0.9618 0.1643 0.5978 0.5729-2.673 2.999-8.105 5.872-14.3 8.02-4.644 1.611-9.798 2.72-14.8 2.889z" fill="#fff"/><path d="m146.9-407.3c11.45-0.7729 18.38-2.791 23.69-7.547 0.3978-0.3564 1.026 0.1341 0.5978 0.5978-5.448 5.903-16.18 7.548-24.29 6.949z" fill="#fff"/><path d="m155.7-414.2c-3.472 0.2793-6.378-0.4795-9.542-1.533 9.26 1.476 13.11 0.7682 20.13-2.527 0.7998-0.3756 0.7529 0.5093 0.3985 0.7224-3.727 2.24-7.512 3.058-10.98 3.338z" fill="#fff"/><path d="m155.4-420.6c-3.283-0.2911-6.07-1.418-8.369-3.288 9.171 3.535 11.7 2.831 18.72 0.843 0.9224-0.2615 0.6358 0.627 0.274 0.7722-4.2 1.684-7.341 1.964-10.62 1.673z" fill="#fff"/><path d="m173.6-426.3c-4.893 0.529-10.4-0.0643-15.24-0.9465-4.838-0.8822-8.998-2.674-11.35-4.585 8.044 3.397 9.509 3.39 11.5 3.763 4.766 0.8691 9.49 1.208 15.04 0.9465 0.5036-0.0238 0.4778 0.7756 0.0498 0.8219z" fill="#fff"/><path d="m176.4-430.2c-5.302 0.2003-10.78-1.112-15.52-2.466-4.738-1.354-8.254-3.202-10.57-5.088 4.692 2.257 9.058 3.785 10.8 4.291 4.671 1.335 9.384 2.491 15.34 2.416 0.4629-6e-3 0.7621 0.8161-0.0498 0.8468z" fill="#fff"/><path d="m180.7-433.5c-4.994-0.7373-10.23-2.212-14.8-3.761-4.564-1.549-7.814-3.388-9.933-5.59 5.429 3.116 8.415 4.209 10.18 4.818 4.508 1.53 8.718 2.594 14.7 3.711 0.7173 0.1341 0.1412 0.8649-0.1494 0.8219z" fill="#fff"/><path d="m183.3-437.7c-10.02-1.595-16.5-5.916-20.63-10.2 6.393 4.816 10.84 7.405 20.8 9.379 0.6307 0.125 0.4402 0.9198-0.1743 0.822z" fill="#fff"/><path d="m188.2-441.3c-10.07-1.552-15.88-7.675-18.3-11.72 6.373 6.366 11.33 9.831 18.48 10.9 0.7228 0.1076 0.5384 0.9317-0.1743 0.8219z" fill="#fff"/><path d="m191.2-444.5c-1.571-0.1962-3.709-1.309-5.729-2.59s-3.544-2.841-4.453-4.85c2.433 2.511 3.407 3.19 4.901 4.153 1.939 1.23 3.893 2.006 5.48 2.466 0.7435 0.2158 0.1816 0.8695-0.1993 0.8219z" fill="#fff"/><path d="m268.4-388.4c0-1.955-1.584-3.539-3.539-3.539-1.954 0-3.539 1.584-3.539 3.539 0 1.954 1.584 3.539 3.539 3.539 1.955 0 3.539-1.584 3.539-3.539z" fill="#fff" stroke="#fff" stroke-width=".8359"/><path d="m268.4-388.4c0-1.955-1.584-3.539-3.539-3.539-1.954 0-3.539 1.584-3.539 3.539 0 1.954 1.584 3.539 3.539 3.539 1.955 0 3.539-1.584 3.539-3.539z" fill="#37c871" stroke="#fff" stroke-width=".8359"/></g></g></g></svg>
