<svg xmlns="http://www.w3.org/2000/svg" width="781.636" height="240" viewBox="0 0 781.636 240"><path d="M390.344 4.17a2.085 2.085 0 1 0 0-4.17 2.085 2.085 0 0 0 0 4.17zm0 62.15L337.8 88.201h105.093l-52.55-21.88zm-.002-3.821l1.36.564 35.878 14.941c-1.433-14.937-11.653-27.307-25.429-31.889v-9.221l-3.269-3.177V22.442l1.61-1.597c-.22-.24-5.599-6.204-7.416-14.328h-5.529c-1.74 7.79-6.76 13.594-7.361 14.274l-.015.026 1.634 1.623v11.275l-3.27 3.177v9.221c-13.777 4.582-23.997 16.95-25.426 31.891l35.878-14.94 1.355-.565zm3.503-36.36h.002c0-.608.21-1.453 1.293-1.453 1.082 0 1.294.859 1.294 1.454v9.284a38.168 38.168 0 0 0-2.589-.328V26.14zm-6.97 8.968c-.87.08-1.732.19-2.588.331V26.14h.002c0-.61.21-1.454 1.295-1.454 1.081 0 1.291.859 1.291 1.454v8.967zm1.724-9.567c0-.849.294-2.029 1.81-2.029 1.508 0 1.805 1.201 1.805 2.029v9.445a36.163 36.163 0 0 0-3.615 0V25.54zM184.31 237.364V240h412.072v-2.636H184.311z" fill="#c8910f"/><path d="M34.95 182.039c1.065-1.802 1.598-4.025 1.598-6.664 0-2.436-.492-4.454-1.484-6.054-.99-1.599-2.323-2.867-3.997-3.807-1.676-.937-3.618-1.597-5.825-1.978a41.135 41.135 0 0 0-6.969-.572H0v2.132l4.264.763c.1.355.228.711.38 1.066.102.303.202.661.304 1.065.103.408.152.839.152 1.294v36.777c0 .965-.125 1.764-.38 2.398-.253.635-.407.98-.456 1.03L0 210.325v2.133h18.884v-2.133l-4.344-.838a20.809 20.809 0 0 1-.457-.991c-.254-.66-.379-1.473-.379-2.438v-40.05h4.492c3.198 0 5.597.915 7.196 2.741 1.598 1.828 2.399 4.112 2.399 6.854 0 2.389-.28 4.303-.838 5.75-.56 1.446-1.346 2.605-2.36 3.462-1.017.868-2.234 1.486-3.654 1.869-1.424.382-2.998.672-4.723.875 0 .206.05.407.152.61.204.455.534.965.991 1.522 2.438 0 4.81-.255 7.12-.763 2.31-.505 4.365-1.332 6.168-2.476 1.803-1.143 3.237-2.612 4.303-4.413zm42.707 26.8a4.911 4.911 0 0 1-1.105-1.446c-.303-.58-.635-1.33-.99-2.244l-16.52-43.098c-.458 0-.966.065-1.523.188a23.59 23.59 0 0 0-1.599.42c-.559.203-1.143.38-1.752.531a1783.846 1783.846 0 0 0-8.298 21.474 289.843 289.843 0 0 1-9.06 21.318c-.611 1.323-1.271 2.274-1.982 2.856-.71.586-1.369 1.005-1.98 1.258-.712.256-1.395.331-2.055.227v2.133h16.448v-2.133a30.668 30.668 0 0 1-2.094-.227c-.736-.103-1.371-.305-1.904-.609-.533-.305-.914-.71-1.143-1.217-.228-.51-.19-1.22.115-2.133.709-2.135 1.444-4.264 2.207-6.399.76-2.129 1.547-4.21 2.36-6.241H62.01a720.245 720.245 0 0 1 2.322 6.284c.787 2.157 1.56 4.276 2.322 6.358.405 1.116.38 1.967-.076 2.549a3.78 3.78 0 0 1-1.752 1.254c-.865.307-1.877.46-3.045.46v2.056h20.178v-2.133c-1.118-.152-2.005-.34-2.665-.568-.66-.231-1.207-.535-1.637-.917zm-29.808-18.31a233.963 233.963 0 0 1 3.39-9.212c1.19-3.05 2.32-6.116 3.386-9.214.61 1.625 1.28 3.487 2.017 5.596.734 2.106 1.432 4.128 2.094 6.054a262.595 262.595 0 0 1 2.209 6.776H47.849zm71.221-25.435c.76.05 1.533.125 2.32.225.787.105 1.486.295 2.094.574.609.279 1.117.7 1.523 1.258.405.557.608 1.295.608 2.207v30.454L96.76 162.96h-10.51c0 .258.05.512.153.764.1.26.19.51.266.766.074.255.238.534.494.838.81.35 1.522.811 2.131 1.367a7.736 7.736 0 0 1 1.523 1.715c.456.688.684 1.513.684 2.476v35.259c0 1.014-.166 1.815-.494 2.398-.332.58-.752 1.014-1.258 1.293-.506.277-1.102.442-1.789.494-.686.05-1.358.075-2.018.075v2.056h16.142v-2.056a36.095 36.095 0 0 1-2.321-.23 6.974 6.974 0 0 1-2.132-.61 4.535 4.535 0 0 1-1.598-1.259c-.43-.531-.647-1.256-.647-2.168v-31.522l29.694 37.843h4.416v-43.093c0-1.119.203-1.955.61-2.516.404-.556.9-.95 1.484-1.18a6.536 6.536 0 0 1 1.903-.418 114.45 114.45 0 0 0 1.865-.154v-2.13h.005v-.008H119.07v2.135zm65.239.88a38.476 38.476 0 0 1-.115-3.008h-.003v.009h-44.392c0 1.067-.05 2.092-.151 3.084a97.412 97.412 0 0 1-.306 2.627c-.153.912-.28 1.776-.38 2.588.405.2.823.34 1.255.418.433.072.824.164 1.18.263.406.105.763.153 1.066.153 0-.505.05-.99.152-1.447.1-.404.19-.81.266-1.217.076-.406.24-.736.494-.991.711-1.015 1.65-1.675 2.817-1.978 1.168-.307 2.537-.459 4.113-.459h7.235v40.128c0 .965-.127 1.764-.381 2.398-.255.636-.406.98-.457 1.03a81.361 81.361 0 0 0-2.74.492c-.609.125-1.015.217-1.217.265-.203.05-.254.077-.152.077v2.055h18.961v-2.055l-4.417-.84a22.52 22.52 0 0 1-.457-.99c-.254-.659-.38-1.47-.38-2.436v-40.127h7.233c1.523 0 2.906.152 4.152.455 1.241.305 2.219.965 2.93 1.981.252.256.43.588.533.992.102.405.202.813.305 1.217.1.455.178.94.227 1.447.254 0 .56-.052.916-.154.658-.153 1.471-.41 2.436-.764-.151-.808-.303-1.674-.457-2.588a46.626 46.626 0 0 1-.266-2.625zm34.82-.875l4.265.764c.1.354.228.71.38 1.065.1.304.2.662.303 1.066.102.408.153.838.153 1.293v15.61h-21.092v-15.61c0-.912.125-1.699.38-2.359.101-.356.229-.69.38-.991l4.418-.84v-2.13h-18.884v2.13l4.264.764c.104.355.231.711.383 1.066.1.303.2.661.303 1.065.1.408.152.838.152 1.293v36.778c0 .965-.127 1.764-.381 2.397-.254.635-.408.981-.457 1.03l-4.264.837v2.133h18.884v-2.133l-4.34-.836a20.838 20.838 0 0 1-.457-.992c-.252-.66-.38-1.473-.38-2.438v-18.197h21.093v18.197c0 .965-.129 1.764-.383 2.398-.254.635-.406.98-.455 1.03l-4.266.836v2.133h18.884v-2.133l-4.338-.83a19.174 19.174 0 0 1-.457-.99c-.254-.66-.381-1.474-.381-2.439V169.29c0-.912.127-1.699.38-2.359.101-.356.23-.69.382-.991l4.416-.84v-2.131H219.13v2.131zm46.12-8.263a146.616 146.616 0 0 0 2.895-3.619 797.241 797.241 0 0 0 2.969-3.883l-5.33-2.663-6.398 12.717 2.741.912a47.593 47.593 0 0 0 3.123-3.464zm12.255 48.232c-.153.92-.457 1.678-.914 2.29a3.577 3.577 0 0 1-1.407 1.18 7.633 7.633 0 0 1-1.869.61c-.66.13-1.309.217-1.942.269-.635.047-1.18.072-1.637.072h-11.802v-21.625h10.355c1.016 0 1.662.596 1.943 1.789.277 1.194.467 2.729.57 4.606l2.59-.072V178.5l-2.59-.382c-.101 2.081-.28 3.729-.532 4.948-.255 1.22-.913 1.83-1.979 1.83h-10.356V166.01h8.377c.457 0 .988.04 1.6.117.608.077 1.23.2 1.864.379a9.5 9.5 0 0 1 1.828.723 3.902 3.902 0 0 1 1.41 1.22c.457.608.81 1.319 1.065 2.132.152.453.279.886.381 1.291.203.154.46.28.76.381.257.106.597.182 1.031.23.43.05.977.076 1.637.076a301.545 301.545 0 0 1-.61-3.123 92.633 92.633 0 0 1-.457-3.084 39.485 39.485 0 0 1-.305-3.389h-32.281v1.978l4.188.991c.1.357.23.713.381 1.066.099.302.2.66.304 1.066.1.405.151.837.151 1.294v36.776c0 .965-.128 1.764-.38 2.398-.257.635-.408.979-.458 1.03l-4.19.838v2.057h35.788c0-1.015.04-1.994.115-2.934.076-.935.164-1.81.266-2.627.156-.914.305-1.8.457-2.66l-3.122-.612c-.052.506-.13.99-.23 1.443zm49.813-36.43c-2.235-2.154-4.873-3.809-7.92-4.949-3.042-1.143-6.32-1.713-9.822-1.713-3.602 0-7.04.61-10.313 1.83-3.275 1.215-6.143 2.958-8.604 5.217-2.463 2.258-4.432 4.962-5.903 8.11-1.471 3.145-2.205 6.624-2.205 10.43 0 4.062.686 7.677 2.055 10.85 1.37 3.172 3.184 5.861 5.444 8.07 2.255 2.21 4.806 3.897 7.651 5.065 2.843 1.167 5.76 1.75 8.756 1.75 3.4 0 6.774-.583 10.126-1.75 3.352-1.17 6.346-2.869 8.985-5.104 2.64-2.234 4.783-5 6.434-8.3 1.648-3.298 2.473-7.082 2.473-11.344 0-3.809-.633-7.247-1.901-10.32-1.272-3.067-3.02-5.683-5.256-7.842zm-4.225 28.098c-.939 2.918-2.182 5.364-3.73 7.346-1.55 1.979-3.325 3.477-5.329 4.493-2.008 1.016-4.075 1.522-6.206 1.522-2.59 0-4.86-.746-6.817-2.245-1.955-1.496-3.578-3.363-4.873-5.596-1.293-2.232-2.27-4.686-2.93-7.348-.66-2.666-.991-5.139-.991-7.424 0-3.096.42-6.001 1.257-8.72.837-2.711 1.99-5.09 3.462-7.116 1.471-2.03 3.184-3.617 5.139-4.758 1.954-1.143 4.048-1.715 6.282-1.715 2.64 0 4.963.596 6.968 1.789 2.006 1.194 3.694 2.79 5.065 4.797 1.368 2.002 2.398 4.302 3.082 6.89a31.437 31.437 0 0 1 1.029 8.073c0 3.754-.471 7.094-1.408 10.012zm47.154-31.642c.762.05 1.537.125 2.324.225.787.105 1.485.295 2.094.574.608.279 1.115.7 1.522 1.258.404.557.609 1.295.609 2.207v30.454l-28.856-36.853h-10.51c0 .258.05.512.152.764.099.26.19.51.267.766.072.255.238.534.494.838a7.71 7.71 0 0 1 2.13 1.367 7.688 7.688 0 0 1 1.521 1.715c.457.688.685 1.513.685 2.476v35.259c0 1.014-.164 1.815-.492 2.398-.334.58-.752 1.014-1.258 1.293-.508.277-1.103.442-1.79.494a27.17 27.17 0 0 1-2.017.075v2.056h16.142v-2.056a35.972 35.972 0 0 1-2.322-.23 6.988 6.988 0 0 1-2.131-.61 4.534 4.534 0 0 1-1.598-1.259c-.433-.531-.65-1.256-.65-2.168v-31.522l29.697 37.843h4.417v-43.093c0-1.119.203-1.955.609-2.516.407-.556.903-.95 1.485-1.18a6.572 6.572 0 0 1 1.905-.418 111.16 111.16 0 0 0 1.865-.154v-2.13h.002v-.008h-16.296v2.135zm63.844 24.747a28.994 28.994 0 0 0-4.227-3.805 114.24 114.24 0 0 0-4.647-3.272 79.176 79.176 0 0 1-3.232-2.326 22.955 22.955 0 0 1-2.779-2.432c-.813-.84-1.466-1.689-1.944-2.551-.481-.863-.721-1.727-.721-2.59 0-2.69.695-4.635 2.092-5.827 1.395-1.191 3.034-1.79 4.913-1.79 1.771 0 3.232.243 4.375.722 1.143.486 2.029 1.117 2.666 1.906a6.953 6.953 0 0 1 1.328 2.625c.26.965.383 1.93.383 2.895.307.2.635.353.991.455.304.102.685.164 1.142.192.455.025.963-.038 1.522-.192-.05-.453-.076-1.178-.076-2.17 0-.988.01-1.988.038-3.004.024-1.016.065-2.308.114-3.883-.71-.51-1.6-.963-2.665-1.367-.912-.357-2.066-.674-3.463-.953-1.4-.277-3.06-.418-4.986-.418-2.032 0-4.049.293-6.053.875-2.006.584-3.807 1.446-5.407 2.588a14.529 14.529 0 0 0-3.922 4.15c-1.016 1.624-1.522 3.476-1.522 5.556 0 1.424.317 2.758.952 4a15.284 15.284 0 0 0 2.476 3.5c1.014 1.099 2.18 2.134 3.5 3.124 1.32.99 2.667 1.942 4.036 2.856 1.269.914 2.526 1.816 3.768 2.701a22.99 22.99 0 0 1 3.313 2.856c.962 1.016 1.74 2.105 2.324 3.273.58 1.17.875 2.463.875 3.883 0 2.588-.775 4.72-2.325 6.395-1.547 1.676-3.642 2.516-6.279 2.516-1.78 0-3.212-.31-4.303-.916-1.09-.607-1.956-1.357-2.59-2.244-.633-.89-1.076-1.803-1.331-2.743-.25-.937-.408-1.71-.46-2.322a2.662 2.662 0 0 0-.76-.38c-.255-.103-.606-.18-1.065-.23a8.096 8.096 0 0 0-1.52 0c.098.405.139 1.129.11 2.17-.02 1.04-.035 2.069-.035 3.083a105.632 105.632 0 0 0-.076 3.96c.507.505 1.244.96 2.209 1.368.857.358 2.029.658 3.497.914 1.473.254 3.403.381 5.788.381 2.942 0 5.546-.332 7.803-.99 2.263-.66 4.163-1.6 5.71-2.819 1.555-1.217 2.733-2.676 3.546-4.379.81-1.698 1.218-3.586 1.218-5.671 0-1.876-.408-3.615-1.218-5.217a20.273 20.273 0 0 0-3.083-4.453zm51.935-21.203c-2.232-2.154-4.871-3.809-7.918-4.949-3.045-1.143-6.32-1.713-9.823-1.713-3.604 0-7.042.614-10.317 1.83-3.274 1.215-6.14 2.958-8.603 5.217-2.461 2.258-4.432 4.962-5.9 8.11-1.475 3.145-2.212 6.624-2.212 10.43 0 4.062.693 7.677 2.059 10.85 1.369 3.172 3.186 5.861 5.442 8.07 2.26 2.21 4.811 3.897 7.655 5.065 2.842 1.167 5.76 1.75 8.755 1.75 3.402 0 6.777-.583 10.129-1.75 3.35-1.17 6.343-2.869 8.984-5.104 2.638-2.234 4.781-5 6.434-8.3 1.646-3.298 2.474-7.082 2.474-11.344 0-3.809-.635-7.247-1.902-10.32-1.27-3.067-3.02-5.683-5.257-7.842zm-4.222 28.098c-.937 2.918-2.18 5.364-3.728 7.346-1.55 1.979-3.325 3.477-5.33 4.493-2.01 1.016-4.074 1.522-6.207 1.522-2.588 0-4.862-.746-6.815-2.245-1.957-1.496-3.583-3.363-4.876-5.596-1.293-2.232-2.273-4.686-2.93-7.348-.662-2.666-.992-5.139-.992-7.424 0-3.096.418-6.001 1.254-8.72.84-2.711 1.995-5.09 3.467-7.116 1.471-2.03 3.184-3.617 5.139-4.758 1.953-1.143 4.047-1.715 6.282-1.715 2.64 0 4.96.596 6.965 1.789 2.007 1.194 3.698 2.79 5.065 4.797 1.369 2.002 2.4 4.302 3.087 6.89a31.516 31.516 0 0 1 1.025 8.073c0 3.754-.47 7.094-1.406 10.012zm52.036 10.463a20.57 20.57 0 0 1-1.674-3.082 78.532 78.532 0 0 1-1.445-3.461c-.565-1.323-1.136-2.671-1.717-4.038a25.91 25.91 0 0 0-2.018-3.845 17.818 17.818 0 0 0-2.588-3.2 9.254 9.254 0 0 0-3.348-2.094c.658-.153 1.647-.443 2.969-.877 1.32-.427 2.65-1.102 3.996-2.014 1.346-.914 2.512-2.12 3.505-3.615.991-1.501 1.484-3.363 1.484-5.6 0-2.335-.449-4.288-1.334-5.86-.888-1.574-2.13-2.844-3.728-3.807-1.6-.963-3.516-1.664-5.751-2.096-2.233-.43-4.717-.646-7.46-.646h-18.272v2.132l4.264.763c.1.355.227.711.38 1.066.1.303.202.661.306 1.065.099.408.152.839.152 1.294v36.777c0 .965-.127 1.764-.383 2.398-.256.635-.407.98-.455 1.03l-4.264.836v2.133h18.883v-2.133l-4.341-.843a19.165 19.165 0 0 1-.457-.992c-.257-.656-.383-1.47-.383-2.436v-40.128h3.807c1.574 0 3.01.258 4.301.766 1.295.508 2.375 1.196 3.24 2.057a9.308 9.308 0 0 1 2.016 3.045c.481 1.17.721 2.438.721 3.81 0 1.827-.33 3.4-.991 4.722-.658 1.317-1.537 2.411-2.625 3.27a11.95 11.95 0 0 1-3.731 1.98 17.852 17.852 0 0 1-4.227.841l1.296 2.51c1.37 0 2.512.586 3.426 1.752.914 1.165 1.7 2.613 2.36 4.337a55.053 55.053 0 0 1 1.79 5.673c.532 2.057 1.14 3.948 1.829 5.676.684 1.723 1.508 3.17 2.473 4.338.965 1.167 2.21 1.75 3.728 1.75h7.768l.762-2.133c-.812 0-1.574-.291-2.285-.875-.71-.582-1.37-1.334-1.98-2.246zm41.948-16.895c-.914-1.221-2.043-2.274-3.387-3.164-1.346-.885-2.908-1.406-4.682-1.56 1.572-.405 2.866-.989 3.883-1.75 1.014-.763 1.825-1.601 2.436-2.513a8.605 8.605 0 0 0 1.254-2.856c.231-.99.346-1.914.346-2.779 0-2.438-.471-4.467-1.408-6.091a11.089 11.089 0 0 0-3.807-3.922c-1.6-.99-3.477-1.688-5.634-2.092-2.155-.408-4.455-.613-6.891-.613h-16.292v2.056l4.264.913c.104.355.227.713.382 1.066.1.302.19.66.263 1.066.076.405.115.836.115 1.294v36.7c0 .967-.127 1.766-.38 2.4-.257.631-.41 1-.46 1.104l-4.186.914v1.977h19.266c2.486 0 4.81-.213 6.967-.647 2.157-.43 4.022-1.178 5.598-2.244 1.57-1.066 2.815-2.523 3.725-4.377.912-1.85 1.371-4.199 1.371-7.043 0-1.217-.227-2.526-.686-3.92a13.472 13.472 0 0 0-2.057-3.92zm-20.404-24.291h2.436c1.572 0 2.944.24 4.109.72 1.17.483 2.136 1.159 2.895 2.018a7.994 7.994 0 0 1 1.676 3.047c.352 1.167.534 2.438.534 3.807 0 6.142-3.48 9.212-10.431 9.212h-1.22v-18.804zm13.17 36.661c-.304 1.245-.786 2.362-1.446 3.352a8.03 8.03 0 0 1-2.549 2.434c-1.043.635-2.299.953-3.77.953h-5.405v-21.55h3.583c2.279 0 4.082.445 5.402 1.334 1.32.89 2.321 1.941 3.004 3.162.688 1.219 1.13 2.448 1.335 3.692.202 1.244.306 2.221.306 2.93 0 1.22-.156 2.453-.46 3.693zm57.61-34.036c-2.237-2.154-4.877-3.809-7.92-4.949-3.045-1.143-6.32-1.713-9.823-1.713-3.606 0-7.04.61-10.316 1.83-3.273 1.215-6.14 2.958-8.602 5.217-2.465 2.258-4.432 4.962-5.903 8.11-1.472 3.145-2.207 6.624-2.207 10.43 0 4.062.688 7.677 2.055 10.85 1.369 3.172 3.184 5.861 5.444 8.07 2.257 2.21 4.81 3.897 7.653 5.065 2.842 1.167 5.762 1.75 8.756 1.75 3.401 0 6.774-.583 10.126-1.75 3.35-1.17 6.347-2.869 8.987-5.104 2.639-2.234 4.78-5 6.432-8.3 1.65-3.298 2.473-7.082 2.473-11.344 0-3.809-.633-7.247-1.902-10.32-1.272-3.067-3.02-5.683-5.253-7.842zm-4.227 28.098c-.935 2.918-2.18 5.364-3.726 7.346-1.55 1.979-3.324 3.477-5.33 4.493-2.01 1.016-4.073 1.522-6.206 1.522-2.59 0-4.864-.746-6.817-2.245-1.956-1.496-3.581-3.363-4.874-5.596-1.293-2.232-2.274-4.686-2.932-7.348-.662-2.666-.99-5.139-.99-7.424 0-3.096.42-6.001 1.256-8.72.836-2.711 1.99-5.09 3.465-7.116 1.47-2.03 3.184-3.617 5.14-4.758 1.952-1.143 4.046-1.715 6.28-1.715 2.639 0 4.96.596 6.968 1.789 2.006 1.194 3.696 2.79 5.065 4.797 1.369 2.002 2.395 4.302 3.083 6.89.685 2.588 1.025 5.279 1.025 8.073 0 3.754-.467 7.094-1.407 10.012zm47.15-31.642a38.7 38.7 0 0 1 2.32.225c.789.105 1.484.295 2.096.574.607.279 1.113.7 1.52 1.258.408.557.611 1.295.611 2.207v30.454l-28.856-36.853h-10.506c0 .258.048.512.149.764.102.26.188.51.268.766.076.255.238.534.495.838a7.702 7.702 0 0 1 2.13 1.367 7.655 7.655 0 0 1 1.522 1.715c.455.688.685 1.513.685 2.476v35.259c0 1.014-.16 1.815-.493 2.398-.33.58-.753 1.014-1.256 1.293-.51.277-1.104.442-1.79.494s-1.357.075-2.02.075v2.056h16.14v-2.056a36.296 36.296 0 0 1-2.32-.23c-.787-.101-1.5-.308-2.13-.61a4.511 4.511 0 0 1-1.6-1.259c-.43-.531-.647-1.256-.647-2.168v-31.522l29.696 37.843h4.42v-43.093c0-1.119.203-1.955.608-2.516.408-.556.902-.95 1.486-1.18a6.548 6.548 0 0 1 1.903-.418c.686-.051 1.31-.103 1.865-.154v-2.138h-16.295v2.135zm70.426-2.135h-16.298v2.135a39.02 39.02 0 0 1 2.325.225c.787.105 1.488.295 2.095.574.606.279 1.113.7 1.52 1.258.408.557.61 1.295.61 2.207v30.454l-28.856-36.853h-10.505c0 .258.05.512.151.764.1.26.187.51.265.766.076.255.24.534.496.838a7.72 7.72 0 0 1 2.133 1.367 7.686 7.686 0 0 1 1.519 1.715c.457.688.686 1.513.686 2.476v35.259c0 1.014-.162 1.815-.492 2.398-.334.58-.752 1.014-1.258 1.293-.506.277-1.103.442-1.79.494-.687.05-1.357.075-2.019.075v2.056h16.142v-2.056a36.333 36.333 0 0 1-2.325-.23 6.993 6.993 0 0 1-2.13-.61 4.542 4.542 0 0 1-1.6-1.259c-.43-.531-.645-1.256-.645-2.168v-31.522l29.694 37.843h4.421v-43.093c0-1.119.201-1.955.61-2.516.405-.556.9-.95 1.484-1.18a6.537 6.537 0 0 1 1.902-.418c.686-.051 1.309-.103 1.866-.154v-2.13h-.001v-.008zm39 40.666c-.051.506-.125.99-.226 1.443-.155.92-.46 1.678-.914 2.29-.36.508-.829.903-1.413 1.18a7.654 7.654 0 0 1-1.864.61c-.662.13-1.31.217-1.945.269-.638.047-1.178.072-1.637.072h-11.802v-21.625h10.357c1.015 0 1.66.596 1.94 1.789.278 1.194.469 2.729.57 4.606l2.59-.072V178.5l-2.59-.382c-.1 2.081-.276 3.729-.534 4.948-.25 1.22-.91 1.83-1.976 1.83h-10.355V166.01h8.376c.459 0 .988.04 1.598.117.609.077 1.233.2 1.867.379.633.178 1.245.42 1.826.723a3.89 3.89 0 0 1 1.415 1.22 7.15 7.15 0 0 1 1.065 2.132c.15.453.277.886.38 1.291.202.154.456.28.76.381.256.106.598.182 1.028.23.433.05.978.076 1.64.076a259.22 259.22 0 0 1-.611-3.123 97.967 97.967 0 0 1-.455-3.084 38.09 38.09 0 0 1-.304-3.389h-32.287v1.978l4.191.991c.1.357.228.713.383 1.066.097.302.198.66.3 1.066.104.405.157.837.157 1.294v36.776c0 .965-.127 1.764-.385 2.398-.254.635-.404.979-.455 1.03l-4.192.838v2.057h35.79c0-1.015.04-1.994.113-2.934.078-.935.164-1.81.265-2.627.153-.914.306-1.8.458-2.66l-3.124-.612zM202.861 129.18v-14.75a.688.688 0 0 0-.663-.664h-1.325a.662.662 0 0 0-.662.664v14.61c0 3.979-2.508 7.011-6.624 7.011-4.079 0-6.556-3.105-6.556-7.083v-14.538a.661.661 0 0 0-.661-.664h-1.325a.685.685 0 0 0-.664.664h-.001v14.75c0 5.3 3.73 9.345 9.205 9.345 5.51 0 9.276-4.046 9.276-9.345zm13.54 8.993h1.219a.664.664 0 0 0 .665-.663v-18.97h.033l16.007 19.983h.628c.35 0 .663-.277.663-.627v-23.466a.685.685 0 0 0-.663-.664h-1.221a.66.66 0 0 0-.662.664v18.585h-.072l-15.726-19.598h-.871c-.35 0-.663.28-.663.628v23.465c0 .35.315.663.663.663zm33.066.004h1.395c.35 0 .663-.314.663-.665V114.43a.688.688 0 0 0-.663-.664h-1.395a.688.688 0 0 0-.664.664v23.082a.69.69 0 0 0 .664.665zm22.46-.037c.105.21.347.385.592.385h.347c.28 0 .487-.177.593-.385l10.6-23.467c.213-.453-.068-.907-.592-.907h-1.397a.68.68 0 0 0-.59.385l-8.682 19.526h-.14l-8.683-19.526a.638.638 0 0 0-.593-.385h-1.394c-.523 0-.802.454-.592.907l10.53 23.467zm22.672.039h13.74a.66.66 0 0 0 .66-.662v-1.01c0-.35-.28-.664-.66-.664H296.62v-8.891h10.008a.662.662 0 0 0 .661-.664v-1.012a.687.687 0 0 0-.661-.664H296.62v-8.508h11.717a.663.663 0 0 0 .662-.664v-1.01c0-.35-.28-.664-.662-.664h-13.74a.662.662 0 0 0-.662.664l.002 23.087c0 .351.276.662.661.662zm42.97-1.013l-4.778-8.858c3.035-1.22 5.162-3.907 5.162-7.113 0-4.15-3.417-7.429-7.601-7.429h-9.033a.662.662 0 0 0-.663.664l-.002 23.085a.66.66 0 0 0 .663.662h1.359a.685.685 0 0 0 .665-.662v-8.891H330l4.64 9.239c.068.137.243.314.555.314h1.78c.593 0 .838-.557.593-1.01zm-14.158-10.85v-10.006h6.766c2.685 0 5.022 2.267 5.022 4.919 0 2.86-2.339 5.09-5.022 5.09v-.003h-6.766zm25.007 9.382c.452.42 3.241 2.825 7.357 2.825 4.08 0 7.533-2.65 7.533-6.275 0-4.047-3.033-5.826-7.741-7.743-2.929-1.22-4.705-2.581-4.705-4.917 0-1.464 1.116-3.835 4.812-3.835 2.128 0 4.322 1.464 4.566 1.603.557.313.908.171 1.222-.316.14-.208.28-.453.419-.661.416-.663 0-1.081-.212-1.186 0 0-2.544-1.776-5.963-1.776-5.541 0-7.425 3.835-7.425 6.206 0 3.977 2.304 5.547 6.139 7.217 4.008 1.676 6.1 3.105 6.1 5.512 0 2.058-1.845 3.837-4.673 3.837-3.101 0-5.647-2.442-5.892-2.652-.487-.418-.873-.136-1.22.316-.177.208-.35.452-.523.662-.418.663-.07.94.206 1.183zm26.685 2.479h1.395c.35 0 .664-.314.664-.665V114.43a.688.688 0 0 0-.664-.664h-1.395a.688.688 0 0 0-.663.664v23.082a.69.69 0 0 0 .663.665zm27.412-24.41h-14.786a.66.66 0 0 0-.661.663v1.009a.66.66 0 0 0 .661.663h6.069v21.41c0 .351.317.665.661.665h1.327c.35 0 .662-.314.662-.665v-21.41h6.067a.664.664 0 0 0 .665-.663v-1.01a.663.663 0 0 0-.665-.663zm15.275-2.896c.138.279.314.279.8.07l5.618-2.337c.277-.106.346-.455.209-.734l-.627-1.252c-.173-.316-.695-.247-.906-.106l-5.231 2.93c-.208.106-.348.383-.208.662l.345.767zm-4.04 27.308h13.738a.66.66 0 0 0 .663-.662v-1.01a.662.662 0 0 0-.663-.664h-11.716v-8.891h10.007c.349 0 .665-.28.665-.664v-1.012a.69.69 0 0 0-.665-.664h-10.007v-8.508h11.716a.662.662 0 0 0 .663-.664v-1.01a.662.662 0 0 0-.663-.664H413.75a.663.663 0 0 0-.665.664v23.087a.66.66 0 0 0 .665.662zm40.527-.002h1.326a.687.687 0 0 0 .664-.662v-8.196h5.753c4.255 0 7.774-3.521 7.774-7.845 0-4.22-3.52-7.708-7.81-7.708h-7.707a.662.662 0 0 0-.662.664v23.085c0 .348.279.662.662.662zm1.99-21.757h5.546c2.856 0 5.298 2.159 5.298 4.983 0 3-2.442 5.337-5.298 5.337h-5.546v-10.32zm41.886 21.753c.526 0 .803-.45.591-.906L488.212 113.8c-.106-.212-.277-.385-.59-.385h-.348c-.314 0-.489.173-.593.385l-10.601 23.467c-.208.457.07.91.595.906h1.395a.64.64 0 0 0 .59-.384l2.545-5.753h12.38l2.578 5.753c.07.174.283.384.593.384h1.397zm-15.97-8.296l5.089-11.44h.279c1.71 3.803 3.383 7.638 5.093 11.44h-10.462zm27.102 8.3h1.36a.683.683 0 0 0 .662-.662v-8.891h6.66l4.638 9.239a.612.612 0 0 0 .56.314h1.782c.591 0 .835-.557.591-1.01l-4.78-8.859c3.036-1.22 5.163-3.907 5.163-7.113 0-4.15-3.42-7.429-7.607-7.429h-9.029a.662.662 0 0 0-.663.664l-.002.001v23.084c0 .351.282.662.665.662zm2.092-21.867h6.766c2.683 0 5.02 2.267 5.02 4.919 0 2.86-2.337 5.09-5.02 5.09v-.003h-6.766v-10.006zm28.428-2.544h-1.394a.687.687 0 0 0-.663.664v23.082c0 .351.314.665.663.665h1.394a.686.686 0 0 0 .662-.665V114.43a.686.686 0 0 0-.662-.664zm12.489 21.932c.455.42 3.242 2.825 7.356 2.825 4.082 0 7.533-2.65 7.533-6.275 0-4.047-3.032-5.826-7.74-7.743-2.931-1.22-4.71-2.581-4.71-4.917 0-1.464 1.117-3.835 4.815-3.835 2.126 0 4.324 1.464 4.567 1.603.556.313.905.171 1.221-.316.138-.208.277-.453.42-.661.416-.663 0-1.081-.212-1.186 0 0-2.544-1.776-5.96-1.776-5.55 0-7.43 3.835-7.43 6.206 0 3.977 2.302 5.547 6.138 7.217 4.008 1.676 6.102 3.105 6.102 5.512 0 2.058-1.847 3.837-4.673 3.837-3.105 0-5.647-2.442-5.893-2.652-.492-.418-.873-.136-1.222.316-.177.208-.35.452-.524.662-.418.663-.069.94.212 1.183zm38.155-14.993c.245.278.524.243.803.035l2.508-1.953v18.723c0 .351.279.665.662.665h1.258c.347 0 .626-.314.626-.665v-22.385c0-.348-.279-.664-.626-.664h-.94l-4.886 4.742c-.174.177-.314.489-.07.768l.665.734z" fill="#00326e"/></svg>