<?xml version="1.0" encoding="utf-8"?>
<!-- Generator: Adobe Illustrator 16.0.4, SVG Export Plug-In . SVG Version: 6.00 Build 0)  -->
<!DOCTYPE svg PUBLIC "-//W3C//DTD SVG 1.1//EN" "http://www.w3.org/Graphics/SVG/1.1/DTD/svg11.dtd">
<svg version="1.1" id="Layer_1" xmlns="http://www.w3.org/2000/svg" xmlns:xlink="http://www.w3.org/1999/xlink" x="0px" y="0px"
	 width="566.929px" height="566.929px" viewBox="13.176 137.48 566.929 566.929"
	 enable-background="new 13.176 137.48 566.929 566.929" xml:space="preserve">
<g>
	<g enable-background="new    ">
		<path d="M38.113,340.552V314.29h26.263v26.263H38.113z M38.113,491.565V360.25h26.263v131.315H38.113z"/>
		<path d="M123.981,493.412c-10.807,0-19.476-3.214-26.006-9.644c-6.532-6.428-10.995-14.773-13.388-25.032l19.697-6.565
			c4.719,13.132,11.285,19.697,19.697,19.697c4.171,0,7.403-1.145,9.695-3.437c2.291-2.291,3.437-5.522,3.437-9.695
			c0-6.086-2.19-11.146-6.566-15.183l-26.263-19.698c-2.941-1.982-5.403-3.847-7.386-5.591c-1.984-1.744-4.001-3.881-6.053-6.412
			c-2.052-2.529-3.608-5.368-4.668-8.515c-1.061-3.145-1.59-6.565-1.59-10.259c0-11.216,3.573-19.8,10.721-25.75
			c7.146-5.95,16.705-8.926,28.674-8.926c5.676,0,10.806,0.907,15.389,2.719c4.582,1.812,8.428,4.36,11.542,7.643
			c3.111,3.283,5.676,6.925,7.694,10.926c2.017,4.002,3.606,8.464,4.771,13.389l-19.698,6.565c-0.958-2.599-1.916-4.838-2.872-6.72
			c-0.959-1.88-2.241-3.914-3.847-6.104c-1.608-2.188-3.506-3.881-5.694-5.078c-2.19-1.196-4.617-1.796-7.284-1.796
			c-4.172,0-7.404,1.146-9.695,3.437c-2.292,2.293-3.437,5.524-3.437,9.695c0,4.104,2.188,7.797,6.566,11.079l26.263,19.697
			c2.94,2.326,5.454,4.565,7.541,6.72c2.085,2.155,4.12,4.652,6.104,7.489c1.983,2.839,3.488,6.002,4.514,9.49
			c1.026,3.487,1.539,7.216,1.539,11.182c0,11.218-3.575,19.8-10.721,25.75C145.508,490.436,135.949,493.412,123.981,493.412z"/>
		<path d="M179.38,491.565V307.723h26.263v66.684c3.898-3.555,7.079-6.273,9.541-8.155c2.462-1.881,5.864-3.658,10.208-5.335
			c4.342-1.675,8.977-2.514,13.901-2.514c5.607,0,10.157,2.052,13.645,6.155c3.488,4.104,5.232,9.131,5.232,15.081v111.926h-26.263
			v-98.486c0-4.515-0.564-7.831-1.693-9.951c-1.128-2.119-3.575-3.181-7.335-3.181c-5.335,0-11.08,2.564-17.235,7.694v103.924
			H179.38z"/>
		<path d="M281.149,530.959V360.25h26.263v13.132c2.119-2.257,3.591-3.796,4.411-4.617c0.82-0.82,2.24-2.085,4.258-3.796
			c2.017-1.708,3.76-2.905,5.232-3.59c1.47-0.684,3.35-1.35,5.643-2.001c2.291-0.649,4.668-0.975,7.129-0.975
			c4.445,0,8.412,0.805,11.9,2.411c3.488,1.607,6.361,3.539,8.619,5.796c2.256,2.257,4.17,5.489,5.744,9.695
			c1.572,4.206,2.752,8.02,3.539,11.438c0.785,3.421,1.385,8.037,1.795,13.85c0.41,5.814,0.65,10.516,0.719,14.106
			s0.104,8.532,0.104,14.824v1.949c0,5.745-0.293,11.285-0.873,16.619c-0.582,5.335-1.641,10.756-3.18,16.261
			c-1.539,5.506-3.488,10.276-5.848,14.312c-2.359,4.036-5.506,7.335-9.439,9.899c-3.934,2.565-8.43,3.848-13.49,3.848
			c-8.891,0-17.645-4.548-26.263-13.645v51.192H281.149z M327.111,471.868c2.803,0,5.145-1.026,7.027-3.078
			c1.879-2.052,3.246-4.976,4.104-8.771c0.854-3.796,1.436-7.556,1.744-11.284c0.307-3.728,0.461-8.087,0.461-13.081l-0.205-17.337
			c0-3.078-0.018-5.557-0.051-7.438c-0.035-1.88-0.154-4.376-0.359-7.488c-0.205-3.111-0.498-5.659-0.873-7.644
			c-0.377-1.982-0.939-4.171-1.691-6.565c-0.754-2.394-1.66-4.273-2.719-5.643c-1.062-1.367-2.43-2.529-4.104-3.488
			c-1.678-0.957-3.576-1.437-5.695-1.437c-1.025,0-2,0.069-2.923,0.206c-0.923,0.138-1.882,0.358-2.872,0.666
			c-0.992,0.309-1.813,0.582-2.463,0.821c-0.65,0.24-1.487,0.633-2.514,1.18c-1.025,0.548-1.762,0.94-2.205,1.18
			c-0.445,0.24-1.215,0.702-2.309,1.385c-1.095,0.685-1.779,1.095-2.052,1.231v81.251
			C313.43,470.09,319.995,471.868,327.111,471.868z"/>
	</g>
	<g enable-background="new    ">
		<path fill="#EB1A35" d="M525.929,493.412c-5.335,0-10.054-1.267-14.158-3.796c-4.104-2.529-8.139-5.848-12.105-9.951v11.9h-26.263
			V307.826h26.263v65.453c2.463-2.599,4.309-4.479,5.541-5.643c1.23-1.162,3.025-2.632,5.385-4.411
			c2.36-1.778,4.805-3.026,7.336-3.745c2.529-0.718,5.334-1.077,8.412-1.077c4.445,0,8.412,0.805,11.9,2.411
			c3.488,1.607,6.361,3.539,8.617,5.796c2.258,2.257,4.172,5.507,5.746,9.746c1.572,4.242,2.752,8.071,3.539,11.49
			c0.785,3.421,1.385,8.037,1.795,13.85c0.41,5.814,0.649,10.516,0.719,14.106c0.066,3.591,0.102,8.532,0.102,14.824v1.744
			c0,5.745-0.291,11.285-0.871,16.619c-0.582,5.335-1.642,10.772-3.181,16.312c-1.538,5.539-3.487,10.327-5.848,14.362
			c-2.359,4.036-5.507,7.335-9.438,9.899C535.486,492.129,530.99,493.412,525.929,493.412z M519.363,471.868
			c2.805,0,5.146-1.026,7.027-3.078s3.248-4.976,4.104-8.771s1.438-7.573,1.744-11.336c0.309-3.761,0.463-8.138,0.463-13.132
			c0-3.692-0.018-8.582-0.052-14.67c-0.036-6.087-0.052-10.669-0.052-13.747s-0.068-5.761-0.205-8.054
			c-0.138-2.29-0.479-4.701-1.025-7.232c-0.549-2.529-1.283-4.616-2.206-6.258s-2.206-2.991-3.847-4.053
			c-1.643-1.06-3.627-1.59-5.951-1.59c-7.25,0-13.815,1.744-19.697,5.232v82.585C506.437,470.5,513.003,471.868,519.363,471.868z"/>
	</g>
	<g>
		<g>
			<path fill="none" stroke="#777777" stroke-width="24" stroke-miterlimit="10" d="M435.316,290.67
				C273.49,407.45,559.054,483.921,393.103,617.388"/>
			<path fill="none" stroke="#070606" stroke-width="24" stroke-miterlimit="10" d="M440.575,224.502
				c-161.829,116.779,123.738,193.252-42.213,326.722"/>
			<path fill="none" stroke="#827973" stroke-width="24" stroke-miterlimit="10" d="M435.323,290.53
				c-80.912,58.39-49.98,106.704-19.561,157.104"/>
		</g>
	</g>
</g>
</svg>
