<?xml version="1.0" encoding="UTF-8" standalone="no"?>
<!-- Created with Inkscape (http://www.inkscape.org/) -->

<svg
   xmlns:dc="http://purl.org/dc/elements/1.1/"
   xmlns:cc="http://creativecommons.org/ns#"
   xmlns:rdf="http://www.w3.org/1999/02/22-rdf-syntax-ns#"
   xmlns:svg="http://www.w3.org/2000/svg"
   xmlns="http://www.w3.org/2000/svg"
   xmlns:sodipodi="http://sodipodi.sourceforge.net/DTD/sodipodi-0.dtd"
   xmlns:inkscape="http://www.inkscape.org/namespaces/inkscape"
   width="283.00528mm"
   height="90.197342mm"
   viewBox="0 0 1002.7746 319.59688"
   id="svg3751"
   version="1.1"
   inkscape:version="0.91 r13725"
   sodipodi:docname="Université Panthéon-Sorbonne (depuis 2016).svg">
  <defs
     id="defs3753">
    <clipPath
       clipPathUnits="userSpaceOnUse"
       id="clipPath100">
      <path
         d="m 0,0 425.197,0 0,595.276 L 0,595.276 0,0 Z"
         id="path102"
         inkscape:connector-curvature="0" />
    </clipPath>
    <clipPath
       clipPathUnits="userSpaceOnUse"
       id="clipPath86">
      <path
         d="m 0,0 425.197,0 0,595.276 L 0,595.276 0,0 Z"
         id="path88"
         inkscape:connector-curvature="0" />
    </clipPath>
    <clipPath
       clipPathUnits="userSpaceOnUse"
       id="clipPath70">
      <path
         d="m 0,0 425.197,0 0,595.276 L 0,595.276 0,0 Z"
         id="path72"
         inkscape:connector-curvature="0" />
    </clipPath>
  </defs>
  <sodipodi:namedview
     id="base"
     pagecolor="#ffffff"
     bordercolor="#666666"
     borderopacity="1.0"
     inkscape:pageopacity="0.0"
     inkscape:pageshadow="2"
     inkscape:zoom="0.98994949"
     inkscape:cx="655.54777"
     inkscape:cy="310.56166"
     inkscape:document-units="px"
     inkscape:current-layer="layer1"
     showgrid="false"
     fit-margin-left="1"
     fit-margin-bottom="1"
     fit-margin-top="1"
     fit-margin-right="1"
     inkscape:window-width="1920"
     inkscape:window-height="1017"
     inkscape:window-x="-8"
     inkscape:window-y="-8"
     inkscape:window-maximized="1" />
  <metadata
     id="metadata3756">
    <rdf:RDF>
      <cc:Work
         rdf:about="">
        <dc:format>image/svg+xml</dc:format>
        <dc:type
           rdf:resource="http://purl.org/dc/dcmitype/StillImage" />
        <dc:title></dc:title>
      </cc:Work>
    </rdf:RDF>
  </metadata>
  <g
     inkscape:label="Calque 1"
     inkscape:groupmode="layer"
     id="layer1"
     transform="translate(-204.66078,-332.56379)">
    <g
       transform="matrix(5,0,0,-5,-256.88091,3185.2326)"
       id="g66">
      <g
         id="g68"
         clip-path="url(#clipPath70)">
        <g
           id="g74"
           transform="translate(192.5857,568.7271)">
          <path
             d="M 0,0 C 0.303,0 0.549,0.246 0.549,0.549 0.549,0.852 0.303,1.098 0,1.098 -0.303,1.098 -0.549,0.852 -0.549,0.549 -0.549,0.246 -0.303,0 0,0"
             style="fill:#be8719;fill-opacity:1;fill-rule:nonzero;stroke:none"
             id="path76"
             inkscape:connector-curvature="0" />
        </g>
      </g>
    </g>
    <g
       id="g78"
       transform="matrix(5,0,0,-5,706.04753,423.44938)">
      <path
         d="m 0,0 -13.841,-5.763 27.682,0 L 0,0 Z"
         style="fill:#be8719;fill-opacity:1;fill-rule:nonzero;stroke:none"
         id="path80"
         inkscape:connector-curvature="0" />
    </g>
    <g
       transform="matrix(5,0,0,-5,-256.88091,3185.2326)"
       id="g82">
      <g
         id="g84"
         clip-path="url(#clipPath86)">
        <g
           id="g90"
           transform="translate(195.6962,557.6787)">
          <path
             d="m 0,0 0,2.429 -0.861,0.837 0,2.97 0.423,0.42 C -0.496,6.72 -1.912,8.29 -2.391,10.431 l -1.455,0 C -4.306,8.379 -5.627,6.85 -5.786,6.671 l -0.004,-0.007 0.43,-0.428 0,-2.97 -0.861,-0.837 0,-2.429 c -3.629,-1.207 -6.321,-4.465 -6.697,-8.4 l 9.451,3.935 0.356,0.149 0.357,-0.149 L 6.697,-8.4 C 6.321,-4.465 3.629,-1.207 0,0 m -2.188,5.262 c 0,0.16 0.056,0.383 0.341,0.383 0.285,0 0.341,-0.227 0.341,-0.383 l 0,-2.445 c -0.225,0.036 -0.452,0.065 -0.682,0.086 l 0,2.359 z M -3.57,5.42 c 0,0.223 0.078,0.534 0.476,0.534 0.398,0 0.476,-0.316 0.476,-0.534 l 0,-2.488 c -0.158,0.007 -0.316,0.012 -0.476,0.012 -0.16,0 -0.318,-0.004 -0.476,-0.012 l 0,2.488 z M -4.706,5.262 c 0,0.16 0.056,0.383 0.341,0.383 0.285,0 0.341,-0.227 0.341,-0.383 l 0,-2.362 C -4.254,2.879 -4.481,2.85 -4.706,2.813 l 0,2.449 z"
             style="fill:#be8719;fill-opacity:1;fill-rule:nonzero;stroke:none"
             id="path92"
             inkscape:connector-curvature="0" />
        </g>
      </g>
    </g>
    <path
       d="m 434.69409,648.61737 542.70996,0 0,-3.47 -542.70996,0 0,3.47 z"
       style="fill:#be8719;fill-opacity:1;fill-rule:nonzero;stroke:none"
       id="path94"
       inkscape:connector-curvature="0" />
    <g
       transform="matrix(5,0,0,-5,-256.88091,3185.2326)"
       id="g96">
      <g
         id="g98"
         clip-path="url(#clipPath100)">
        <g
           id="g104"
           transform="translate(138.3334,539.9896)">
          <path
             d="m 0,0 c 0,0.092 0.083,0.174 0.175,0.174 l 0.348,0 C 0.625,0.174 0.698,0.092 0.698,0 l 0,-3.83 c 0,-1.047 0.652,-1.865 1.727,-1.865 1.084,0 1.745,0.799 1.745,1.846 L 4.17,0 c 0,0.092 0.073,0.174 0.175,0.174 l 0.349,0 C 4.785,0.174 4.868,0.092 4.868,0 l 0,-3.885 C 4.868,-5.282 3.876,-6.347 2.425,-6.347 0.983,-6.347 0,-5.282 0,-3.885 L 0,0 Z"
             style="fill:#143f6e;fill-opacity:1;fill-rule:nonzero;stroke:none"
             id="path106"
             inkscape:connector-curvature="0" />
        </g>
        <g
           id="g108"
           transform="translate(146.5928,540.0906)">
          <path
             d="m 0,0 c 0,0.092 0.083,0.166 0.175,0.166 l 0.229,0 4.143,-5.163 0.018,0 0,4.896 c 0,0.092 0.073,0.174 0.175,0.174 l 0.321,0 c 0.092,0 0.175,-0.082 0.175,-0.174 l 0,-6.182 c 0,-0.091 -0.083,-0.165 -0.175,-0.165 l -0.165,0 -4.216,5.263 -0.009,0 0,-4.996 c 0,-0.092 -0.074,-0.175 -0.175,-0.175 l -0.321,0 C 0.083,-6.356 0,-6.273 0,-6.181 L 0,0 Z"
             style="fill:#143f6e;fill-opacity:1;fill-rule:nonzero;stroke:none"
             id="path110"
             inkscape:connector-curvature="0" />
        </g>
        <g
           id="g112"
           transform="translate(155.3026,539.9896)">
          <path
             d="m 0,0 c 0,0.092 0.083,0.174 0.175,0.174 l 0.367,0 C 0.634,0.174 0.716,0.092 0.716,0 l 0,-6.08 c 0,-0.093 -0.082,-0.175 -0.174,-0.175 l -0.367,0 C 0.083,-6.255 0,-6.173 0,-6.08 L 0,0 Z"
             style="fill:#143f6e;fill-opacity:1;fill-rule:nonzero;stroke:none"
             id="path114"
             inkscape:connector-curvature="0" />
        </g>
        <g
           id="g116"
           transform="translate(158.6194,539.9252)">
          <path
             d="m 0,0 c -0.055,0.12 0.018,0.239 0.156,0.239 l 0.368,0 c 0.082,0 0.137,-0.055 0.156,-0.101 l 2.287,-5.144 0.037,0 2.287,5.144 c 0.018,0.046 0.082,0.101 0.156,0.101 l 0.367,0 C 5.952,0.239 6.026,0.12 5.97,0 L 3.178,-6.181 C 3.151,-6.237 3.096,-6.283 3.022,-6.283 l -0.092,0 c -0.064,0 -0.129,0.046 -0.156,0.102 L 0,0 Z"
             style="fill:#143f6e;fill-opacity:1;fill-rule:nonzero;stroke:none"
             id="path118"
             inkscape:connector-curvature="0" />
        </g>
        <g
           id="g120"
           transform="translate(167.191,539.9896)">
          <path
             d="m 0,0 c 0,0.092 0.073,0.174 0.175,0.174 l 3.619,0 C 3.895,0.174 3.968,0.092 3.968,0 l 0,-0.266 c 0,-0.092 -0.073,-0.175 -0.174,-0.175 l -3.087,0 0,-2.241 2.637,0 c 0.091,0 0.174,-0.083 0.174,-0.175 l 0,-0.266 c 0,-0.101 -0.083,-0.175 -0.174,-0.175 l -2.637,0 0,-2.342 3.087,0 c 0.101,0 0.174,-0.082 0.174,-0.174 l 0,-0.266 c 0,-0.093 -0.073,-0.175 -0.174,-0.175 l -3.619,0 C 0.073,-6.255 0,-6.173 0,-6.08 L 0,0 Z"
             style="fill:#143f6e;fill-opacity:1;fill-rule:nonzero;stroke:none"
             id="path122"
             inkscape:connector-curvature="0" />
        </g>
        <g
           id="g124"
           transform="translate(176.7371,536.8574)">
          <path
             d="M 0,0 C 0.707,0 1.322,0.588 1.322,1.341 1.322,2.039 0.707,2.636 0,2.636 l -1.782,0 L -1.782,0 0,0 Z m -2.508,3.132 c 0,0.092 0.073,0.175 0.175,0.175 l 2.379,0 c 1.102,0 2.002,-0.864 2.002,-1.957 0,-0.845 -0.56,-1.552 -1.36,-1.873 l 1.259,-2.333 c 0.064,-0.12 0,-0.267 -0.156,-0.267 l -0.469,0 c -0.082,0 -0.128,0.046 -0.146,0.082 l -1.222,2.435 -1.755,0 0,-2.342 c 0,-0.093 -0.082,-0.175 -0.174,-0.175 l -0.358,0 c -0.102,0 -0.175,0.082 -0.175,0.175 l 0,6.08 z"
             style="fill:#143f6e;fill-opacity:1;fill-rule:nonzero;stroke:none"
             id="path126"
             inkscape:connector-curvature="0" />
        </g>
        <g
           id="g128"
           transform="translate(181.4874,534.6988)">
          <path
             d="m 0,0 c 0.046,0.055 0.092,0.12 0.138,0.175 0.092,0.119 0.193,0.192 0.321,0.083 0.065,-0.056 0.735,-0.699 1.552,-0.699 0.745,0 1.231,0.469 1.231,1.011 0,0.633 -0.551,1.01 -1.607,1.451 -1.01,0.441 -1.617,0.854 -1.617,1.901 0,0.625 0.496,1.635 1.957,1.635 0.9,0 1.57,-0.468 1.57,-0.468 C 3.601,5.061 3.711,4.951 3.601,4.777 3.564,4.721 3.527,4.657 3.49,4.602 3.408,4.474 3.316,4.437 3.169,4.519 3.105,4.556 2.526,4.942 1.966,4.942 0.992,4.942 0.698,4.317 0.698,3.931 c 0,-0.615 0.468,-0.973 1.24,-1.294 1.24,-0.506 2.039,-0.974 2.039,-2.04 0,-0.955 -0.909,-1.653 -1.984,-1.653 -1.084,0 -1.818,0.634 -1.938,0.744 C -0.018,-0.248 -0.11,-0.174 0,0"
             style="fill:#143f6e;fill-opacity:1;fill-rule:nonzero;stroke:none"
             id="path130"
             inkscape:connector-curvature="0" />
        </g>
        <g
           id="g132"
           transform="translate(188.3962,539.9896)">
          <path
             d="m 0,0 c 0,0.092 0.083,0.174 0.175,0.174 l 0.367,0 C 0.634,0.174 0.716,0.092 0.716,0 l 0,-6.08 c 0,-0.093 -0.082,-0.175 -0.174,-0.175 l -0.367,0 C 0.083,-6.255 0,-6.173 0,-6.08 L 0,0 Z"
             style="fill:#143f6e;fill-opacity:1;fill-rule:nonzero;stroke:none"
             id="path134"
             inkscape:connector-curvature="0" />
        </g>
        <g
           id="g136"
           transform="translate(193.4948,539.5488)">
          <path
             d="m 0,0 -1.598,0 c -0.101,0 -0.175,0.083 -0.175,0.175 l 0,0.266 c 0,0.092 0.074,0.174 0.175,0.174 l 3.894,0 c 0.102,0 0.175,-0.082 0.175,-0.174 l 0,-0.266 C 2.471,0.083 2.398,0 2.296,0 l -1.598,0 0,-5.64 c 0,-0.092 -0.082,-0.174 -0.175,-0.174 l -0.348,0 C 0.083,-5.814 0,-5.732 0,-5.64 L 0,0 Z"
             style="fill:#143f6e;fill-opacity:1;fill-rule:nonzero;stroke:none"
             id="path138"
             inkscape:connector-curvature="0" />
        </g>
        <g
           id="g140"
           transform="translate(199.7242,541.1287)">
          <path
             d="M 0,0 C -0.037,0.073 0,0.147 0.055,0.174 L 1.433,0.946 C 1.488,0.983 1.626,1.001 1.672,0.918 L 1.837,0.588 C 1.874,0.514 1.855,0.422 1.782,0.395 L 0.303,-0.221 C 0.175,-0.275 0.128,-0.275 0.092,-0.202 L 0,0 Z m -1.148,-1.139 c 0,0.092 0.073,0.174 0.175,0.174 l 3.618,0 c 0.101,0 0.175,-0.082 0.175,-0.174 l 0,-0.266 C 2.82,-1.497 2.746,-1.58 2.645,-1.58 l -3.086,0 0,-2.241 2.636,0 c 0.092,0 0.175,-0.083 0.175,-0.175 l 0,-0.266 c 0,-0.101 -0.083,-0.175 -0.175,-0.175 l -2.636,0 0,-2.342 3.086,0 c 0.101,0 0.175,-0.082 0.175,-0.174 l 0,-0.266 c 0,-0.093 -0.074,-0.175 -0.175,-0.175 l -3.618,0 c -0.102,0 -0.175,0.082 -0.175,0.175 l 0,6.08 z"
             style="fill:#143f6e;fill-opacity:1;fill-rule:nonzero;stroke:none"
             id="path142"
             inkscape:connector-curvature="0" />
        </g>
        <g
           id="g144"
           transform="translate(211.4105,536.7472)">
          <path
             d="M 0,0 C 0.753,0 1.396,0.616 1.396,1.406 1.396,2.15 0.753,2.719 0,2.719 l -1.46,0 L -1.46,0 0,0 Z m -2.158,3.242 c 0,0.092 0.073,0.175 0.174,0.175 l 2.03,0 c 1.13,0 2.058,-0.919 2.058,-2.03 0,-1.139 -0.928,-2.067 -2.049,-2.067 l -1.515,0 0,-2.158 c 0,-0.092 -0.083,-0.175 -0.175,-0.175 l -0.349,0 c -0.101,0 -0.174,0.083 -0.174,0.175 l 0,6.08 z"
             style="fill:#143f6e;fill-opacity:1;fill-rule:nonzero;stroke:none"
             id="path146"
             inkscape:connector-curvature="0" />
        </g>
        <g
           id="g148"
           transform="translate(219.5322,535.9205)">
          <path
             d="m 0,0 c -0.451,1.001 -0.891,2.011 -1.341,3.013 l -0.074,0 L -2.756,0 0,0 Z m -4.363,-1.947 2.792,6.181 c 0.027,0.056 0.074,0.102 0.156,0.102 l 0.092,0 c 0.083,0 0.129,-0.046 0.156,-0.102 L 1.607,-1.947 C 1.662,-2.067 1.589,-2.186 1.451,-2.186 l -0.367,0 c -0.083,0 -0.138,0.055 -0.157,0.101 l -0.679,1.515 -3.261,0 -0.67,-1.515 C -3.702,-2.131 -3.757,-2.186 -3.84,-2.186 l -0.367,0 c -0.138,0 -0.212,0.119 -0.156,0.239"
             style="fill:#143f6e;fill-opacity:1;fill-rule:nonzero;stroke:none"
             id="path150"
             inkscape:connector-curvature="0" />
        </g>
        <g
           id="g152"
           transform="translate(226.2487,536.8574)">
          <path
             d="M 0,0 C 0.707,0 1.322,0.588 1.322,1.341 1.322,2.039 0.707,2.636 0,2.636 l -1.782,0 L -1.782,0 0,0 Z m -2.508,3.132 c 0,0.092 0.073,0.175 0.175,0.175 l 2.379,0 c 1.102,0 2.002,-0.864 2.002,-1.957 0,-0.845 -0.56,-1.552 -1.36,-1.873 l 1.259,-2.333 c 0.064,-0.12 0,-0.267 -0.156,-0.267 l -0.469,0 c -0.082,0 -0.128,0.046 -0.146,0.082 l -1.222,2.435 -1.755,0 0,-2.342 c 0,-0.093 -0.082,-0.175 -0.174,-0.175 l -0.358,0 c -0.102,0 -0.175,0.082 -0.175,0.175 l 0,6.08 z"
             style="fill:#143f6e;fill-opacity:1;fill-rule:nonzero;stroke:none"
             id="path154"
             inkscape:connector-curvature="0" />
        </g>
        <g
           id="g156"
           transform="translate(231.4123,539.9896)">
          <path
             d="m 0,0 c 0,0.092 0.083,0.174 0.175,0.174 l 0.367,0 C 0.634,0.174 0.716,0.092 0.716,0 l 0,-6.08 c 0,-0.093 -0.082,-0.175 -0.174,-0.175 l -0.367,0 C 0.083,-6.255 0,-6.173 0,-6.08 L 0,0 Z"
             style="fill:#143f6e;fill-opacity:1;fill-rule:nonzero;stroke:none"
             id="path158"
             inkscape:connector-curvature="0" />
        </g>
        <g
           id="g160"
           transform="translate(235.1884,534.6988)">
          <path
             d="m 0,0 c 0.046,0.055 0.092,0.12 0.138,0.175 0.092,0.119 0.193,0.192 0.321,0.083 0.065,-0.056 0.735,-0.699 1.553,-0.699 0.744,0 1.231,0.469 1.231,1.011 0,0.633 -0.552,1.01 -1.608,1.451 -1.01,0.441 -1.617,0.854 -1.617,1.901 0,0.625 0.497,1.635 1.957,1.635 0.9,0 1.57,-0.468 1.57,-0.468 C 3.601,5.061 3.711,4.951 3.601,4.777 3.564,4.721 3.527,4.657 3.49,4.602 3.408,4.474 3.316,4.437 3.169,4.519 3.105,4.556 2.526,4.942 1.966,4.942 0.992,4.942 0.698,4.317 0.698,3.931 c 0,-0.615 0.468,-0.973 1.24,-1.294 1.241,-0.506 2.039,-0.974 2.039,-2.04 0,-0.955 -0.909,-1.653 -1.984,-1.653 -1.084,0 -1.818,0.634 -1.938,0.744 C -0.018,-0.248 -0.11,-0.174 0,0"
             style="fill:#143f6e;fill-opacity:1;fill-rule:nonzero;stroke:none"
             id="path162"
             inkscape:connector-curvature="0" />
        </g>
        <g
           id="g164"
           transform="translate(246.1674,538.8417)">
          <path
             d="m 0,0 -0.662,-0.514 c -0.073,-0.056 -0.146,-0.065 -0.211,0.009 l -0.174,0.193 c -0.065,0.073 -0.028,0.156 0.018,0.202 l 1.286,1.249 0.248,0 c 0.092,0 0.166,-0.083 0.166,-0.175 l 0,-5.897 c 0,-0.092 -0.074,-0.174 -0.166,-0.174 l -0.331,0 C 0.073,-5.107 0,-5.025 0,-4.933 L 0,0 Z"
             style="fill:#143f6e;fill-opacity:1;fill-rule:nonzero;stroke:none"
             id="path166"
             inkscape:connector-curvature="0" />
        </g>
        <g
           id="g168"
           transform="translate(97.527,515.4536)">
          <path
             d="M 0,0 C -0.136,0.02 -0.268,0.039 -0.386,0.058 -0.428,0.11 -0.553,0.318 -0.553,0.94 l 0,8.996 c 0,0.958 0.19,1.003 0.555,1.003 l 0.329,0 c 1.871,0 2.943,-1.006 2.943,-2.759 0,-1.836 -1.046,-2.932 -2.799,-2.932 l -0.262,0 0,-0.146 c 0,-0.018 0.002,-0.434 0.166,-0.705 l 0.042,-0.07 0.137,0 c 3.153,0 5.191,1.521 5.191,3.874 0,3.183 -3.498,3.658 -5.583,3.658 l -4.676,0 0,-0.825 0.112,-0.027 c 0.386,-0.09 0.93,-0.173 1.292,-0.214 0.041,-0.05 0.161,-0.247 0.161,-0.857 l 0,-8.996 C -2.945,0.302 -3.076,0.1 -3.108,0.058 -3.227,0.039 -3.36,0.02 -3.498,0 c -0.318,-0.047 -0.646,-0.094 -0.9,-0.154 l -0.112,-0.026 0,-0.826 5.522,0 0,0.826 L 0.9,-0.154 C 0.646,-0.094 0.317,-0.047 0,0"
             style="fill:#143f6e;fill-opacity:1;fill-rule:nonzero;stroke:none"
             id="path170"
             inkscape:connector-curvature="0" />
        </g>
        <g
           id="g172"
           transform="translate(126.9993,527.3129)">
          <path
             d="m 0,0 -4.082,0 0,-0.856 0.313,0.001 c 0.752,0 1.52,-0.127 1.52,-1.069 l 0,-7.245 -7.505,9.116 -0.043,0.053 -2.975,0 0,-0.899 0.146,0 c 0.29,0 1.276,-0.843 1.625,-1.453 l 0,-8.589 c 0,-0.942 -0.628,-1.069 -1.243,-1.069 l -0.281,10e-4 0,-0.856 4.308,0 0,0.856 -0.312,-10e-4 c -0.752,0 -1.521,0.127 -1.521,1.069 l 0,7.505 7.732,-9.376 0.044,-0.053 0.977,0 0,10.941 c 0,0.942 0.628,1.069 1.242,1.069 L 0,-0.856 0,0 Z"
             style="fill:#143f6e;fill-opacity:1;fill-rule:nonzero;stroke:none"
             id="path174"
             inkscape:connector-curvature="0" />
        </g>
        <g
           id="g176"
           transform="translate(138.0128,527.1697)">
          <path
             d="m 0,0 -0.003,0.143 -10.286,0 -0.004,-0.141 c 0,-0.013 -0.043,-1.279 -0.245,-2.318 l -0.024,-0.124 0.119,-0.042 c 0.016,-0.005 0.408,-0.139 0.68,-0.116 l 0.115,0.01 0.016,0.115 c 0.075,0.509 0.402,1.695 1.833,1.695 l 1.456,0 0,-9.998 c 0,-0.638 -0.131,-0.84 -0.163,-0.882 -0.119,-0.019 -0.252,-0.038 -0.39,-0.058 -0.317,-0.047 -0.645,-0.094 -0.9,-0.154 l -0.112,-0.026 0,-0.826 5.523,0 0,0.826 -0.113,0.026 c -0.254,0.06 -0.582,0.107 -0.899,0.154 -0.137,0.02 -0.268,0.039 -0.387,0.058 -0.042,0.052 -0.166,0.26 -0.166,0.882 l 0,9.998 1.498,0 c 1.38,0 1.712,-1.186 1.791,-1.697 l 0.019,-0.113 0.114,-0.01 c 0,0 0.307,-0.022 0.68,0.117 l 0.114,0.042 -0.021,0.12 C 0.243,-2.306 0.02,-0.996 0,0"
             style="fill:#143f6e;fill-opacity:1;fill-rule:nonzero;stroke:none"
             id="path178"
             inkscape:connector-curvature="0" />
        </g>
        <g
           id="g180"
           transform="translate(147.5269,526.4873)">
          <path
             d="m 0,0 0.113,-0.026 c 0.386,-0.091 0.929,-0.173 1.292,-0.215 0.04,-0.05 0.16,-0.247 0.16,-0.857 l 0,-3.734 -6.339,0 0,3.734 c 0,0.629 0.127,0.819 0.155,0.856 0.363,0.042 0.909,0.125 1.297,0.216 L -3.209,0 l 0,0.826 -5.523,0 0,-0.826 0.113,-0.026 c 0.386,-0.091 0.929,-0.173 1.292,-0.215 0.041,-0.05 0.16,-0.247 0.16,-0.857 l 0,-8.996 c 0,-0.637 -0.13,-0.84 -0.162,-0.881 -0.12,-0.019 -0.253,-0.039 -0.39,-0.059 -0.318,-0.046 -0.646,-0.094 -0.9,-0.153 l -0.113,-0.027 0,-0.825 5.523,0 0,0.825 -0.113,0.027 c -0.254,0.059 -0.582,0.107 -0.899,0.153 -0.136,0.02 -0.268,0.039 -0.386,0.058 -0.043,0.053 -0.167,0.26 -0.167,0.882 l 0,4.341 6.339,0 0,-4.341 c 0,-0.638 -0.131,-0.84 -0.163,-0.881 -0.119,-0.019 -0.252,-0.039 -0.39,-0.059 -0.317,-0.046 -0.646,-0.094 -0.899,-0.153 L 0,-11.214 l 0,-0.825 5.523,0 0,0.825 -0.113,0.027 c -0.253,0.059 -0.582,0.107 -0.899,0.153 -0.136,0.02 -0.268,0.039 -0.386,0.058 -0.043,0.053 -0.167,0.26 -0.167,0.882 l 0,8.996 c 0,0.629 0.127,0.819 0.155,0.856 0.363,0.042 0.909,0.125 1.297,0.216 L 5.523,0 5.523,0.826 0,0.826 0,0 Z"
             style="fill:#143f6e;fill-opacity:1;fill-rule:nonzero;stroke:none"
             id="path182"
             inkscape:connector-curvature="0" />
        </g>
        <g
           id="g184"
           transform="translate(163.2904,516.9725)">
          <path
             d="M 0,0 -0.122,0.007 -0.15,-0.112 c -0.043,-0.182 -0.206,-0.708 -0.438,-0.952 -0.368,-0.389 -0.876,-0.54 -1.809,-0.54 l -1.936,0 c -0.446,0 -0.739,0.072 -0.739,1.025 l 0,4.124 2.387,0 c 0.508,0 0.632,-0.272 0.698,-1.531 l 0.008,-0.149 0.861,0.065 0,4.194 -0.861,0.065 -0.008,-0.15 C -2.052,4.701 -2.157,4.466 -2.685,4.466 l -2.387,0 0,4.954 2.078,0 c 0.744,0 1.353,-0.236 1.631,-0.633 0.229,-0.32 0.368,-0.856 0.369,-0.862 l 0.027,-0.1 0.103,-0.009 c 0,0 0.308,-0.021 0.68,0.117 l 0.118,0.044 -0.025,0.122 c -0.002,0.011 -0.225,1.104 -0.244,2.098 l -0.003,0.143 -8.692,0 0,-0.825 0.113,-0.027 c 0.385,-0.09 0.925,-0.172 1.287,-0.214 0.039,-0.05 0.138,-0.221 0.165,-0.684 l 0,-9.356 C -7.493,-1.238 -7.599,-1.415 -7.633,-1.461 -7.751,-1.48 -7.882,-1.499 -8.018,-1.519 -8.335,-1.566 -8.663,-1.613 -8.917,-1.672 l -0.113,-0.027 0,-0.826 9.536,0 0.003,0.143 c 0.02,0.93 0.242,2.088 0.244,2.1 L 0.776,-0.166 0.667,-0.12 C 0.444,-0.026 0.045,-0.002 0,0"
             style="fill:#143f6e;fill-opacity:1;fill-rule:nonzero;stroke:none"
             id="path186"
             inkscape:connector-curvature="0" />
        </g>
        <g
           id="g188"
           transform="translate(158.1319,527.792)">
          <path
             d="m 0,0 c 1.19,0.531 2.682,1.577 3.304,2.055 l 0.057,0.044 0,0.445 L 2.594,3.585 -0.543,0.515 -0.105,-0.047 0,0 Z"
             style="fill:#143f6e;fill-opacity:1;fill-rule:nonzero;stroke:none"
             id="path190"
             inkscape:connector-curvature="0" />
        </g>
        <g
           id="g192"
           transform="translate(170.8812,527.5298)">
          <path
             d="m 0,0 c -3.652,0 -6.407,-2.887 -6.407,-6.714 0,-3.852 2.635,-6.541 6.407,-6.541 3.748,0 6.365,2.689 6.365,6.541 C 6.365,-2.887 3.629,0 0,0 m 0,-12.291 c -1.012,0 -1.842,0.322 -2.467,0.958 -0.916,0.934 -1.38,2.53 -1.341,4.616 0.024,1.35 0.369,5.753 3.808,5.753 2.807,0 3.808,-2.971 3.808,-5.75 0,-5.034 -2.663,-5.577 -3.808,-5.577"
             style="fill:#143f6e;fill-opacity:1;fill-rule:nonzero;stroke:none"
             id="path194"
             inkscape:connector-curvature="0" />
        </g>
        <g
           id="g196"
           transform="translate(186.3655,526.4571)">
          <path
             d="m 0,0 0.312,0.001 c 0.752,0 1.521,-0.127 1.521,-1.069 l 0,-7.245 -7.505,9.116 -0.044,0.053 -2.975,0 0,-0.899 0.146,0 c 0.291,0 1.277,-0.843 1.625,-1.453 l 0,-8.59 c 0,-0.941 -0.628,-1.068 -1.242,-1.068 l -0.281,10e-4 0,-0.856 4.308,0 0,0.856 -0.313,-10e-4 c -0.752,0 -1.52,0.127 -1.52,1.068 l 0,7.506 7.731,-9.376 0.044,-0.053 0.977,0 0,10.941 c 0,0.942 0.628,1.069 1.243,1.069 L 4.308,0 4.308,0.856 0,0.856 0,0 Z"
             style="fill:#143f6e;fill-opacity:1;fill-rule:nonzero;stroke:none"
             id="path198"
             inkscape:connector-curvature="0" />
        </g>
        <g
           id="g200"
           transform="translate(201.7378,521.9261)">
          <path
             d="m 0,0 c -1.295,0.822 -2.519,1.599 -2.519,2.987 0,1.113 0.963,1.696 1.913,1.696 1.103,0 1.869,-0.747 2.101,-2.047 L 1.513,2.539 1.609,2.518 C 1.794,2.479 2.202,2.515 2.213,2.516 L 2.336,2.531 2.427,4.935 2.349,4.978 C 1.518,5.439 0.385,5.604 -0.4,5.604 c -2.071,0 -4.162,-1.105 -4.162,-3.572 0,-1.978 1.486,-2.936 2.924,-3.863 1.282,-0.826 2.493,-1.607 2.493,-3.052 0,-1.394 -1.063,-1.891 -2.058,-1.891 -1.506,0 -2.569,0.903 -2.842,2.416 l -0.02,0.109 -0.11,0.01 c -0.236,0.023 -0.58,10e-4 -0.58,10e-4 l -0.143,-0.01 0.007,-0.143 c 0,-0.009 0.042,-0.909 0.165,-2.475 l 0.006,-0.077 0.066,-0.038 c 1.057,-0.621 2.461,-0.714 3.204,-0.714 2.177,0 4.492,1.312 4.492,3.745 C 3.042,-1.931 1.495,-0.949 0,0"
             style="fill:#143f6e;fill-opacity:1;fill-rule:nonzero;stroke:none"
             id="path202"
             inkscape:connector-curvature="0" />
        </g>
        <g
           id="g204"
           transform="translate(212.0054,527.5298)">
          <path
             d="m 0,0 c -3.653,0 -6.407,-2.887 -6.407,-6.714 0,-3.852 2.635,-6.541 6.407,-6.541 3.748,0 6.365,2.689 6.365,6.541 C 6.365,-2.887 3.629,0 0,0 m 0,-12.291 c -1.013,0 -1.843,0.322 -2.467,0.958 -0.916,0.934 -1.38,2.53 -1.341,4.616 0.024,1.35 0.368,5.753 3.808,5.753 2.807,0 3.808,-2.971 3.808,-5.75 0,-5.034 -2.663,-5.577 -3.808,-5.577"
             style="fill:#143f6e;fill-opacity:1;fill-rule:nonzero;stroke:none"
             id="path206"
             inkscape:connector-curvature="0" />
        </g>
        <g
           id="g208"
           transform="translate(248.3522,527.5298)">
          <path
             d="m 0,0 c -3.652,0 -6.407,-2.887 -6.407,-6.714 0,-3.852 2.635,-6.541 6.407,-6.541 3.748,0 6.366,2.689 6.366,6.541 C 6.366,-2.887 3.629,0 0,0 m 0,-12.291 c -1.012,0 -1.842,0.322 -2.466,0.958 -0.917,0.934 -1.381,2.53 -1.342,4.616 0.024,1.35 0.369,5.753 3.808,5.753 2.807,0 3.808,-2.971 3.808,-5.75 0,-5.034 -2.663,-5.577 -3.808,-5.577"
             style="fill:#143f6e;fill-opacity:1;fill-rule:nonzero;stroke:none"
             id="path210"
             inkscape:connector-curvature="0" />
        </g>
        <g
           id="g212"
           transform="translate(263.8366,526.4571)">
          <path
             d="m 0,0 0.312,0.001 c 0.752,0 1.521,-0.127 1.521,-1.069 l 0,-7.245 -7.505,9.116 -0.044,0.053 -2.975,0 0,-0.899 0.146,0 c 0.291,0 1.276,-0.843 1.625,-1.453 l 0,-8.59 c 0,-0.941 -0.628,-1.068 -1.242,-1.068 l -0.282,10e-4 0,-0.856 4.309,0 0,0.856 -0.313,-10e-4 c -0.752,0 -1.521,0.127 -1.521,1.068 l 0,7.506 7.732,-9.376 0.044,-0.053 0.977,0 0,10.941 c 0,0.942 0.628,1.069 1.243,1.069 L 4.308,0 4.308,0.856 0,0.856 0,0 Z"
             style="fill:#143f6e;fill-opacity:1;fill-rule:nonzero;stroke:none"
             id="path214"
             inkscape:connector-curvature="0" />
        </g>
        <g
           id="g216"
           transform="translate(292.0456,516.8527)">
          <path
             d="M 0,0 C -0.223,0.094 -0.622,0.117 -0.667,0.12 L -0.788,0.126 -0.817,0.008 c -0.001,-0.007 -0.159,-0.66 -0.437,-0.952 -0.369,-0.389 -0.876,-0.54 -1.809,-0.54 l -1.936,0 c -0.447,0 -0.74,0.071 -0.74,1.025 l 0,4.124 2.387,0 c 0.508,0 0.632,-0.272 0.699,-1.531 l 0.008,-0.149 0.86,0.065 0,4.194 -0.861,0.065 -0.007,-0.15 C -2.719,4.821 -2.824,4.586 -3.352,4.586 l -2.387,0 0,4.953 2.078,0 c 0.744,0 1.354,-0.236 1.632,-0.632 0.228,-0.32 0.367,-0.856 0.368,-0.862 l 0.027,-0.1 0.104,-0.009 c 0,0 0.307,-0.021 0.68,0.117 l 0.118,0.043 -0.026,0.123 C -0.76,8.23 -0.982,9.323 -1.002,10.317 l -0.003,0.143 -8.692,0 0,-0.825 0.113,-0.027 c 0.385,-0.09 0.925,-0.172 1.288,-0.214 0.039,-0.05 0.138,-0.222 0.165,-0.684 l 0,-9.356 c -0.028,-0.472 -0.135,-0.649 -0.169,-0.695 -0.118,-0.02 -0.249,-0.038 -0.384,-0.058 -0.318,-0.047 -0.646,-0.094 -0.9,-0.154 l -0.113,-0.026 0,-0.826 9.536,0 0.003,0.143 c 0.02,0.93 0.242,2.088 0.245,2.1 L 0.109,-0.046 0,0 Z"
             style="fill:#143f6e;fill-opacity:1;fill-rule:nonzero;stroke:none"
             id="path218"
             inkscape:connector-curvature="0" />
        </g>
        <g
           id="g220"
           transform="translate(112.8407,515.4258)">
          <path
             d="M 0,0 C -0.112,0.015 -0.21,0.027 -0.283,0.04 -0.32,0.076 -0.445,0.223 -0.617,0.691 l -4.148,11.296 -0.036,0.096 -0.102,0 c -0.302,0 -1.05,-0.127 -1.32,-0.307 L -6.262,11.75 -10.364,0.758 c -0.344,-0.905 -0.959,-0.905 -1.453,-0.905 l -0.146,0 0,-0.858 4.214,0 0,0.858 -0.146,0 c -0.57,0 -1.279,0 -1.48,0.288 -0.079,0.115 -0.077,0.287 0.007,0.513 l 1.162,3.12 3.902,0 1.142,-3.119 C -3.08,0.432 -3.078,0.27 -3.156,0.158 -3.298,-0.044 -3.733,-0.147 -4.449,-0.147 l -0.146,0 0,-0.858 5.341,0 0,0.885 C 0.491,-0.065 0.223,-0.029 0,0 m -7.871,4.697 1.626,4.404 1.607,-4.404 -3.233,0 z"
             style="fill:#143f6e;fill-opacity:1;fill-rule:nonzero;stroke:none"
             id="path222"
             inkscape:connector-curvature="0" />
        </g>
        <g
           id="g224"
           transform="translate(229.9648,515.2786)">
          <path
             d="m 0,0 c -0.057,0 -0.299,0.058 -0.423,0.133 -0.594,0.336 -1.14,1.208 -1.718,2.131 -0.58,0.924 -1.177,1.876 -1.886,2.376 1.724,0.335 3.554,1.471 3.554,3.729 0,3.189 -3.505,3.666 -5.595,3.666 l -4.686,0 0,-0.828 0.112,-0.026 c 0.387,-0.091 0.932,-0.173 1.295,-0.215 0.041,-0.05 0.161,-0.247 0.161,-0.859 l 0,-9.015 C -9.186,0.453 -9.317,0.25 -9.349,0.209 -9.468,0.19 -9.602,0.17 -9.74,0.15 -10.058,0.103 -10.387,0.056 -10.642,-0.004 l -0.112,-0.026 0,-0.828 5.534,0 0,0.828 -0.113,0.026 c -0.254,0.06 -0.583,0.107 -0.902,0.154 -0.136,0.02 -0.268,0.039 -0.386,0.058 -0.043,0.053 -0.167,0.261 -0.167,0.884 l 0,3.394 0.204,0 c 0.714,0 1.289,-1.22 1.846,-2.4 0.682,-1.447 1.388,-2.944 2.55,-2.944 l 2.245,0 L 0.057,0 0,0 Z m -5.758,5.409 -1.03,0 0,4.698 c 0,0.96 0.19,1.005 0.555,1.005 l 0.33,0 c 1.875,0 2.95,-1.008 2.95,-2.765 0,-1.839 -1.049,-2.938 -2.805,-2.938"
             style="fill:#143f6e;fill-opacity:1;fill-rule:nonzero;stroke:none"
             id="path226"
             inkscape:connector-curvature="0" />
        </g>
        <g
           id="g228"
           transform="translate(238.172,521.3296)">
          <path
             d="m 0,0 c 1.07,0.424 2.03,1.463 2.03,2.666 0,2.139 -1.628,3.318 -4.583,3.318 l -5.1,0 0,-0.828 0.113,-0.026 c 0.387,-0.091 0.932,-0.173 1.295,-0.215 0.041,-0.05 0.161,-0.247 0.161,-0.859 l 0,-9.015 c 0,-0.639 -0.131,-0.842 -0.163,-0.883 -0.12,-0.019 -0.253,-0.039 -0.391,-0.059 -0.29,-0.042 -0.585,-0.086 -0.828,-0.138 l 0,-0.87 5.883,0 c 3.394,0 4.604,1.916 4.604,3.709 0,1.774 -1.417,2.876 -3.021,3.2 m -3.687,4.056 c 0,0.968 0.031,1.005 0.267,1.005 l 0.557,0 c 2.239,0 2.413,-1.834 2.413,-2.395 0,-1.633 -0.881,-2.461 -2.619,-2.461 l -0.618,0 0,3.851 z m 1.546,-10.042 -0.825,0 c -0.467,0 -0.721,0.164 -0.721,1.027 l 0,4.242 0.948,0 c 2.135,0 3.218,-0.909 3.218,-2.7 0,-1.608 -0.98,-2.569 -2.62,-2.569"
             style="fill:#143f6e;fill-opacity:1;fill-rule:nonzero;stroke:none"
             id="path230"
             inkscape:connector-curvature="0" />
        </g>
        <g
           id="g232"
           transform="translate(277.3863,527.3134)">
          <path
             d="m 0,0 0,-0.858 0.313,0.001 c 0.753,0 1.524,-0.127 1.524,-1.071 l 0,-7.26 -7.521,9.135 -0.044,0.053 -2.705,0 0,-0.935 c 0.385,-0.162 1.19,-0.883 1.499,-1.422 l 0,-8.608 c 0,-0.943 -0.63,-1.07 -1.245,-1.07 l -0.282,0 0,-0.857 4.317,0 0,0.857 -0.313,0 c -0.754,0 -1.524,0.127 -1.524,1.07 l 0,7.522 7.748,-9.396 0.044,-0.053 0.979,0 0,10.964 c 0,0.944 0.63,1.071 1.245,1.071 L 4.317,-0.858 4.317,0 0,0 Z"
             style="fill:#143f6e;fill-opacity:1;fill-rule:nonzero;stroke:none"
             id="path234"
             inkscape:connector-curvature="0" />
        </g>
      </g>
    </g>
  </g>
</svg>
